M48
; DRILL file {KiCad 8.0.2} date 2024-09-02T19:20:56+0200
; FORMAT={-:-/ absolute / inch / decimal}
; #@! TF.CreationDate,2024-09-02T19:20:56+02:00
; #@! TF.GenerationSoftware,Kicad,Pcbnew,8.0.2
; #@! TF.FileFunction,Plated,1,2,PTH
FMAT,2
INCH
; #@! TA.AperFunction,Plated,PTH,ViaDrill
T1C0.0157
; #@! TA.AperFunction,Plated,PTH,ComponentDrill
T2C0.0315
; #@! TA.AperFunction,Plated,PTH,ComponentDrill
T3C0.0394
; #@! TA.AperFunction,Plated,PTH,ComponentDrill
T4C0.0433
%
G90
G05
T1
X1.05Y-2.6
X1.0849Y-1.9146
X1.1236Y-1.9801
X1.2265Y-1.7185
X1.2879Y-1.7544
X1.5239Y-2.3995
X1.54Y-2.5771
X1.6316Y-1.7638
X1.658Y-1.8187
X1.6592Y-2.0377
X1.6964Y-2.6259
X1.7881Y-2.6251
X1.8753Y-2.5124
X1.944Y-1.8286
X1.9736Y-2.0915
X1.9837Y-2.616
X2.1217Y-2.5771
X2.1299Y-2.4331
X2.1523Y-2.1566
X2.173Y-2.4072
X2.173Y-2.6252
X2.4844Y-2.1799
X2.9885Y-2.6093
X3.1348Y-2.6103
T2
X1.08Y-1.15
X1.08Y-1.45
X1.175Y-2.025
X1.175Y-2.2219
X1.18Y-1.15
X1.18Y-1.45
X1.28Y-1.15
X1.28Y-1.45
X1.38Y-1.15
X1.38Y-1.45
X1.4Y-1.95
X1.4Y-2.05
X1.4Y-2.15
X1.4Y-2.25
X1.4Y-2.35
X1.48Y-1.15
X1.48Y-1.45
X1.5Y-1.85
X1.5Y-1.95
X1.5Y-2.05
X1.5Y-2.15
X1.5Y-2.25
X1.5Y-2.35
X1.5Y-2.45
X1.58Y-1.15
X1.58Y-1.45
X1.6Y-1.85
X1.6Y-1.95
X1.6Y-2.35
X1.6Y-2.45
X1.68Y-1.15
X1.68Y-1.45
X1.7Y-1.85
X1.7Y-1.95
X1.7Y-2.35
X1.7Y-2.45
X1.78Y-1.15
X1.78Y-1.45
X1.8Y-1.85
X1.8Y-1.95
X1.8Y-2.05
X1.8Y-2.15
X1.8Y-2.25
X1.8Y-2.35
X1.8Y-2.45
X1.9Y-1.95
X1.9Y-2.05
X1.9Y-2.15
X1.9Y-2.25
X1.9Y-2.35
X2.925Y-1.71
X2.925Y-2.01
X2.925Y-2.215
X2.925Y-2.515
X3.075Y-1.71
X3.075Y-1.81
X3.075Y-1.91
X3.075Y-2.01
X3.075Y-2.11
X3.075Y-2.21
X3.075Y-2.31
X3.075Y-2.41
X3.075Y-2.51
T3
X2.06Y-1.16
X2.06Y-1.26
X2.16Y-1.16
X2.16Y-1.26
X2.26Y-1.16
X2.26Y-1.26
X2.45Y-1.16
X2.55Y-1.16
X2.65Y-1.16
T4
X2.82Y-1.16
X2.82Y-1.3372
X3.0759Y-1.16
X3.0759Y-1.3372
M30
