%TF.GenerationSoftware,KiCad,Pcbnew,8.0.2*%
%TF.CreationDate,2024-09-02T19:20:55+02:00*%
%TF.ProjectId,c64-megacart,6336342d-6d65-4676-9163-6172742e6b69,rev?*%
%TF.SameCoordinates,Original*%
%TF.FileFunction,Legend,Top*%
%TF.FilePolarity,Positive*%
%FSLAX46Y46*%
G04 Gerber Fmt 4.6, Leading zero omitted, Abs format (unit mm)*
G04 Created by KiCad (PCBNEW 8.0.2) date 2024-09-02 19:20:55*
%MOMM*%
%LPD*%
G01*
G04 APERTURE LIST*
%ADD10C,0.120000*%
%ADD11C,0.200000*%
%ADD12C,0.150000*%
%ADD13C,0.100000*%
%ADD14C,0.010000*%
%ADD15C,0.000000*%
G04 APERTURE END LIST*
D10*
X68014976Y-30983484D02*
G75*
G02*
X65104003Y-31026421I-1466976J757484D01*
G01*
X64458976Y-30983484D02*
G75*
G02*
X61548003Y-31026421I-1466976J757484D01*
G01*
D11*
X45505504Y-41195475D02*
X45505504Y-40719285D01*
X45791219Y-41290713D02*
X44791219Y-40957380D01*
X44791219Y-40957380D02*
X45791219Y-40624047D01*
X45791219Y-39766904D02*
X45791219Y-40338332D01*
X45791219Y-40052618D02*
X44791219Y-40052618D01*
X44791219Y-40052618D02*
X44934076Y-40147856D01*
X44934076Y-40147856D02*
X45029314Y-40243094D01*
X45029314Y-40243094D02*
X45076933Y-40338332D01*
X44791219Y-39433570D02*
X44791219Y-38814523D01*
X44791219Y-38814523D02*
X45172171Y-39147856D01*
X45172171Y-39147856D02*
X45172171Y-39004999D01*
X45172171Y-39004999D02*
X45219790Y-38909761D01*
X45219790Y-38909761D02*
X45267409Y-38862142D01*
X45267409Y-38862142D02*
X45362647Y-38814523D01*
X45362647Y-38814523D02*
X45600742Y-38814523D01*
X45600742Y-38814523D02*
X45695980Y-38862142D01*
X45695980Y-38862142D02*
X45743600Y-38909761D01*
X45743600Y-38909761D02*
X45791219Y-39004999D01*
X45791219Y-39004999D02*
X45791219Y-39290713D01*
X45791219Y-39290713D02*
X45743600Y-39385951D01*
X45743600Y-39385951D02*
X45695980Y-39433570D01*
X42965504Y-41195475D02*
X42965504Y-40719285D01*
X43251219Y-41290713D02*
X42251219Y-40957380D01*
X42251219Y-40957380D02*
X43251219Y-40624047D01*
X43251219Y-39766904D02*
X43251219Y-40338332D01*
X43251219Y-40052618D02*
X42251219Y-40052618D01*
X42251219Y-40052618D02*
X42394076Y-40147856D01*
X42394076Y-40147856D02*
X42489314Y-40243094D01*
X42489314Y-40243094D02*
X42536933Y-40338332D01*
X42584552Y-38909761D02*
X43251219Y-38909761D01*
X42203600Y-39147856D02*
X42917885Y-39385951D01*
X42917885Y-39385951D02*
X42917885Y-38766904D01*
X40425504Y-41195475D02*
X40425504Y-40719285D01*
X40711219Y-41290713D02*
X39711219Y-40957380D01*
X39711219Y-40957380D02*
X40711219Y-40624047D01*
X40711219Y-39766904D02*
X40711219Y-40338332D01*
X40711219Y-40052618D02*
X39711219Y-40052618D01*
X39711219Y-40052618D02*
X39854076Y-40147856D01*
X39854076Y-40147856D02*
X39949314Y-40243094D01*
X39949314Y-40243094D02*
X39996933Y-40338332D01*
X39711219Y-38862142D02*
X39711219Y-39338332D01*
X39711219Y-39338332D02*
X40187409Y-39385951D01*
X40187409Y-39385951D02*
X40139790Y-39338332D01*
X40139790Y-39338332D02*
X40092171Y-39243094D01*
X40092171Y-39243094D02*
X40092171Y-39004999D01*
X40092171Y-39004999D02*
X40139790Y-38909761D01*
X40139790Y-38909761D02*
X40187409Y-38862142D01*
X40187409Y-38862142D02*
X40282647Y-38814523D01*
X40282647Y-38814523D02*
X40520742Y-38814523D01*
X40520742Y-38814523D02*
X40615980Y-38862142D01*
X40615980Y-38862142D02*
X40663600Y-38909761D01*
X40663600Y-38909761D02*
X40711219Y-39004999D01*
X40711219Y-39004999D02*
X40711219Y-39243094D01*
X40711219Y-39243094D02*
X40663600Y-39338332D01*
X40663600Y-39338332D02*
X40615980Y-39385951D01*
X35091504Y-41195475D02*
X35091504Y-40719285D01*
X35377219Y-41290713D02*
X34377219Y-40957380D01*
X34377219Y-40957380D02*
X35377219Y-40624047D01*
X35377219Y-39766904D02*
X35377219Y-40338332D01*
X35377219Y-40052618D02*
X34377219Y-40052618D01*
X34377219Y-40052618D02*
X34520076Y-40147856D01*
X34520076Y-40147856D02*
X34615314Y-40243094D01*
X34615314Y-40243094D02*
X34662933Y-40338332D01*
X34377219Y-39433570D02*
X34377219Y-38766904D01*
X34377219Y-38766904D02*
X35377219Y-39195475D01*
X37885504Y-41195475D02*
X37885504Y-40719285D01*
X38171219Y-41290713D02*
X37171219Y-40957380D01*
X37171219Y-40957380D02*
X38171219Y-40624047D01*
X38171219Y-39766904D02*
X38171219Y-40338332D01*
X38171219Y-40052618D02*
X37171219Y-40052618D01*
X37171219Y-40052618D02*
X37314076Y-40147856D01*
X37314076Y-40147856D02*
X37409314Y-40243094D01*
X37409314Y-40243094D02*
X37456933Y-40338332D01*
X37171219Y-38909761D02*
X37171219Y-39100237D01*
X37171219Y-39100237D02*
X37218838Y-39195475D01*
X37218838Y-39195475D02*
X37266457Y-39243094D01*
X37266457Y-39243094D02*
X37409314Y-39338332D01*
X37409314Y-39338332D02*
X37599790Y-39385951D01*
X37599790Y-39385951D02*
X37980742Y-39385951D01*
X37980742Y-39385951D02*
X38075980Y-39338332D01*
X38075980Y-39338332D02*
X38123600Y-39290713D01*
X38123600Y-39290713D02*
X38171219Y-39195475D01*
X38171219Y-39195475D02*
X38171219Y-39004999D01*
X38171219Y-39004999D02*
X38123600Y-38909761D01*
X38123600Y-38909761D02*
X38075980Y-38862142D01*
X38075980Y-38862142D02*
X37980742Y-38814523D01*
X37980742Y-38814523D02*
X37742647Y-38814523D01*
X37742647Y-38814523D02*
X37647409Y-38862142D01*
X37647409Y-38862142D02*
X37599790Y-38909761D01*
X37599790Y-38909761D02*
X37552171Y-39004999D01*
X37552171Y-39004999D02*
X37552171Y-39195475D01*
X37552171Y-39195475D02*
X37599790Y-39290713D01*
X37599790Y-39290713D02*
X37647409Y-39338332D01*
X37647409Y-39338332D02*
X37742647Y-39385951D01*
X32805504Y-41195475D02*
X32805504Y-40719285D01*
X33091219Y-41290713D02*
X32091219Y-40957380D01*
X32091219Y-40957380D02*
X33091219Y-40624047D01*
X33091219Y-39766904D02*
X33091219Y-40338332D01*
X33091219Y-40052618D02*
X32091219Y-40052618D01*
X32091219Y-40052618D02*
X32234076Y-40147856D01*
X32234076Y-40147856D02*
X32329314Y-40243094D01*
X32329314Y-40243094D02*
X32376933Y-40338332D01*
X32519790Y-39195475D02*
X32472171Y-39290713D01*
X32472171Y-39290713D02*
X32424552Y-39338332D01*
X32424552Y-39338332D02*
X32329314Y-39385951D01*
X32329314Y-39385951D02*
X32281695Y-39385951D01*
X32281695Y-39385951D02*
X32186457Y-39338332D01*
X32186457Y-39338332D02*
X32138838Y-39290713D01*
X32138838Y-39290713D02*
X32091219Y-39195475D01*
X32091219Y-39195475D02*
X32091219Y-39004999D01*
X32091219Y-39004999D02*
X32138838Y-38909761D01*
X32138838Y-38909761D02*
X32186457Y-38862142D01*
X32186457Y-38862142D02*
X32281695Y-38814523D01*
X32281695Y-38814523D02*
X32329314Y-38814523D01*
X32329314Y-38814523D02*
X32424552Y-38862142D01*
X32424552Y-38862142D02*
X32472171Y-38909761D01*
X32472171Y-38909761D02*
X32519790Y-39004999D01*
X32519790Y-39004999D02*
X32519790Y-39195475D01*
X32519790Y-39195475D02*
X32567409Y-39290713D01*
X32567409Y-39290713D02*
X32615028Y-39338332D01*
X32615028Y-39338332D02*
X32710266Y-39385951D01*
X32710266Y-39385951D02*
X32900742Y-39385951D01*
X32900742Y-39385951D02*
X32995980Y-39338332D01*
X32995980Y-39338332D02*
X33043600Y-39290713D01*
X33043600Y-39290713D02*
X33091219Y-39195475D01*
X33091219Y-39195475D02*
X33091219Y-39004999D01*
X33091219Y-39004999D02*
X33043600Y-38909761D01*
X33043600Y-38909761D02*
X32995980Y-38862142D01*
X32995980Y-38862142D02*
X32900742Y-38814523D01*
X32900742Y-38814523D02*
X32710266Y-38814523D01*
X32710266Y-38814523D02*
X32615028Y-38862142D01*
X32615028Y-38862142D02*
X32567409Y-38909761D01*
X32567409Y-38909761D02*
X32519790Y-39004999D01*
D12*
X27208366Y-40799046D02*
X27175033Y-40865713D01*
X27175033Y-40865713D02*
X27175033Y-40965713D01*
X27175033Y-40965713D02*
X27208366Y-41065713D01*
X27208366Y-41065713D02*
X27275033Y-41132380D01*
X27275033Y-41132380D02*
X27341700Y-41165713D01*
X27341700Y-41165713D02*
X27475033Y-41199046D01*
X27475033Y-41199046D02*
X27575033Y-41199046D01*
X27575033Y-41199046D02*
X27708366Y-41165713D01*
X27708366Y-41165713D02*
X27775033Y-41132380D01*
X27775033Y-41132380D02*
X27841700Y-41065713D01*
X27841700Y-41065713D02*
X27875033Y-40965713D01*
X27875033Y-40965713D02*
X27875033Y-40899046D01*
X27875033Y-40899046D02*
X27841700Y-40799046D01*
X27841700Y-40799046D02*
X27808366Y-40765713D01*
X27808366Y-40765713D02*
X27575033Y-40765713D01*
X27575033Y-40765713D02*
X27575033Y-40899046D01*
X27675033Y-40499046D02*
X27675033Y-40165713D01*
X27875033Y-40565713D02*
X27175033Y-40332380D01*
X27175033Y-40332380D02*
X27875033Y-40099046D01*
X27875033Y-39865713D02*
X27175033Y-39865713D01*
X27175033Y-39865713D02*
X27675033Y-39632380D01*
X27675033Y-39632380D02*
X27175033Y-39399046D01*
X27175033Y-39399046D02*
X27875033Y-39399046D01*
X27508366Y-39065713D02*
X27508366Y-38832380D01*
X27875033Y-38732380D02*
X27875033Y-39065713D01*
X27875033Y-39065713D02*
X27175033Y-39065713D01*
X27175033Y-39065713D02*
X27175033Y-38732380D01*
X26980700Y-41262380D02*
X26980700Y-38669047D01*
D13*
X66466633Y-32989000D02*
X66433300Y-33055667D01*
X66433300Y-33055667D02*
X66399966Y-33089000D01*
X66399966Y-33089000D02*
X66333300Y-33122333D01*
X66333300Y-33122333D02*
X66299966Y-33122333D01*
X66299966Y-33122333D02*
X66233300Y-33089000D01*
X66233300Y-33089000D02*
X66199966Y-33055667D01*
X66199966Y-33055667D02*
X66166633Y-32989000D01*
X66166633Y-32989000D02*
X66166633Y-32855667D01*
X66166633Y-32855667D02*
X66199966Y-32789000D01*
X66199966Y-32789000D02*
X66233300Y-32755667D01*
X66233300Y-32755667D02*
X66299966Y-32722333D01*
X66299966Y-32722333D02*
X66333300Y-32722333D01*
X66333300Y-32722333D02*
X66399966Y-32755667D01*
X66399966Y-32755667D02*
X66433300Y-32789000D01*
X66433300Y-32789000D02*
X66466633Y-32855667D01*
X66466633Y-32855667D02*
X66466633Y-32989000D01*
X66466633Y-32989000D02*
X66499966Y-33055667D01*
X66499966Y-33055667D02*
X66533300Y-33089000D01*
X66533300Y-33089000D02*
X66599966Y-33122333D01*
X66599966Y-33122333D02*
X66733300Y-33122333D01*
X66733300Y-33122333D02*
X66799966Y-33089000D01*
X66799966Y-33089000D02*
X66833300Y-33055667D01*
X66833300Y-33055667D02*
X66866633Y-32989000D01*
X66866633Y-32989000D02*
X66866633Y-32855667D01*
X66866633Y-32855667D02*
X66833300Y-32789000D01*
X66833300Y-32789000D02*
X66799966Y-32755667D01*
X66799966Y-32755667D02*
X66733300Y-32722333D01*
X66733300Y-32722333D02*
X66599966Y-32722333D01*
X66599966Y-32722333D02*
X66533300Y-32755667D01*
X66533300Y-32755667D02*
X66499966Y-32789000D01*
X66499966Y-32789000D02*
X66466633Y-32855667D01*
X66866633Y-32422333D02*
X66166633Y-32422333D01*
X66599966Y-32355666D02*
X66866633Y-32155666D01*
X66399966Y-32155666D02*
X66666633Y-32422333D01*
X52769633Y-36248000D02*
X52436300Y-36481333D01*
X52769633Y-36648000D02*
X52069633Y-36648000D01*
X52069633Y-36648000D02*
X52069633Y-36381333D01*
X52069633Y-36381333D02*
X52102966Y-36314667D01*
X52102966Y-36314667D02*
X52136300Y-36281333D01*
X52136300Y-36281333D02*
X52202966Y-36248000D01*
X52202966Y-36248000D02*
X52302966Y-36248000D01*
X52302966Y-36248000D02*
X52369633Y-36281333D01*
X52369633Y-36281333D02*
X52402966Y-36314667D01*
X52402966Y-36314667D02*
X52436300Y-36381333D01*
X52436300Y-36381333D02*
X52436300Y-36648000D01*
X52069633Y-35814667D02*
X52069633Y-35681333D01*
X52069633Y-35681333D02*
X52102966Y-35614667D01*
X52102966Y-35614667D02*
X52169633Y-35548000D01*
X52169633Y-35548000D02*
X52302966Y-35514667D01*
X52302966Y-35514667D02*
X52536300Y-35514667D01*
X52536300Y-35514667D02*
X52669633Y-35548000D01*
X52669633Y-35548000D02*
X52736300Y-35614667D01*
X52736300Y-35614667D02*
X52769633Y-35681333D01*
X52769633Y-35681333D02*
X52769633Y-35814667D01*
X52769633Y-35814667D02*
X52736300Y-35881333D01*
X52736300Y-35881333D02*
X52669633Y-35948000D01*
X52669633Y-35948000D02*
X52536300Y-35981333D01*
X52536300Y-35981333D02*
X52302966Y-35981333D01*
X52302966Y-35981333D02*
X52169633Y-35948000D01*
X52169633Y-35948000D02*
X52102966Y-35881333D01*
X52102966Y-35881333D02*
X52069633Y-35814667D01*
X52769633Y-35214667D02*
X52069633Y-35214667D01*
X52069633Y-35214667D02*
X52569633Y-34981334D01*
X52569633Y-34981334D02*
X52069633Y-34748000D01*
X52069633Y-34748000D02*
X52769633Y-34748000D01*
X52769633Y-34414667D02*
X52069633Y-34414667D01*
X52402966Y-34414667D02*
X52402966Y-34014667D01*
X52769633Y-34014667D02*
X52069633Y-34014667D01*
X51875300Y-36744667D02*
X51875300Y-33918001D01*
X55309633Y-36081333D02*
X54976300Y-36314666D01*
X55309633Y-36481333D02*
X54609633Y-36481333D01*
X54609633Y-36481333D02*
X54609633Y-36214666D01*
X54609633Y-36214666D02*
X54642966Y-36148000D01*
X54642966Y-36148000D02*
X54676300Y-36114666D01*
X54676300Y-36114666D02*
X54742966Y-36081333D01*
X54742966Y-36081333D02*
X54842966Y-36081333D01*
X54842966Y-36081333D02*
X54909633Y-36114666D01*
X54909633Y-36114666D02*
X54942966Y-36148000D01*
X54942966Y-36148000D02*
X54976300Y-36214666D01*
X54976300Y-36214666D02*
X54976300Y-36481333D01*
X54609633Y-35648000D02*
X54609633Y-35514666D01*
X54609633Y-35514666D02*
X54642966Y-35448000D01*
X54642966Y-35448000D02*
X54709633Y-35381333D01*
X54709633Y-35381333D02*
X54842966Y-35348000D01*
X54842966Y-35348000D02*
X55076300Y-35348000D01*
X55076300Y-35348000D02*
X55209633Y-35381333D01*
X55209633Y-35381333D02*
X55276300Y-35448000D01*
X55276300Y-35448000D02*
X55309633Y-35514666D01*
X55309633Y-35514666D02*
X55309633Y-35648000D01*
X55309633Y-35648000D02*
X55276300Y-35714666D01*
X55276300Y-35714666D02*
X55209633Y-35781333D01*
X55209633Y-35781333D02*
X55076300Y-35814666D01*
X55076300Y-35814666D02*
X54842966Y-35814666D01*
X54842966Y-35814666D02*
X54709633Y-35781333D01*
X54709633Y-35781333D02*
X54642966Y-35714666D01*
X54642966Y-35714666D02*
X54609633Y-35648000D01*
X55309633Y-35048000D02*
X54609633Y-35048000D01*
X54609633Y-35048000D02*
X55109633Y-34814667D01*
X55109633Y-34814667D02*
X54609633Y-34581333D01*
X54609633Y-34581333D02*
X55309633Y-34581333D01*
X55309633Y-33914667D02*
X55309633Y-34248000D01*
X55309633Y-34248000D02*
X54609633Y-34248000D01*
X54415300Y-36578000D02*
X54415300Y-33918000D01*
X57722633Y-35214666D02*
X57722633Y-35614666D01*
X57722633Y-35414666D02*
X57022633Y-35414666D01*
X57022633Y-35414666D02*
X57122633Y-35481333D01*
X57122633Y-35481333D02*
X57189300Y-35548000D01*
X57189300Y-35548000D02*
X57222633Y-35614666D01*
X57022633Y-34614666D02*
X57022633Y-34747999D01*
X57022633Y-34747999D02*
X57055966Y-34814666D01*
X57055966Y-34814666D02*
X57089300Y-34847999D01*
X57089300Y-34847999D02*
X57189300Y-34914666D01*
X57189300Y-34914666D02*
X57322633Y-34947999D01*
X57322633Y-34947999D02*
X57589300Y-34947999D01*
X57589300Y-34947999D02*
X57655966Y-34914666D01*
X57655966Y-34914666D02*
X57689300Y-34881333D01*
X57689300Y-34881333D02*
X57722633Y-34814666D01*
X57722633Y-34814666D02*
X57722633Y-34681333D01*
X57722633Y-34681333D02*
X57689300Y-34614666D01*
X57689300Y-34614666D02*
X57655966Y-34581333D01*
X57655966Y-34581333D02*
X57589300Y-34547999D01*
X57589300Y-34547999D02*
X57422633Y-34547999D01*
X57422633Y-34547999D02*
X57355966Y-34581333D01*
X57355966Y-34581333D02*
X57322633Y-34614666D01*
X57322633Y-34614666D02*
X57289300Y-34681333D01*
X57289300Y-34681333D02*
X57289300Y-34814666D01*
X57289300Y-34814666D02*
X57322633Y-34881333D01*
X57322633Y-34881333D02*
X57355966Y-34914666D01*
X57355966Y-34914666D02*
X57422633Y-34947999D01*
X57722633Y-34247999D02*
X57022633Y-34247999D01*
X57455966Y-34181332D02*
X57722633Y-33981332D01*
X57255966Y-33981332D02*
X57522633Y-34247999D01*
D12*
X36259237Y-63462819D02*
X36259237Y-64177104D01*
X36259237Y-64177104D02*
X36211618Y-64319961D01*
X36211618Y-64319961D02*
X36116380Y-64415200D01*
X36116380Y-64415200D02*
X35973523Y-64462819D01*
X35973523Y-64462819D02*
X35878285Y-64462819D01*
X37211618Y-64462819D02*
X36735428Y-64462819D01*
X36735428Y-64462819D02*
X36735428Y-63462819D01*
X38116380Y-64367580D02*
X38068761Y-64415200D01*
X38068761Y-64415200D02*
X37925904Y-64462819D01*
X37925904Y-64462819D02*
X37830666Y-64462819D01*
X37830666Y-64462819D02*
X37687809Y-64415200D01*
X37687809Y-64415200D02*
X37592571Y-64319961D01*
X37592571Y-64319961D02*
X37544952Y-64224723D01*
X37544952Y-64224723D02*
X37497333Y-64034247D01*
X37497333Y-64034247D02*
X37497333Y-63891390D01*
X37497333Y-63891390D02*
X37544952Y-63700914D01*
X37544952Y-63700914D02*
X37592571Y-63605676D01*
X37592571Y-63605676D02*
X37687809Y-63510438D01*
X37687809Y-63510438D02*
X37830666Y-63462819D01*
X37830666Y-63462819D02*
X37925904Y-63462819D01*
X37925904Y-63462819D02*
X38068761Y-63510438D01*
X38068761Y-63510438D02*
X38116380Y-63558057D01*
X38830666Y-63462819D02*
X38830666Y-64177104D01*
X38830666Y-64177104D02*
X38783047Y-64319961D01*
X38783047Y-64319961D02*
X38687809Y-64415200D01*
X38687809Y-64415200D02*
X38544952Y-64462819D01*
X38544952Y-64462819D02*
X38449714Y-64462819D01*
X39783047Y-64462819D02*
X39306857Y-64462819D01*
X39306857Y-64462819D02*
X39306857Y-63462819D01*
X40687809Y-64367580D02*
X40640190Y-64415200D01*
X40640190Y-64415200D02*
X40497333Y-64462819D01*
X40497333Y-64462819D02*
X40402095Y-64462819D01*
X40402095Y-64462819D02*
X40259238Y-64415200D01*
X40259238Y-64415200D02*
X40164000Y-64319961D01*
X40164000Y-64319961D02*
X40116381Y-64224723D01*
X40116381Y-64224723D02*
X40068762Y-64034247D01*
X40068762Y-64034247D02*
X40068762Y-63891390D01*
X40068762Y-63891390D02*
X40116381Y-63700914D01*
X40116381Y-63700914D02*
X40164000Y-63605676D01*
X40164000Y-63605676D02*
X40259238Y-63510438D01*
X40259238Y-63510438D02*
X40402095Y-63462819D01*
X40402095Y-63462819D02*
X40497333Y-63462819D01*
X40497333Y-63462819D02*
X40640190Y-63510438D01*
X40640190Y-63510438D02*
X40687809Y-63558057D01*
X41402095Y-63462819D02*
X41402095Y-64177104D01*
X41402095Y-64177104D02*
X41354476Y-64319961D01*
X41354476Y-64319961D02*
X41259238Y-64415200D01*
X41259238Y-64415200D02*
X41116381Y-64462819D01*
X41116381Y-64462819D02*
X41021143Y-64462819D01*
X42354476Y-64462819D02*
X41878286Y-64462819D01*
X41878286Y-64462819D02*
X41878286Y-63462819D01*
X43259238Y-64367580D02*
X43211619Y-64415200D01*
X43211619Y-64415200D02*
X43068762Y-64462819D01*
X43068762Y-64462819D02*
X42973524Y-64462819D01*
X42973524Y-64462819D02*
X42830667Y-64415200D01*
X42830667Y-64415200D02*
X42735429Y-64319961D01*
X42735429Y-64319961D02*
X42687810Y-64224723D01*
X42687810Y-64224723D02*
X42640191Y-64034247D01*
X42640191Y-64034247D02*
X42640191Y-63891390D01*
X42640191Y-63891390D02*
X42687810Y-63700914D01*
X42687810Y-63700914D02*
X42735429Y-63605676D01*
X42735429Y-63605676D02*
X42830667Y-63510438D01*
X42830667Y-63510438D02*
X42973524Y-63462819D01*
X42973524Y-63462819D02*
X43068762Y-63462819D01*
X43068762Y-63462819D02*
X43211619Y-63510438D01*
X43211619Y-63510438D02*
X43259238Y-63558057D01*
X43973524Y-63462819D02*
X43973524Y-64177104D01*
X43973524Y-64177104D02*
X43925905Y-64319961D01*
X43925905Y-64319961D02*
X43830667Y-64415200D01*
X43830667Y-64415200D02*
X43687810Y-64462819D01*
X43687810Y-64462819D02*
X43592572Y-64462819D01*
X44925905Y-64462819D02*
X44449715Y-64462819D01*
X44449715Y-64462819D02*
X44449715Y-63462819D01*
X45830667Y-64367580D02*
X45783048Y-64415200D01*
X45783048Y-64415200D02*
X45640191Y-64462819D01*
X45640191Y-64462819D02*
X45544953Y-64462819D01*
X45544953Y-64462819D02*
X45402096Y-64415200D01*
X45402096Y-64415200D02*
X45306858Y-64319961D01*
X45306858Y-64319961D02*
X45259239Y-64224723D01*
X45259239Y-64224723D02*
X45211620Y-64034247D01*
X45211620Y-64034247D02*
X45211620Y-63891390D01*
X45211620Y-63891390D02*
X45259239Y-63700914D01*
X45259239Y-63700914D02*
X45306858Y-63605676D01*
X45306858Y-63605676D02*
X45402096Y-63510438D01*
X45402096Y-63510438D02*
X45544953Y-63462819D01*
X45544953Y-63462819D02*
X45640191Y-63462819D01*
X45640191Y-63462819D02*
X45783048Y-63510438D01*
X45783048Y-63510438D02*
X45830667Y-63558057D01*
X46544953Y-63462819D02*
X46544953Y-64177104D01*
X46544953Y-64177104D02*
X46497334Y-64319961D01*
X46497334Y-64319961D02*
X46402096Y-64415200D01*
X46402096Y-64415200D02*
X46259239Y-64462819D01*
X46259239Y-64462819D02*
X46164001Y-64462819D01*
X47497334Y-64462819D02*
X47021144Y-64462819D01*
X47021144Y-64462819D02*
X47021144Y-63462819D01*
X48402096Y-64367580D02*
X48354477Y-64415200D01*
X48354477Y-64415200D02*
X48211620Y-64462819D01*
X48211620Y-64462819D02*
X48116382Y-64462819D01*
X48116382Y-64462819D02*
X47973525Y-64415200D01*
X47973525Y-64415200D02*
X47878287Y-64319961D01*
X47878287Y-64319961D02*
X47830668Y-64224723D01*
X47830668Y-64224723D02*
X47783049Y-64034247D01*
X47783049Y-64034247D02*
X47783049Y-63891390D01*
X47783049Y-63891390D02*
X47830668Y-63700914D01*
X47830668Y-63700914D02*
X47878287Y-63605676D01*
X47878287Y-63605676D02*
X47973525Y-63510438D01*
X47973525Y-63510438D02*
X48116382Y-63462819D01*
X48116382Y-63462819D02*
X48211620Y-63462819D01*
X48211620Y-63462819D02*
X48354477Y-63510438D01*
X48354477Y-63510438D02*
X48402096Y-63558057D01*
D13*
X63183633Y-33436666D02*
X63183633Y-33836666D01*
X63183633Y-33636666D02*
X62483633Y-33636666D01*
X62483633Y-33636666D02*
X62583633Y-33703333D01*
X62583633Y-33703333D02*
X62650300Y-33770000D01*
X62650300Y-33770000D02*
X62683633Y-33836666D01*
X62483633Y-32836666D02*
X62483633Y-32969999D01*
X62483633Y-32969999D02*
X62516966Y-33036666D01*
X62516966Y-33036666D02*
X62550300Y-33069999D01*
X62550300Y-33069999D02*
X62650300Y-33136666D01*
X62650300Y-33136666D02*
X62783633Y-33169999D01*
X62783633Y-33169999D02*
X63050300Y-33169999D01*
X63050300Y-33169999D02*
X63116966Y-33136666D01*
X63116966Y-33136666D02*
X63150300Y-33103333D01*
X63150300Y-33103333D02*
X63183633Y-33036666D01*
X63183633Y-33036666D02*
X63183633Y-32903333D01*
X63183633Y-32903333D02*
X63150300Y-32836666D01*
X63150300Y-32836666D02*
X63116966Y-32803333D01*
X63116966Y-32803333D02*
X63050300Y-32769999D01*
X63050300Y-32769999D02*
X62883633Y-32769999D01*
X62883633Y-32769999D02*
X62816966Y-32803333D01*
X62816966Y-32803333D02*
X62783633Y-32836666D01*
X62783633Y-32836666D02*
X62750300Y-32903333D01*
X62750300Y-32903333D02*
X62750300Y-33036666D01*
X62750300Y-33036666D02*
X62783633Y-33103333D01*
X62783633Y-33103333D02*
X62816966Y-33136666D01*
X62816966Y-33136666D02*
X62883633Y-33169999D01*
X63183633Y-32469999D02*
X62483633Y-32469999D01*
X62916966Y-32403332D02*
X63183633Y-32203332D01*
X62716966Y-32203332D02*
X62983633Y-32469999D01*
D12*
X30048366Y-41965713D02*
X30048366Y-41732380D01*
X30415033Y-41632380D02*
X30415033Y-41965713D01*
X30415033Y-41965713D02*
X29715033Y-41965713D01*
X29715033Y-41965713D02*
X29715033Y-41632380D01*
X29715033Y-41399047D02*
X30415033Y-40932380D01*
X29715033Y-40932380D02*
X30415033Y-41399047D01*
X30415033Y-40265713D02*
X30081700Y-40499046D01*
X30415033Y-40665713D02*
X29715033Y-40665713D01*
X29715033Y-40665713D02*
X29715033Y-40399046D01*
X29715033Y-40399046D02*
X29748366Y-40332380D01*
X29748366Y-40332380D02*
X29781700Y-40299046D01*
X29781700Y-40299046D02*
X29848366Y-40265713D01*
X29848366Y-40265713D02*
X29948366Y-40265713D01*
X29948366Y-40265713D02*
X30015033Y-40299046D01*
X30015033Y-40299046D02*
X30048366Y-40332380D01*
X30048366Y-40332380D02*
X30081700Y-40399046D01*
X30081700Y-40399046D02*
X30081700Y-40665713D01*
X29715033Y-39832380D02*
X29715033Y-39699046D01*
X29715033Y-39699046D02*
X29748366Y-39632380D01*
X29748366Y-39632380D02*
X29815033Y-39565713D01*
X29815033Y-39565713D02*
X29948366Y-39532380D01*
X29948366Y-39532380D02*
X30181700Y-39532380D01*
X30181700Y-39532380D02*
X30315033Y-39565713D01*
X30315033Y-39565713D02*
X30381700Y-39632380D01*
X30381700Y-39632380D02*
X30415033Y-39699046D01*
X30415033Y-39699046D02*
X30415033Y-39832380D01*
X30415033Y-39832380D02*
X30381700Y-39899046D01*
X30381700Y-39899046D02*
X30315033Y-39965713D01*
X30315033Y-39965713D02*
X30181700Y-39999046D01*
X30181700Y-39999046D02*
X29948366Y-39999046D01*
X29948366Y-39999046D02*
X29815033Y-39965713D01*
X29815033Y-39965713D02*
X29748366Y-39899046D01*
X29748366Y-39899046D02*
X29715033Y-39832380D01*
X30415033Y-39232380D02*
X29715033Y-39232380D01*
X29715033Y-39232380D02*
X30215033Y-38999047D01*
X30215033Y-38999047D02*
X29715033Y-38765713D01*
X29715033Y-38765713D02*
X30415033Y-38765713D01*
X29520700Y-42062380D02*
X29520700Y-38669047D01*
X27664580Y-54141666D02*
X27712200Y-54189285D01*
X27712200Y-54189285D02*
X27759819Y-54332142D01*
X27759819Y-54332142D02*
X27759819Y-54427380D01*
X27759819Y-54427380D02*
X27712200Y-54570237D01*
X27712200Y-54570237D02*
X27616961Y-54665475D01*
X27616961Y-54665475D02*
X27521723Y-54713094D01*
X27521723Y-54713094D02*
X27331247Y-54760713D01*
X27331247Y-54760713D02*
X27188390Y-54760713D01*
X27188390Y-54760713D02*
X26997914Y-54713094D01*
X26997914Y-54713094D02*
X26902676Y-54665475D01*
X26902676Y-54665475D02*
X26807438Y-54570237D01*
X26807438Y-54570237D02*
X26759819Y-54427380D01*
X26759819Y-54427380D02*
X26759819Y-54332142D01*
X26759819Y-54332142D02*
X26807438Y-54189285D01*
X26807438Y-54189285D02*
X26855057Y-54141666D01*
X27759819Y-53189285D02*
X27759819Y-53760713D01*
X27759819Y-53474999D02*
X26759819Y-53474999D01*
X26759819Y-53474999D02*
X26902676Y-53570237D01*
X26902676Y-53570237D02*
X26997914Y-53665475D01*
X26997914Y-53665475D02*
X27045533Y-53760713D01*
X73544667Y-27871200D02*
X73687524Y-27918819D01*
X73687524Y-27918819D02*
X73925619Y-27918819D01*
X73925619Y-27918819D02*
X74020857Y-27871200D01*
X74020857Y-27871200D02*
X74068476Y-27823580D01*
X74068476Y-27823580D02*
X74116095Y-27728342D01*
X74116095Y-27728342D02*
X74116095Y-27633104D01*
X74116095Y-27633104D02*
X74068476Y-27537866D01*
X74068476Y-27537866D02*
X74020857Y-27490247D01*
X74020857Y-27490247D02*
X73925619Y-27442628D01*
X73925619Y-27442628D02*
X73735143Y-27395009D01*
X73735143Y-27395009D02*
X73639905Y-27347390D01*
X73639905Y-27347390D02*
X73592286Y-27299771D01*
X73592286Y-27299771D02*
X73544667Y-27204533D01*
X73544667Y-27204533D02*
X73544667Y-27109295D01*
X73544667Y-27109295D02*
X73592286Y-27014057D01*
X73592286Y-27014057D02*
X73639905Y-26966438D01*
X73639905Y-26966438D02*
X73735143Y-26918819D01*
X73735143Y-26918819D02*
X73973238Y-26918819D01*
X73973238Y-26918819D02*
X74116095Y-26966438D01*
X74449429Y-26918819D02*
X74687524Y-27918819D01*
X74687524Y-27918819D02*
X74878000Y-27204533D01*
X74878000Y-27204533D02*
X75068476Y-27918819D01*
X75068476Y-27918819D02*
X75306572Y-26918819D01*
X76211333Y-27918819D02*
X75639905Y-27918819D01*
X75925619Y-27918819D02*
X75925619Y-26918819D01*
X75925619Y-26918819D02*
X75830381Y-27061676D01*
X75830381Y-27061676D02*
X75735143Y-27156914D01*
X75735143Y-27156914D02*
X75639905Y-27204533D01*
X73477618Y-36618819D02*
X73144285Y-36142628D01*
X72906190Y-36618819D02*
X72906190Y-35618819D01*
X72906190Y-35618819D02*
X73287142Y-35618819D01*
X73287142Y-35618819D02*
X73382380Y-35666438D01*
X73382380Y-35666438D02*
X73429999Y-35714057D01*
X73429999Y-35714057D02*
X73477618Y-35809295D01*
X73477618Y-35809295D02*
X73477618Y-35952152D01*
X73477618Y-35952152D02*
X73429999Y-36047390D01*
X73429999Y-36047390D02*
X73382380Y-36095009D01*
X73382380Y-36095009D02*
X73287142Y-36142628D01*
X73287142Y-36142628D02*
X72906190Y-36142628D01*
X73906190Y-36095009D02*
X74239523Y-36095009D01*
X74382380Y-36618819D02*
X73906190Y-36618819D01*
X73906190Y-36618819D02*
X73906190Y-35618819D01*
X73906190Y-35618819D02*
X74382380Y-35618819D01*
X74763333Y-36571200D02*
X74906190Y-36618819D01*
X74906190Y-36618819D02*
X75144285Y-36618819D01*
X75144285Y-36618819D02*
X75239523Y-36571200D01*
X75239523Y-36571200D02*
X75287142Y-36523580D01*
X75287142Y-36523580D02*
X75334761Y-36428342D01*
X75334761Y-36428342D02*
X75334761Y-36333104D01*
X75334761Y-36333104D02*
X75287142Y-36237866D01*
X75287142Y-36237866D02*
X75239523Y-36190247D01*
X75239523Y-36190247D02*
X75144285Y-36142628D01*
X75144285Y-36142628D02*
X74953809Y-36095009D01*
X74953809Y-36095009D02*
X74858571Y-36047390D01*
X74858571Y-36047390D02*
X74810952Y-35999771D01*
X74810952Y-35999771D02*
X74763333Y-35904533D01*
X74763333Y-35904533D02*
X74763333Y-35809295D01*
X74763333Y-35809295D02*
X74810952Y-35714057D01*
X74810952Y-35714057D02*
X74858571Y-35666438D01*
X74858571Y-35666438D02*
X74953809Y-35618819D01*
X74953809Y-35618819D02*
X75191904Y-35618819D01*
X75191904Y-35618819D02*
X75334761Y-35666438D01*
X75763333Y-36095009D02*
X76096666Y-36095009D01*
X76239523Y-36618819D02*
X75763333Y-36618819D01*
X75763333Y-36618819D02*
X75763333Y-35618819D01*
X75763333Y-35618819D02*
X76239523Y-35618819D01*
X76525238Y-35618819D02*
X77096666Y-35618819D01*
X76810952Y-36618819D02*
X76810952Y-35618819D01*
X77414523Y-40967819D02*
X77081190Y-40491628D01*
X76843095Y-40967819D02*
X76843095Y-39967819D01*
X76843095Y-39967819D02*
X77224047Y-39967819D01*
X77224047Y-39967819D02*
X77319285Y-40015438D01*
X77319285Y-40015438D02*
X77366904Y-40063057D01*
X77366904Y-40063057D02*
X77414523Y-40158295D01*
X77414523Y-40158295D02*
X77414523Y-40301152D01*
X77414523Y-40301152D02*
X77366904Y-40396390D01*
X77366904Y-40396390D02*
X77319285Y-40444009D01*
X77319285Y-40444009D02*
X77224047Y-40491628D01*
X77224047Y-40491628D02*
X76843095Y-40491628D01*
X77843095Y-40967819D02*
X77843095Y-39967819D01*
X77843095Y-39967819D02*
X78414523Y-40967819D01*
X78414523Y-40967819D02*
X78414523Y-39967819D01*
X79414523Y-40967819D02*
X78843095Y-40967819D01*
X79128809Y-40967819D02*
X79128809Y-39967819D01*
X79128809Y-39967819D02*
X79033571Y-40110676D01*
X79033571Y-40110676D02*
X78938333Y-40205914D01*
X78938333Y-40205914D02*
X78843095Y-40253533D01*
X77509761Y-67002819D02*
X76938333Y-67002819D01*
X77224047Y-67002819D02*
X77224047Y-66002819D01*
X77224047Y-66002819D02*
X77128809Y-66145676D01*
X77128809Y-66145676D02*
X77033571Y-66240914D01*
X77033571Y-66240914D02*
X76938333Y-66288533D01*
X78128809Y-66002819D02*
X78224047Y-66002819D01*
X78224047Y-66002819D02*
X78319285Y-66050438D01*
X78319285Y-66050438D02*
X78366904Y-66098057D01*
X78366904Y-66098057D02*
X78414523Y-66193295D01*
X78414523Y-66193295D02*
X78462142Y-66383771D01*
X78462142Y-66383771D02*
X78462142Y-66621866D01*
X78462142Y-66621866D02*
X78414523Y-66812342D01*
X78414523Y-66812342D02*
X78366904Y-66907580D01*
X78366904Y-66907580D02*
X78319285Y-66955200D01*
X78319285Y-66955200D02*
X78224047Y-67002819D01*
X78224047Y-67002819D02*
X78128809Y-67002819D01*
X78128809Y-67002819D02*
X78033571Y-66955200D01*
X78033571Y-66955200D02*
X77985952Y-66907580D01*
X77985952Y-66907580D02*
X77938333Y-66812342D01*
X77938333Y-66812342D02*
X77890714Y-66621866D01*
X77890714Y-66621866D02*
X77890714Y-66383771D01*
X77890714Y-66383771D02*
X77938333Y-66193295D01*
X77938333Y-66193295D02*
X77985952Y-66098057D01*
X77985952Y-66098057D02*
X78033571Y-66050438D01*
X78033571Y-66050438D02*
X78128809Y-66002819D01*
X78890714Y-67002819D02*
X78890714Y-66002819D01*
X78985952Y-66621866D02*
X79271666Y-67002819D01*
X79271666Y-66336152D02*
X78890714Y-66717104D01*
X73556905Y-41983819D02*
X73556905Y-40983819D01*
X73556905Y-40983819D02*
X73795000Y-40983819D01*
X73795000Y-40983819D02*
X73937857Y-41031438D01*
X73937857Y-41031438D02*
X74033095Y-41126676D01*
X74033095Y-41126676D02*
X74080714Y-41221914D01*
X74080714Y-41221914D02*
X74128333Y-41412390D01*
X74128333Y-41412390D02*
X74128333Y-41555247D01*
X74128333Y-41555247D02*
X74080714Y-41745723D01*
X74080714Y-41745723D02*
X74033095Y-41840961D01*
X74033095Y-41840961D02*
X73937857Y-41936200D01*
X73937857Y-41936200D02*
X73795000Y-41983819D01*
X73795000Y-41983819D02*
X73556905Y-41983819D01*
X75080714Y-41983819D02*
X74509286Y-41983819D01*
X74795000Y-41983819D02*
X74795000Y-40983819D01*
X74795000Y-40983819D02*
X74699762Y-41126676D01*
X74699762Y-41126676D02*
X74604524Y-41221914D01*
X74604524Y-41221914D02*
X74509286Y-41269533D01*
X73556905Y-54810819D02*
X73556905Y-53810819D01*
X73556905Y-53810819D02*
X73795000Y-53810819D01*
X73795000Y-53810819D02*
X73937857Y-53858438D01*
X73937857Y-53858438D02*
X74033095Y-53953676D01*
X74033095Y-53953676D02*
X74080714Y-54048914D01*
X74080714Y-54048914D02*
X74128333Y-54239390D01*
X74128333Y-54239390D02*
X74128333Y-54382247D01*
X74128333Y-54382247D02*
X74080714Y-54572723D01*
X74080714Y-54572723D02*
X74033095Y-54667961D01*
X74033095Y-54667961D02*
X73937857Y-54763200D01*
X73937857Y-54763200D02*
X73795000Y-54810819D01*
X73795000Y-54810819D02*
X73556905Y-54810819D01*
X74509286Y-53906057D02*
X74556905Y-53858438D01*
X74556905Y-53858438D02*
X74652143Y-53810819D01*
X74652143Y-53810819D02*
X74890238Y-53810819D01*
X74890238Y-53810819D02*
X74985476Y-53858438D01*
X74985476Y-53858438D02*
X75033095Y-53906057D01*
X75033095Y-53906057D02*
X75080714Y-54001295D01*
X75080714Y-54001295D02*
X75080714Y-54096533D01*
X75080714Y-54096533D02*
X75033095Y-54239390D01*
X75033095Y-54239390D02*
X74461667Y-54810819D01*
X74461667Y-54810819D02*
X75080714Y-54810819D01*
X41148095Y-42764819D02*
X41148095Y-43574342D01*
X41148095Y-43574342D02*
X41195714Y-43669580D01*
X41195714Y-43669580D02*
X41243333Y-43717200D01*
X41243333Y-43717200D02*
X41338571Y-43764819D01*
X41338571Y-43764819D02*
X41529047Y-43764819D01*
X41529047Y-43764819D02*
X41624285Y-43717200D01*
X41624285Y-43717200D02*
X41671904Y-43669580D01*
X41671904Y-43669580D02*
X41719523Y-43574342D01*
X41719523Y-43574342D02*
X41719523Y-42764819D01*
X42148095Y-42860057D02*
X42195714Y-42812438D01*
X42195714Y-42812438D02*
X42290952Y-42764819D01*
X42290952Y-42764819D02*
X42529047Y-42764819D01*
X42529047Y-42764819D02*
X42624285Y-42812438D01*
X42624285Y-42812438D02*
X42671904Y-42860057D01*
X42671904Y-42860057D02*
X42719523Y-42955295D01*
X42719523Y-42955295D02*
X42719523Y-43050533D01*
X42719523Y-43050533D02*
X42671904Y-43193390D01*
X42671904Y-43193390D02*
X42100476Y-43764819D01*
X42100476Y-43764819D02*
X42719523Y-43764819D01*
D14*
%TO.C,G\u002A\u002A\u002A*%
X56603167Y-47616104D02*
X56743654Y-47630688D01*
X56837502Y-47653376D01*
X56933143Y-47693259D01*
X57012327Y-47744616D01*
X57080368Y-47815186D01*
X57142584Y-47912704D01*
X57204291Y-48044905D01*
X57270807Y-48219528D01*
X57315683Y-48349207D01*
X57467902Y-48799634D01*
X57533814Y-48756922D01*
X57650572Y-48688077D01*
X57759672Y-48642323D01*
X57877497Y-48615791D01*
X58020431Y-48604610D01*
X58179413Y-48604381D01*
X58435462Y-48620494D01*
X58650737Y-48660593D01*
X58836967Y-48727939D01*
X59005880Y-48825792D01*
X59025238Y-48839518D01*
X59214546Y-49009506D01*
X59364509Y-49212709D01*
X59472991Y-49440466D01*
X59537855Y-49684115D01*
X59556964Y-49934994D01*
X59528183Y-50184441D01*
X59449373Y-50423792D01*
X59427357Y-50469815D01*
X59326554Y-50630215D01*
X59192907Y-50787643D01*
X59041729Y-50926729D01*
X58888336Y-51032097D01*
X58844886Y-51054501D01*
X58706361Y-51110622D01*
X58556609Y-51151116D01*
X58379546Y-51179560D01*
X58208801Y-51195937D01*
X58018791Y-51207427D01*
X57868043Y-51208090D01*
X57740171Y-51196533D01*
X57618787Y-51171365D01*
X57501280Y-51135836D01*
X57275925Y-51031538D01*
X57072694Y-50879539D01*
X57016677Y-50816973D01*
X56900273Y-50686958D01*
X56835778Y-50590165D01*
X56807317Y-50530901D01*
X56764056Y-50424869D01*
X56708383Y-50279054D01*
X56642691Y-50100452D01*
X56569370Y-49896051D01*
X56490811Y-49672844D01*
X56409403Y-49437823D01*
X56327538Y-49197978D01*
X56247606Y-48960301D01*
X56171999Y-48731783D01*
X56103106Y-48519414D01*
X56043319Y-48330186D01*
X55995028Y-48171093D01*
X55960623Y-48049122D01*
X55945392Y-47986313D01*
X55927908Y-47876243D01*
X55929730Y-47860120D01*
X56055895Y-47860120D01*
X56057426Y-47922214D01*
X56072188Y-48008030D01*
X56100807Y-48122338D01*
X56143905Y-48269907D01*
X56202105Y-48455509D01*
X56276032Y-48683914D01*
X56366307Y-48959891D01*
X56396644Y-49052589D01*
X56506684Y-49386639D01*
X56602382Y-49671303D01*
X56685662Y-49911251D01*
X56758448Y-50111148D01*
X56822664Y-50275661D01*
X56880231Y-50409455D01*
X56933074Y-50517198D01*
X56983116Y-50603557D01*
X57032281Y-50673196D01*
X57082493Y-50730784D01*
X57092606Y-50741044D01*
X57288346Y-50897834D01*
X57510004Y-51008502D01*
X57748534Y-51070368D01*
X57994883Y-51080752D01*
X58160645Y-51057391D01*
X58419970Y-50975018D01*
X58643654Y-50849214D01*
X58830760Y-50680701D01*
X58980350Y-50470196D01*
X59016663Y-50401229D01*
X59100051Y-50170307D01*
X59131992Y-49931420D01*
X59115203Y-49692488D01*
X59052398Y-49461441D01*
X58946293Y-49246200D01*
X58799601Y-49054692D01*
X58615039Y-48894844D01*
X58471281Y-48809268D01*
X58361449Y-48760105D01*
X58261248Y-48732206D01*
X58146208Y-48720352D01*
X58046856Y-48718797D01*
X57862043Y-48731462D01*
X57715285Y-48771172D01*
X57592736Y-48842780D01*
X57527112Y-48901024D01*
X57430965Y-49027626D01*
X57368862Y-49173454D01*
X57342138Y-49325716D01*
X57352131Y-49471617D01*
X57400175Y-49598361D01*
X57447869Y-49659939D01*
X57477034Y-49681349D01*
X57505083Y-49672134D01*
X57545952Y-49625231D01*
X57564069Y-49601031D01*
X57672206Y-49499687D01*
X57812116Y-49435406D01*
X57968418Y-49414228D01*
X58028475Y-49418679D01*
X58162362Y-49463386D01*
X58279021Y-49552020D01*
X58370162Y-49672776D01*
X58427502Y-49813847D01*
X58442753Y-49963430D01*
X58438683Y-50003065D01*
X58402440Y-50100816D01*
X58330732Y-50204456D01*
X58239249Y-50296025D01*
X58143684Y-50357563D01*
X58121641Y-50365946D01*
X57959249Y-50389647D01*
X57855918Y-50371602D01*
X57799758Y-50361796D01*
X57655432Y-50286503D01*
X57541081Y-50171416D01*
X57518491Y-50126286D01*
X57480435Y-50033925D01*
X57429247Y-49900662D01*
X57420673Y-49877449D01*
X57837080Y-49877449D01*
X57856396Y-49960445D01*
X57861951Y-49973899D01*
X57904630Y-50050553D01*
X57964125Y-50130685D01*
X58027706Y-50199814D01*
X58082648Y-50243457D01*
X58105839Y-50251389D01*
X58140650Y-50232995D01*
X58196144Y-50186860D01*
X58218229Y-50165607D01*
X58280677Y-50085986D01*
X58308161Y-49995242D01*
X58312197Y-49953820D01*
X58300656Y-49824121D01*
X58254505Y-49706824D01*
X58181849Y-49618600D01*
X58134895Y-49589116D01*
X58087229Y-49572000D01*
X58052109Y-49579798D01*
X58012279Y-49620817D01*
X57979671Y-49663849D01*
X57922181Y-49739934D01*
X57872091Y-49803593D01*
X57858130Y-49820408D01*
X57837080Y-49877449D01*
X57420673Y-49877449D01*
X57367255Y-49732834D01*
X57296791Y-49536772D01*
X57220186Y-49318809D01*
X57139770Y-49085279D01*
X57120407Y-49028343D01*
X57026783Y-48755386D01*
X56940975Y-48511217D01*
X56864624Y-48300226D01*
X56799368Y-48126798D01*
X56746848Y-47995324D01*
X56708703Y-47910192D01*
X56691548Y-47880668D01*
X56589183Y-47791982D01*
X56456751Y-47737992D01*
X56312543Y-47724267D01*
X56224909Y-47738515D01*
X56169629Y-47753555D01*
X56124463Y-47768465D01*
X56090038Y-47788016D01*
X56066974Y-47816978D01*
X56055895Y-47860120D01*
X55929730Y-47860120D01*
X55936314Y-47801848D01*
X55978029Y-47745464D01*
X56060475Y-47689430D01*
X56073225Y-47682026D01*
X56166066Y-47648212D01*
X56296951Y-47625519D01*
X56448458Y-47614599D01*
X56603167Y-47616104D01*
G36*
X56603167Y-47616104D02*
G01*
X56743654Y-47630688D01*
X56837502Y-47653376D01*
X56933143Y-47693259D01*
X57012327Y-47744616D01*
X57080368Y-47815186D01*
X57142584Y-47912704D01*
X57204291Y-48044905D01*
X57270807Y-48219528D01*
X57315683Y-48349207D01*
X57467902Y-48799634D01*
X57533814Y-48756922D01*
X57650572Y-48688077D01*
X57759672Y-48642323D01*
X57877497Y-48615791D01*
X58020431Y-48604610D01*
X58179413Y-48604381D01*
X58435462Y-48620494D01*
X58650737Y-48660593D01*
X58836967Y-48727939D01*
X59005880Y-48825792D01*
X59025238Y-48839518D01*
X59214546Y-49009506D01*
X59364509Y-49212709D01*
X59472991Y-49440466D01*
X59537855Y-49684115D01*
X59556964Y-49934994D01*
X59528183Y-50184441D01*
X59449373Y-50423792D01*
X59427357Y-50469815D01*
X59326554Y-50630215D01*
X59192907Y-50787643D01*
X59041729Y-50926729D01*
X58888336Y-51032097D01*
X58844886Y-51054501D01*
X58706361Y-51110622D01*
X58556609Y-51151116D01*
X58379546Y-51179560D01*
X58208801Y-51195937D01*
X58018791Y-51207427D01*
X57868043Y-51208090D01*
X57740171Y-51196533D01*
X57618787Y-51171365D01*
X57501280Y-51135836D01*
X57275925Y-51031538D01*
X57072694Y-50879539D01*
X57016677Y-50816973D01*
X56900273Y-50686958D01*
X56835778Y-50590165D01*
X56807317Y-50530901D01*
X56764056Y-50424869D01*
X56708383Y-50279054D01*
X56642691Y-50100452D01*
X56569370Y-49896051D01*
X56490811Y-49672844D01*
X56409403Y-49437823D01*
X56327538Y-49197978D01*
X56247606Y-48960301D01*
X56171999Y-48731783D01*
X56103106Y-48519414D01*
X56043319Y-48330186D01*
X55995028Y-48171093D01*
X55960623Y-48049122D01*
X55945392Y-47986313D01*
X55927908Y-47876243D01*
X55929730Y-47860120D01*
X56055895Y-47860120D01*
X56057426Y-47922214D01*
X56072188Y-48008030D01*
X56100807Y-48122338D01*
X56143905Y-48269907D01*
X56202105Y-48455509D01*
X56276032Y-48683914D01*
X56366307Y-48959891D01*
X56396644Y-49052589D01*
X56506684Y-49386639D01*
X56602382Y-49671303D01*
X56685662Y-49911251D01*
X56758448Y-50111148D01*
X56822664Y-50275661D01*
X56880231Y-50409455D01*
X56933074Y-50517198D01*
X56983116Y-50603557D01*
X57032281Y-50673196D01*
X57082493Y-50730784D01*
X57092606Y-50741044D01*
X57288346Y-50897834D01*
X57510004Y-51008502D01*
X57748534Y-51070368D01*
X57994883Y-51080752D01*
X58160645Y-51057391D01*
X58419970Y-50975018D01*
X58643654Y-50849214D01*
X58830760Y-50680701D01*
X58980350Y-50470196D01*
X59016663Y-50401229D01*
X59100051Y-50170307D01*
X59131992Y-49931420D01*
X59115203Y-49692488D01*
X59052398Y-49461441D01*
X58946293Y-49246200D01*
X58799601Y-49054692D01*
X58615039Y-48894844D01*
X58471281Y-48809268D01*
X58361449Y-48760105D01*
X58261248Y-48732206D01*
X58146208Y-48720352D01*
X58046856Y-48718797D01*
X57862043Y-48731462D01*
X57715285Y-48771172D01*
X57592736Y-48842780D01*
X57527112Y-48901024D01*
X57430965Y-49027626D01*
X57368862Y-49173454D01*
X57342138Y-49325716D01*
X57352131Y-49471617D01*
X57400175Y-49598361D01*
X57447869Y-49659939D01*
X57477034Y-49681349D01*
X57505083Y-49672134D01*
X57545952Y-49625231D01*
X57564069Y-49601031D01*
X57672206Y-49499687D01*
X57812116Y-49435406D01*
X57968418Y-49414228D01*
X58028475Y-49418679D01*
X58162362Y-49463386D01*
X58279021Y-49552020D01*
X58370162Y-49672776D01*
X58427502Y-49813847D01*
X58442753Y-49963430D01*
X58438683Y-50003065D01*
X58402440Y-50100816D01*
X58330732Y-50204456D01*
X58239249Y-50296025D01*
X58143684Y-50357563D01*
X58121641Y-50365946D01*
X57959249Y-50389647D01*
X57855918Y-50371602D01*
X57799758Y-50361796D01*
X57655432Y-50286503D01*
X57541081Y-50171416D01*
X57518491Y-50126286D01*
X57480435Y-50033925D01*
X57429247Y-49900662D01*
X57420673Y-49877449D01*
X57837080Y-49877449D01*
X57856396Y-49960445D01*
X57861951Y-49973899D01*
X57904630Y-50050553D01*
X57964125Y-50130685D01*
X58027706Y-50199814D01*
X58082648Y-50243457D01*
X58105839Y-50251389D01*
X58140650Y-50232995D01*
X58196144Y-50186860D01*
X58218229Y-50165607D01*
X58280677Y-50085986D01*
X58308161Y-49995242D01*
X58312197Y-49953820D01*
X58300656Y-49824121D01*
X58254505Y-49706824D01*
X58181849Y-49618600D01*
X58134895Y-49589116D01*
X58087229Y-49572000D01*
X58052109Y-49579798D01*
X58012279Y-49620817D01*
X57979671Y-49663849D01*
X57922181Y-49739934D01*
X57872091Y-49803593D01*
X57858130Y-49820408D01*
X57837080Y-49877449D01*
X57420673Y-49877449D01*
X57367255Y-49732834D01*
X57296791Y-49536772D01*
X57220186Y-49318809D01*
X57139770Y-49085279D01*
X57120407Y-49028343D01*
X57026783Y-48755386D01*
X56940975Y-48511217D01*
X56864624Y-48300226D01*
X56799368Y-48126798D01*
X56746848Y-47995324D01*
X56708703Y-47910192D01*
X56691548Y-47880668D01*
X56589183Y-47791982D01*
X56456751Y-47737992D01*
X56312543Y-47724267D01*
X56224909Y-47738515D01*
X56169629Y-47753555D01*
X56124463Y-47768465D01*
X56090038Y-47788016D01*
X56066974Y-47816978D01*
X56055895Y-47860120D01*
X55929730Y-47860120D01*
X55936314Y-47801848D01*
X55978029Y-47745464D01*
X56060475Y-47689430D01*
X56073225Y-47682026D01*
X56166066Y-47648212D01*
X56296951Y-47625519D01*
X56448458Y-47614599D01*
X56603167Y-47616104D01*
G37*
X59503071Y-44818306D02*
X59624671Y-44988375D01*
X59698590Y-45164553D01*
X59722139Y-45338900D01*
X59711933Y-45434709D01*
X59699569Y-45486945D01*
X59681867Y-45533449D01*
X59652553Y-45582879D01*
X59605354Y-45643891D01*
X59533994Y-45725141D01*
X59432202Y-45835287D01*
X59385380Y-45885300D01*
X59085380Y-46205256D01*
X59121448Y-46268970D01*
X59166125Y-46340745D01*
X59205468Y-46372307D01*
X59254536Y-46365531D01*
X59328388Y-46322286D01*
X59362764Y-46298960D01*
X59554424Y-46192123D01*
X59766461Y-46123050D01*
X60005416Y-46090733D01*
X60277822Y-46094165D01*
X60517678Y-46121004D01*
X60676210Y-46149553D01*
X60809347Y-46188162D01*
X60929249Y-46243675D01*
X61048076Y-46322932D01*
X61177988Y-46432775D01*
X61327989Y-46576901D01*
X61445541Y-46695230D01*
X61530130Y-46784708D01*
X61589722Y-46855349D01*
X61632284Y-46917170D01*
X61665784Y-46980186D01*
X61687391Y-47028683D01*
X61765316Y-47281341D01*
X61794042Y-47549066D01*
X61773935Y-47819921D01*
X61705362Y-48081964D01*
X61651154Y-48209796D01*
X61577555Y-48333248D01*
X61473152Y-48472879D01*
X61351859Y-48612793D01*
X61227592Y-48737091D01*
X61114266Y-48829877D01*
X61099906Y-48839552D01*
X60939973Y-48921698D01*
X60740991Y-48990316D01*
X60519366Y-49042395D01*
X60291505Y-49074922D01*
X60073815Y-49084885D01*
X59882703Y-49069275D01*
X59865466Y-49066149D01*
X59661501Y-49004116D01*
X59496498Y-48908062D01*
X59420452Y-48832172D01*
X59372662Y-48784481D01*
X59292195Y-48639867D01*
X59257302Y-48480715D01*
X59270186Y-48313516D01*
X59333052Y-48144765D01*
X59448102Y-47980956D01*
X59484189Y-47942630D01*
X59557351Y-47871792D01*
X59612000Y-47832730D01*
X59668454Y-47816255D01*
X59747029Y-47813174D01*
X59769885Y-47813388D01*
X59859686Y-47816151D01*
X59912603Y-47828530D01*
X59948198Y-47860760D01*
X59986025Y-47923076D01*
X59988746Y-47927914D01*
X60053961Y-48030987D01*
X60112435Y-48085332D01*
X60176041Y-48095510D01*
X60256651Y-48066081D01*
X60294423Y-48045339D01*
X60426469Y-47940418D01*
X60512022Y-47811150D01*
X60550028Y-47666673D01*
X60539432Y-47516127D01*
X60479178Y-47368653D01*
X60386173Y-47250590D01*
X60276953Y-47162102D01*
X60177701Y-47126226D01*
X60082851Y-47141310D01*
X60058477Y-47153235D01*
X59960113Y-47239155D01*
X59896265Y-47365845D01*
X59869639Y-47527445D01*
X59869019Y-47563351D01*
X59869845Y-47729344D01*
X59647245Y-47737308D01*
X59527884Y-47741321D01*
X59373191Y-47746159D01*
X59204259Y-47751175D01*
X59060582Y-47755227D01*
X58696517Y-47765182D01*
X58566409Y-47569188D01*
X58515163Y-47490941D01*
X58439504Y-47374018D01*
X58345217Y-47227429D01*
X58238090Y-47060187D01*
X58123906Y-46881299D01*
X58033135Y-46738643D01*
X57629968Y-46104091D01*
X57633518Y-46100488D01*
X57773264Y-46100488D01*
X58265369Y-46875597D01*
X58757474Y-47650706D01*
X59093258Y-47640317D01*
X59429041Y-47629929D01*
X59432040Y-47533148D01*
X59463726Y-47366654D01*
X59542334Y-47219156D01*
X59659282Y-47099386D01*
X59805988Y-47016082D01*
X59973869Y-46977983D01*
X59977646Y-46977725D01*
X60150720Y-46987171D01*
X60302585Y-47042969D01*
X60444999Y-47149751D01*
X60465927Y-47170106D01*
X60588204Y-47326396D01*
X60657637Y-47492382D01*
X60675229Y-47660838D01*
X60641984Y-47824539D01*
X60558908Y-47976260D01*
X60427002Y-48108775D01*
X60326255Y-48175265D01*
X60175630Y-48232771D01*
X60016517Y-48247156D01*
X59862379Y-48220670D01*
X59726678Y-48155569D01*
X59625695Y-48058063D01*
X59584495Y-48007054D01*
X59554399Y-47999520D01*
X59515633Y-48031681D01*
X59511244Y-48036186D01*
X59443950Y-48127539D01*
X59387717Y-48241925D01*
X59355230Y-48351989D01*
X59352050Y-48379418D01*
X59364375Y-48485705D01*
X59404966Y-48606013D01*
X59463356Y-48713298D01*
X59497469Y-48755155D01*
X59628673Y-48851426D01*
X59795501Y-48918120D01*
X59984165Y-48952940D01*
X60180873Y-48953588D01*
X60371835Y-48917766D01*
X60406395Y-48906625D01*
X60655374Y-48799467D01*
X60862739Y-48662168D01*
X61038764Y-48486806D01*
X61152813Y-48331070D01*
X61279509Y-48087780D01*
X61354430Y-47831785D01*
X61377345Y-47570237D01*
X61348029Y-47310293D01*
X61266251Y-47059106D01*
X61197685Y-46925327D01*
X61050147Y-46720111D01*
X60870530Y-46545759D01*
X60666792Y-46405389D01*
X60446885Y-46302124D01*
X60218766Y-46239082D01*
X59990390Y-46219384D01*
X59769712Y-46246148D01*
X59607327Y-46301612D01*
X59456896Y-46385694D01*
X59309772Y-46495046D01*
X59183606Y-46615088D01*
X59104651Y-46716835D01*
X59063083Y-46776902D01*
X59033862Y-46807017D01*
X59027782Y-46807407D01*
X59009146Y-46779376D01*
X58966914Y-46713120D01*
X58907245Y-46618375D01*
X58836301Y-46504879D01*
X58832221Y-46498328D01*
X58648414Y-46203189D01*
X58965833Y-45865814D01*
X59085459Y-45737753D01*
X59171888Y-45642094D01*
X59231241Y-45570741D01*
X59269640Y-45515600D01*
X59293206Y-45468573D01*
X59308062Y-45421569D01*
X59311016Y-45409366D01*
X59316583Y-45269515D01*
X59275579Y-45116505D01*
X59191807Y-44962638D01*
X59159281Y-44918627D01*
X59069292Y-44804459D01*
X57773264Y-46100488D01*
X57633518Y-46100488D01*
X58333830Y-45389754D01*
X59037690Y-44675417D01*
X59201103Y-44668082D01*
X59364517Y-44660748D01*
X59503071Y-44818306D01*
G36*
X59503071Y-44818306D02*
G01*
X59624671Y-44988375D01*
X59698590Y-45164553D01*
X59722139Y-45338900D01*
X59711933Y-45434709D01*
X59699569Y-45486945D01*
X59681867Y-45533449D01*
X59652553Y-45582879D01*
X59605354Y-45643891D01*
X59533994Y-45725141D01*
X59432202Y-45835287D01*
X59385380Y-45885300D01*
X59085380Y-46205256D01*
X59121448Y-46268970D01*
X59166125Y-46340745D01*
X59205468Y-46372307D01*
X59254536Y-46365531D01*
X59328388Y-46322286D01*
X59362764Y-46298960D01*
X59554424Y-46192123D01*
X59766461Y-46123050D01*
X60005416Y-46090733D01*
X60277822Y-46094165D01*
X60517678Y-46121004D01*
X60676210Y-46149553D01*
X60809347Y-46188162D01*
X60929249Y-46243675D01*
X61048076Y-46322932D01*
X61177988Y-46432775D01*
X61327989Y-46576901D01*
X61445541Y-46695230D01*
X61530130Y-46784708D01*
X61589722Y-46855349D01*
X61632284Y-46917170D01*
X61665784Y-46980186D01*
X61687391Y-47028683D01*
X61765316Y-47281341D01*
X61794042Y-47549066D01*
X61773935Y-47819921D01*
X61705362Y-48081964D01*
X61651154Y-48209796D01*
X61577555Y-48333248D01*
X61473152Y-48472879D01*
X61351859Y-48612793D01*
X61227592Y-48737091D01*
X61114266Y-48829877D01*
X61099906Y-48839552D01*
X60939973Y-48921698D01*
X60740991Y-48990316D01*
X60519366Y-49042395D01*
X60291505Y-49074922D01*
X60073815Y-49084885D01*
X59882703Y-49069275D01*
X59865466Y-49066149D01*
X59661501Y-49004116D01*
X59496498Y-48908062D01*
X59420452Y-48832172D01*
X59372662Y-48784481D01*
X59292195Y-48639867D01*
X59257302Y-48480715D01*
X59270186Y-48313516D01*
X59333052Y-48144765D01*
X59448102Y-47980956D01*
X59484189Y-47942630D01*
X59557351Y-47871792D01*
X59612000Y-47832730D01*
X59668454Y-47816255D01*
X59747029Y-47813174D01*
X59769885Y-47813388D01*
X59859686Y-47816151D01*
X59912603Y-47828530D01*
X59948198Y-47860760D01*
X59986025Y-47923076D01*
X59988746Y-47927914D01*
X60053961Y-48030987D01*
X60112435Y-48085332D01*
X60176041Y-48095510D01*
X60256651Y-48066081D01*
X60294423Y-48045339D01*
X60426469Y-47940418D01*
X60512022Y-47811150D01*
X60550028Y-47666673D01*
X60539432Y-47516127D01*
X60479178Y-47368653D01*
X60386173Y-47250590D01*
X60276953Y-47162102D01*
X60177701Y-47126226D01*
X60082851Y-47141310D01*
X60058477Y-47153235D01*
X59960113Y-47239155D01*
X59896265Y-47365845D01*
X59869639Y-47527445D01*
X59869019Y-47563351D01*
X59869845Y-47729344D01*
X59647245Y-47737308D01*
X59527884Y-47741321D01*
X59373191Y-47746159D01*
X59204259Y-47751175D01*
X59060582Y-47755227D01*
X58696517Y-47765182D01*
X58566409Y-47569188D01*
X58515163Y-47490941D01*
X58439504Y-47374018D01*
X58345217Y-47227429D01*
X58238090Y-47060187D01*
X58123906Y-46881299D01*
X58033135Y-46738643D01*
X57629968Y-46104091D01*
X57633518Y-46100488D01*
X57773264Y-46100488D01*
X58265369Y-46875597D01*
X58757474Y-47650706D01*
X59093258Y-47640317D01*
X59429041Y-47629929D01*
X59432040Y-47533148D01*
X59463726Y-47366654D01*
X59542334Y-47219156D01*
X59659282Y-47099386D01*
X59805988Y-47016082D01*
X59973869Y-46977983D01*
X59977646Y-46977725D01*
X60150720Y-46987171D01*
X60302585Y-47042969D01*
X60444999Y-47149751D01*
X60465927Y-47170106D01*
X60588204Y-47326396D01*
X60657637Y-47492382D01*
X60675229Y-47660838D01*
X60641984Y-47824539D01*
X60558908Y-47976260D01*
X60427002Y-48108775D01*
X60326255Y-48175265D01*
X60175630Y-48232771D01*
X60016517Y-48247156D01*
X59862379Y-48220670D01*
X59726678Y-48155569D01*
X59625695Y-48058063D01*
X59584495Y-48007054D01*
X59554399Y-47999520D01*
X59515633Y-48031681D01*
X59511244Y-48036186D01*
X59443950Y-48127539D01*
X59387717Y-48241925D01*
X59355230Y-48351989D01*
X59352050Y-48379418D01*
X59364375Y-48485705D01*
X59404966Y-48606013D01*
X59463356Y-48713298D01*
X59497469Y-48755155D01*
X59628673Y-48851426D01*
X59795501Y-48918120D01*
X59984165Y-48952940D01*
X60180873Y-48953588D01*
X60371835Y-48917766D01*
X60406395Y-48906625D01*
X60655374Y-48799467D01*
X60862739Y-48662168D01*
X61038764Y-48486806D01*
X61152813Y-48331070D01*
X61279509Y-48087780D01*
X61354430Y-47831785D01*
X61377345Y-47570237D01*
X61348029Y-47310293D01*
X61266251Y-47059106D01*
X61197685Y-46925327D01*
X61050147Y-46720111D01*
X60870530Y-46545759D01*
X60666792Y-46405389D01*
X60446885Y-46302124D01*
X60218766Y-46239082D01*
X59990390Y-46219384D01*
X59769712Y-46246148D01*
X59607327Y-46301612D01*
X59456896Y-46385694D01*
X59309772Y-46495046D01*
X59183606Y-46615088D01*
X59104651Y-46716835D01*
X59063083Y-46776902D01*
X59033862Y-46807017D01*
X59027782Y-46807407D01*
X59009146Y-46779376D01*
X58966914Y-46713120D01*
X58907245Y-46618375D01*
X58836301Y-46504879D01*
X58832221Y-46498328D01*
X58648414Y-46203189D01*
X58965833Y-45865814D01*
X59085459Y-45737753D01*
X59171888Y-45642094D01*
X59231241Y-45570741D01*
X59269640Y-45515600D01*
X59293206Y-45468573D01*
X59308062Y-45421569D01*
X59311016Y-45409366D01*
X59316583Y-45269515D01*
X59275579Y-45116505D01*
X59191807Y-44962638D01*
X59159281Y-44918627D01*
X59069292Y-44804459D01*
X57773264Y-46100488D01*
X57633518Y-46100488D01*
X58333830Y-45389754D01*
X59037690Y-44675417D01*
X59201103Y-44668082D01*
X59364517Y-44660748D01*
X59503071Y-44818306D01*
G37*
X61525447Y-42767602D02*
X61761668Y-42781281D01*
X61974390Y-42813752D01*
X62171969Y-42869088D01*
X62362765Y-42951361D01*
X62555131Y-43064644D01*
X62757426Y-43213009D01*
X62978009Y-43400529D01*
X63149709Y-43559103D01*
X63397609Y-43801909D01*
X63602522Y-44021271D01*
X63769310Y-44223689D01*
X63902834Y-44415658D01*
X64007958Y-44603675D01*
X64089545Y-44794238D01*
X64103652Y-44833768D01*
X64163865Y-45082871D01*
X64177060Y-45336238D01*
X64144343Y-45582638D01*
X64066816Y-45810846D01*
X63994734Y-45941341D01*
X63896063Y-46070170D01*
X63766444Y-46208901D01*
X63624092Y-46339711D01*
X63487222Y-46444776D01*
X63466204Y-46458543D01*
X63307788Y-46542737D01*
X63130592Y-46602712D01*
X62921502Y-46642110D01*
X62740567Y-46660013D01*
X62492927Y-46664732D01*
X62262192Y-46640024D01*
X62041187Y-46582703D01*
X61822731Y-46489584D01*
X61599647Y-46357481D01*
X61364757Y-46183208D01*
X61110881Y-45963578D01*
X61055038Y-45911913D01*
X60901444Y-45759951D01*
X60754759Y-45614828D01*
X60506735Y-45332803D01*
X60309544Y-45063452D01*
X60161760Y-44804387D01*
X60061961Y-44553217D01*
X60008723Y-44307558D01*
X59998390Y-44139861D01*
X60008434Y-44029485D01*
X60119909Y-44029485D01*
X60127958Y-44283253D01*
X60191105Y-44548953D01*
X60309353Y-44826676D01*
X60482707Y-45116516D01*
X60487045Y-45122890D01*
X60570359Y-45231588D01*
X60687570Y-45366229D01*
X60829133Y-45517449D01*
X60985508Y-45675887D01*
X61147151Y-45832180D01*
X61304519Y-45976967D01*
X61448070Y-46100885D01*
X61568259Y-46194571D01*
X61605182Y-46219883D01*
X61888570Y-46379797D01*
X62161502Y-46484593D01*
X62423742Y-46534245D01*
X62675048Y-46528729D01*
X62915183Y-46468023D01*
X63116097Y-46369521D01*
X63282383Y-46246348D01*
X63442925Y-46088093D01*
X63578247Y-45914424D01*
X63599458Y-45881377D01*
X63679208Y-45739650D01*
X63727919Y-45614211D01*
X63753208Y-45480217D01*
X63761620Y-45352397D01*
X63752883Y-45135649D01*
X63710007Y-44923370D01*
X63630121Y-44709718D01*
X63510354Y-44488851D01*
X63347839Y-44254930D01*
X63139702Y-44002113D01*
X63047608Y-43899387D01*
X62760526Y-43607870D01*
X62475220Y-43362368D01*
X62194962Y-43165277D01*
X61923027Y-43018989D01*
X61752535Y-42952363D01*
X61495112Y-42895355D01*
X61242437Y-42893528D01*
X60998843Y-42945619D01*
X60768658Y-43050365D01*
X60556216Y-43206506D01*
X60426319Y-43338835D01*
X60269093Y-43557368D01*
X60166955Y-43787554D01*
X60119909Y-44029485D01*
X60008434Y-44029485D01*
X60022411Y-43875882D01*
X60095175Y-43634648D01*
X60219113Y-43410510D01*
X60396656Y-43197822D01*
X60409031Y-43185336D01*
X60586979Y-43025679D01*
X60764031Y-42908458D01*
X60952071Y-42829228D01*
X61162981Y-42783542D01*
X61408644Y-42766953D01*
X61525447Y-42767602D01*
G36*
X61525447Y-42767602D02*
G01*
X61761668Y-42781281D01*
X61974390Y-42813752D01*
X62171969Y-42869088D01*
X62362765Y-42951361D01*
X62555131Y-43064644D01*
X62757426Y-43213009D01*
X62978009Y-43400529D01*
X63149709Y-43559103D01*
X63397609Y-43801909D01*
X63602522Y-44021271D01*
X63769310Y-44223689D01*
X63902834Y-44415658D01*
X64007958Y-44603675D01*
X64089545Y-44794238D01*
X64103652Y-44833768D01*
X64163865Y-45082871D01*
X64177060Y-45336238D01*
X64144343Y-45582638D01*
X64066816Y-45810846D01*
X63994734Y-45941341D01*
X63896063Y-46070170D01*
X63766444Y-46208901D01*
X63624092Y-46339711D01*
X63487222Y-46444776D01*
X63466204Y-46458543D01*
X63307788Y-46542737D01*
X63130592Y-46602712D01*
X62921502Y-46642110D01*
X62740567Y-46660013D01*
X62492927Y-46664732D01*
X62262192Y-46640024D01*
X62041187Y-46582703D01*
X61822731Y-46489584D01*
X61599647Y-46357481D01*
X61364757Y-46183208D01*
X61110881Y-45963578D01*
X61055038Y-45911913D01*
X60901444Y-45759951D01*
X60754759Y-45614828D01*
X60506735Y-45332803D01*
X60309544Y-45063452D01*
X60161760Y-44804387D01*
X60061961Y-44553217D01*
X60008723Y-44307558D01*
X59998390Y-44139861D01*
X60008434Y-44029485D01*
X60119909Y-44029485D01*
X60127958Y-44283253D01*
X60191105Y-44548953D01*
X60309353Y-44826676D01*
X60482707Y-45116516D01*
X60487045Y-45122890D01*
X60570359Y-45231588D01*
X60687570Y-45366229D01*
X60829133Y-45517449D01*
X60985508Y-45675887D01*
X61147151Y-45832180D01*
X61304519Y-45976967D01*
X61448070Y-46100885D01*
X61568259Y-46194571D01*
X61605182Y-46219883D01*
X61888570Y-46379797D01*
X62161502Y-46484593D01*
X62423742Y-46534245D01*
X62675048Y-46528729D01*
X62915183Y-46468023D01*
X63116097Y-46369521D01*
X63282383Y-46246348D01*
X63442925Y-46088093D01*
X63578247Y-45914424D01*
X63599458Y-45881377D01*
X63679208Y-45739650D01*
X63727919Y-45614211D01*
X63753208Y-45480217D01*
X63761620Y-45352397D01*
X63752883Y-45135649D01*
X63710007Y-44923370D01*
X63630121Y-44709718D01*
X63510354Y-44488851D01*
X63347839Y-44254930D01*
X63139702Y-44002113D01*
X63047608Y-43899387D01*
X62760526Y-43607870D01*
X62475220Y-43362368D01*
X62194962Y-43165277D01*
X61923027Y-43018989D01*
X61752535Y-42952363D01*
X61495112Y-42895355D01*
X61242437Y-42893528D01*
X60998843Y-42945619D01*
X60768658Y-43050365D01*
X60556216Y-43206506D01*
X60426319Y-43338835D01*
X60269093Y-43557368D01*
X60166955Y-43787554D01*
X60119909Y-44029485D01*
X60008434Y-44029485D01*
X60022411Y-43875882D01*
X60095175Y-43634648D01*
X60219113Y-43410510D01*
X60396656Y-43197822D01*
X60409031Y-43185336D01*
X60586979Y-43025679D01*
X60764031Y-42908458D01*
X60952071Y-42829228D01*
X61162981Y-42783542D01*
X61408644Y-42766953D01*
X61525447Y-42767602D01*
G37*
X64074396Y-40335765D02*
X64262157Y-40350247D01*
X64421191Y-40373685D01*
X64673066Y-40447943D01*
X64894662Y-40567877D01*
X65086229Y-40733911D01*
X65248015Y-40946462D01*
X65380272Y-41205956D01*
X65483246Y-41512811D01*
X65557187Y-41867450D01*
X65602343Y-42270297D01*
X65609517Y-42385176D01*
X65625070Y-42678942D01*
X66181574Y-42122438D01*
X66343671Y-42118391D01*
X66505770Y-42114343D01*
X67126008Y-42734582D01*
X65079507Y-44779086D01*
X64914648Y-44783854D01*
X64808664Y-44780218D01*
X64730367Y-44755921D01*
X64695269Y-44726285D01*
X64666113Y-44701668D01*
X64602262Y-44608165D01*
X64568509Y-44548014D01*
X64527223Y-44460847D01*
X64492973Y-44361456D01*
X64464969Y-44243582D01*
X64442421Y-44100965D01*
X64424542Y-43927347D01*
X64410539Y-43716470D01*
X64399623Y-43462075D01*
X64391006Y-43157903D01*
X64390528Y-43137162D01*
X64382102Y-42811811D01*
X64372349Y-42537229D01*
X64360409Y-42307740D01*
X64345426Y-42117671D01*
X64326539Y-41961346D01*
X64302892Y-41833092D01*
X64273626Y-41727233D01*
X64237882Y-41638097D01*
X64194803Y-41560007D01*
X64143529Y-41487291D01*
X64140340Y-41483189D01*
X64049460Y-41393082D01*
X63958387Y-41358184D01*
X63862907Y-41377403D01*
X63821543Y-41400649D01*
X63719161Y-41494714D01*
X63649447Y-41613555D01*
X63612835Y-41745478D01*
X63609752Y-41878788D01*
X63640632Y-42001790D01*
X63705907Y-42102789D01*
X63793377Y-42164742D01*
X63877322Y-42226748D01*
X63911359Y-42307739D01*
X63893548Y-42396957D01*
X63846768Y-42461021D01*
X63746078Y-42545826D01*
X63631440Y-42605079D01*
X63489736Y-42643521D01*
X63307853Y-42665893D01*
X63273232Y-42668358D01*
X63076361Y-42673864D01*
X62920267Y-42658219D01*
X62791749Y-42616795D01*
X62677612Y-42544962D01*
X62564656Y-42438091D01*
X62540314Y-42411283D01*
X62408646Y-42226304D01*
X62331880Y-42028505D01*
X62313481Y-41852335D01*
X62447819Y-41852335D01*
X62475902Y-42060456D01*
X62546207Y-42233351D01*
X62660572Y-42375232D01*
X62685917Y-42397747D01*
X62845250Y-42502177D01*
X63009612Y-42550923D01*
X63176848Y-42543745D01*
X63344801Y-42480404D01*
X63359371Y-42472232D01*
X63447961Y-42413807D01*
X63486241Y-42362577D01*
X63474851Y-42307796D01*
X63414427Y-42238720D01*
X63375308Y-42203492D01*
X63263455Y-42079744D01*
X63202994Y-41943441D01*
X63190721Y-41785171D01*
X63201817Y-41693919D01*
X63255813Y-41537408D01*
X63353159Y-41401925D01*
X63483039Y-41294936D01*
X63634638Y-41223908D01*
X63797138Y-41196308D01*
X63908390Y-41206166D01*
X63992156Y-41227859D01*
X64058943Y-41260632D01*
X64128360Y-41316344D01*
X64190386Y-41376723D01*
X64260935Y-41454972D01*
X64320373Y-41539165D01*
X64369721Y-41634802D01*
X64410000Y-41747386D01*
X64442232Y-41882418D01*
X64467437Y-42045404D01*
X64486639Y-42241844D01*
X64500858Y-42477242D01*
X64511116Y-42757100D01*
X64518434Y-43086921D01*
X64519476Y-43149456D01*
X64523397Y-43361175D01*
X64528115Y-43562991D01*
X64533333Y-43745396D01*
X64538751Y-43898877D01*
X64544074Y-44013925D01*
X64548504Y-44076438D01*
X64569606Y-44204447D01*
X64604796Y-44339185D01*
X64648397Y-44463775D01*
X64694728Y-44561343D01*
X64726479Y-44605273D01*
X64771185Y-44650370D01*
X66686973Y-42734582D01*
X66208723Y-42256332D01*
X65711267Y-42743113D01*
X65213811Y-43229895D01*
X65199598Y-42709842D01*
X65184221Y-42346755D01*
X65158337Y-42032610D01*
X65120358Y-41760614D01*
X65068699Y-41523973D01*
X65001773Y-41315896D01*
X64917992Y-41129588D01*
X64815771Y-40958255D01*
X64777758Y-40903895D01*
X64613368Y-40723842D01*
X64413733Y-40584744D01*
X64185803Y-40490066D01*
X63936523Y-40443273D01*
X63844790Y-40438839D01*
X63611994Y-40462699D01*
X63383238Y-40535813D01*
X63165109Y-40651512D01*
X62964196Y-40803135D01*
X62787085Y-40984015D01*
X62640364Y-41187485D01*
X62530620Y-41406882D01*
X62464441Y-41635540D01*
X62447819Y-41852335D01*
X62313481Y-41852335D01*
X62309829Y-41817365D01*
X62311978Y-41773356D01*
X62356543Y-41530008D01*
X62450459Y-41287795D01*
X62587086Y-41054988D01*
X62759785Y-40839852D01*
X62961915Y-40650658D01*
X63186833Y-40495670D01*
X63427903Y-40383158D01*
X63428766Y-40382849D01*
X63544366Y-40355604D01*
X63700502Y-40338582D01*
X63882179Y-40331923D01*
X64074396Y-40335765D01*
G36*
X64074396Y-40335765D02*
G01*
X64262157Y-40350247D01*
X64421191Y-40373685D01*
X64673066Y-40447943D01*
X64894662Y-40567877D01*
X65086229Y-40733911D01*
X65248015Y-40946462D01*
X65380272Y-41205956D01*
X65483246Y-41512811D01*
X65557187Y-41867450D01*
X65602343Y-42270297D01*
X65609517Y-42385176D01*
X65625070Y-42678942D01*
X66181574Y-42122438D01*
X66343671Y-42118391D01*
X66505770Y-42114343D01*
X67126008Y-42734582D01*
X65079507Y-44779086D01*
X64914648Y-44783854D01*
X64808664Y-44780218D01*
X64730367Y-44755921D01*
X64695269Y-44726285D01*
X64666113Y-44701668D01*
X64602262Y-44608165D01*
X64568509Y-44548014D01*
X64527223Y-44460847D01*
X64492973Y-44361456D01*
X64464969Y-44243582D01*
X64442421Y-44100965D01*
X64424542Y-43927347D01*
X64410539Y-43716470D01*
X64399623Y-43462075D01*
X64391006Y-43157903D01*
X64390528Y-43137162D01*
X64382102Y-42811811D01*
X64372349Y-42537229D01*
X64360409Y-42307740D01*
X64345426Y-42117671D01*
X64326539Y-41961346D01*
X64302892Y-41833092D01*
X64273626Y-41727233D01*
X64237882Y-41638097D01*
X64194803Y-41560007D01*
X64143529Y-41487291D01*
X64140340Y-41483189D01*
X64049460Y-41393082D01*
X63958387Y-41358184D01*
X63862907Y-41377403D01*
X63821543Y-41400649D01*
X63719161Y-41494714D01*
X63649447Y-41613555D01*
X63612835Y-41745478D01*
X63609752Y-41878788D01*
X63640632Y-42001790D01*
X63705907Y-42102789D01*
X63793377Y-42164742D01*
X63877322Y-42226748D01*
X63911359Y-42307739D01*
X63893548Y-42396957D01*
X63846768Y-42461021D01*
X63746078Y-42545826D01*
X63631440Y-42605079D01*
X63489736Y-42643521D01*
X63307853Y-42665893D01*
X63273232Y-42668358D01*
X63076361Y-42673864D01*
X62920267Y-42658219D01*
X62791749Y-42616795D01*
X62677612Y-42544962D01*
X62564656Y-42438091D01*
X62540314Y-42411283D01*
X62408646Y-42226304D01*
X62331880Y-42028505D01*
X62313481Y-41852335D01*
X62447819Y-41852335D01*
X62475902Y-42060456D01*
X62546207Y-42233351D01*
X62660572Y-42375232D01*
X62685917Y-42397747D01*
X62845250Y-42502177D01*
X63009612Y-42550923D01*
X63176848Y-42543745D01*
X63344801Y-42480404D01*
X63359371Y-42472232D01*
X63447961Y-42413807D01*
X63486241Y-42362577D01*
X63474851Y-42307796D01*
X63414427Y-42238720D01*
X63375308Y-42203492D01*
X63263455Y-42079744D01*
X63202994Y-41943441D01*
X63190721Y-41785171D01*
X63201817Y-41693919D01*
X63255813Y-41537408D01*
X63353159Y-41401925D01*
X63483039Y-41294936D01*
X63634638Y-41223908D01*
X63797138Y-41196308D01*
X63908390Y-41206166D01*
X63992156Y-41227859D01*
X64058943Y-41260632D01*
X64128360Y-41316344D01*
X64190386Y-41376723D01*
X64260935Y-41454972D01*
X64320373Y-41539165D01*
X64369721Y-41634802D01*
X64410000Y-41747386D01*
X64442232Y-41882418D01*
X64467437Y-42045404D01*
X64486639Y-42241844D01*
X64500858Y-42477242D01*
X64511116Y-42757100D01*
X64518434Y-43086921D01*
X64519476Y-43149456D01*
X64523397Y-43361175D01*
X64528115Y-43562991D01*
X64533333Y-43745396D01*
X64538751Y-43898877D01*
X64544074Y-44013925D01*
X64548504Y-44076438D01*
X64569606Y-44204447D01*
X64604796Y-44339185D01*
X64648397Y-44463775D01*
X64694728Y-44561343D01*
X64726479Y-44605273D01*
X64771185Y-44650370D01*
X66686973Y-42734582D01*
X66208723Y-42256332D01*
X65711267Y-42743113D01*
X65213811Y-43229895D01*
X65199598Y-42709842D01*
X65184221Y-42346755D01*
X65158337Y-42032610D01*
X65120358Y-41760614D01*
X65068699Y-41523973D01*
X65001773Y-41315896D01*
X64917992Y-41129588D01*
X64815771Y-40958255D01*
X64777758Y-40903895D01*
X64613368Y-40723842D01*
X64413733Y-40584744D01*
X64185803Y-40490066D01*
X63936523Y-40443273D01*
X63844790Y-40438839D01*
X63611994Y-40462699D01*
X63383238Y-40535813D01*
X63165109Y-40651512D01*
X62964196Y-40803135D01*
X62787085Y-40984015D01*
X62640364Y-41187485D01*
X62530620Y-41406882D01*
X62464441Y-41635540D01*
X62447819Y-41852335D01*
X62313481Y-41852335D01*
X62309829Y-41817365D01*
X62311978Y-41773356D01*
X62356543Y-41530008D01*
X62450459Y-41287795D01*
X62587086Y-41054988D01*
X62759785Y-40839852D01*
X62961915Y-40650658D01*
X63186833Y-40495670D01*
X63427903Y-40383158D01*
X63428766Y-40382849D01*
X63544366Y-40355604D01*
X63700502Y-40338582D01*
X63882179Y-40331923D01*
X64074396Y-40335765D01*
G37*
X61165757Y-38200638D02*
X61409585Y-38228929D01*
X61610130Y-38279638D01*
X61861662Y-38392747D01*
X62080734Y-38545705D01*
X62264679Y-38732089D01*
X62410828Y-38945471D01*
X62516511Y-39179428D01*
X62579064Y-39427533D01*
X62595815Y-39683363D01*
X62564097Y-39940490D01*
X62481241Y-40192490D01*
X62439921Y-40277807D01*
X62358084Y-40404339D01*
X62243753Y-40543907D01*
X62111776Y-40681128D01*
X61977001Y-40800618D01*
X61854279Y-40886993D01*
X61848991Y-40890017D01*
X61682748Y-40969675D01*
X61505218Y-41024134D01*
X61302800Y-41056347D01*
X61061896Y-41069266D01*
X61020964Y-41069726D01*
X60732960Y-41046790D01*
X60461530Y-40976188D01*
X60213929Y-40861051D01*
X59997414Y-40704511D01*
X59895325Y-40599833D01*
X59868732Y-40572566D01*
X59725907Y-40377270D01*
X59634482Y-40192703D01*
X59595746Y-40021513D01*
X59595051Y-40010293D01*
X59583138Y-39919796D01*
X59560881Y-39860063D01*
X59547302Y-39846992D01*
X59526622Y-39809869D01*
X59516219Y-39730330D01*
X59515427Y-39621335D01*
X59521906Y-39521604D01*
X59662375Y-39521604D01*
X59813294Y-39393136D01*
X59901437Y-39324371D01*
X59984617Y-39269946D01*
X60042040Y-39242716D01*
X60045457Y-39240980D01*
X60493923Y-39240980D01*
X60517265Y-39267926D01*
X60574081Y-39299446D01*
X60580252Y-39302067D01*
X60641086Y-39340971D01*
X60718692Y-39408533D01*
X60799649Y-39490655D01*
X60870534Y-39573231D01*
X60917925Y-39642160D01*
X60928956Y-39668460D01*
X60912501Y-39694855D01*
X60846093Y-39713863D01*
X60780778Y-39722299D01*
X60656753Y-39744843D01*
X60580527Y-39786061D01*
X60545108Y-39851074D01*
X60540487Y-39898221D01*
X60566258Y-40010955D01*
X60635330Y-40122955D01*
X60735337Y-40224138D01*
X60853917Y-40304416D01*
X60978703Y-40353704D01*
X61097334Y-40361917D01*
X61107009Y-40360348D01*
X61301643Y-40299097D01*
X61461161Y-40193683D01*
X61584999Y-40044557D01*
X61644807Y-39927502D01*
X61690285Y-39748877D01*
X61685338Y-39564475D01*
X61633694Y-39384442D01*
X61539083Y-39218919D01*
X61405232Y-39078051D01*
X61307352Y-39009414D01*
X61161649Y-38935656D01*
X61037764Y-38903787D01*
X60922158Y-38911695D01*
X60844709Y-38937306D01*
X60771130Y-38977747D01*
X60686618Y-39038100D01*
X60604281Y-39107018D01*
X60537227Y-39173152D01*
X60498565Y-39225156D01*
X60493923Y-39240980D01*
X60045457Y-39240980D01*
X60104682Y-39210895D01*
X60186850Y-39142981D01*
X60293513Y-39035199D01*
X60379958Y-38944905D01*
X60445536Y-38885519D01*
X60506962Y-38845836D01*
X60580954Y-38814650D01*
X60663149Y-38787425D01*
X60883523Y-38744586D01*
X61096309Y-38757059D01*
X61298331Y-38823887D01*
X61486412Y-38944111D01*
X61624213Y-39077529D01*
X61754572Y-39260139D01*
X61831633Y-39453809D01*
X61858453Y-39666397D01*
X61858531Y-39680144D01*
X61846402Y-39844520D01*
X61805452Y-39985064D01*
X61728469Y-40119065D01*
X61620683Y-40250265D01*
X61533789Y-40341665D01*
X61464175Y-40401837D01*
X61394055Y-40443786D01*
X61306064Y-40480366D01*
X61117584Y-40526971D01*
X60918829Y-40535710D01*
X60731950Y-40506300D01*
X60677267Y-40488405D01*
X60561276Y-40427546D01*
X60544587Y-40414888D01*
X60442244Y-40337271D01*
X60334343Y-40231242D01*
X60251744Y-40123118D01*
X60212085Y-40040006D01*
X60197857Y-39901078D01*
X60235167Y-39771679D01*
X60319109Y-39662090D01*
X60426104Y-39590945D01*
X60466356Y-39567895D01*
X60464042Y-39546107D01*
X60416568Y-39510549D01*
X60411667Y-39507276D01*
X60294393Y-39458168D01*
X60174254Y-39457580D01*
X60057963Y-39498405D01*
X59952232Y-39573537D01*
X59863772Y-39675871D01*
X59799297Y-39798298D01*
X59765518Y-39933712D01*
X59769147Y-40075008D01*
X59793044Y-40162230D01*
X59879409Y-40324437D01*
X60009505Y-40485652D01*
X60171436Y-40635335D01*
X60353299Y-40762950D01*
X60543196Y-40857957D01*
X60603002Y-40879521D01*
X60828627Y-40924289D01*
X61068436Y-40920745D01*
X61312053Y-40871393D01*
X61549102Y-40778743D01*
X61769211Y-40645303D01*
X61855107Y-40576837D01*
X61887692Y-40540620D01*
X61940888Y-40473635D01*
X61996711Y-40399142D01*
X62115571Y-40195781D01*
X62199253Y-39966898D01*
X62241496Y-39732269D01*
X62245014Y-39614789D01*
X62211411Y-39355171D01*
X62129346Y-39116027D01*
X62004496Y-38901855D01*
X61842536Y-38717156D01*
X61649143Y-38566428D01*
X61429991Y-38454171D01*
X61190757Y-38384884D01*
X60937116Y-38363067D01*
X60697966Y-38388380D01*
X60448732Y-38465739D01*
X60224734Y-38590957D01*
X60030795Y-38759271D01*
X59871735Y-38965915D01*
X59752376Y-39206125D01*
X59699007Y-39375441D01*
X59662375Y-39521604D01*
X59521906Y-39521604D01*
X59523579Y-39495843D01*
X59540009Y-39366811D01*
X59564052Y-39247200D01*
X59581195Y-39187334D01*
X59654788Y-39006305D01*
X59753611Y-38842553D01*
X59887430Y-38681890D01*
X60016685Y-38554843D01*
X60119518Y-38462605D01*
X60201146Y-38398969D01*
X60280093Y-38352440D01*
X60374878Y-38311521D01*
X60457788Y-38281051D01*
X60670411Y-38226723D01*
X60912883Y-38199910D01*
X61165757Y-38200638D01*
G36*
X61165757Y-38200638D02*
G01*
X61409585Y-38228929D01*
X61610130Y-38279638D01*
X61861662Y-38392747D01*
X62080734Y-38545705D01*
X62264679Y-38732089D01*
X62410828Y-38945471D01*
X62516511Y-39179428D01*
X62579064Y-39427533D01*
X62595815Y-39683363D01*
X62564097Y-39940490D01*
X62481241Y-40192490D01*
X62439921Y-40277807D01*
X62358084Y-40404339D01*
X62243753Y-40543907D01*
X62111776Y-40681128D01*
X61977001Y-40800618D01*
X61854279Y-40886993D01*
X61848991Y-40890017D01*
X61682748Y-40969675D01*
X61505218Y-41024134D01*
X61302800Y-41056347D01*
X61061896Y-41069266D01*
X61020964Y-41069726D01*
X60732960Y-41046790D01*
X60461530Y-40976188D01*
X60213929Y-40861051D01*
X59997414Y-40704511D01*
X59895325Y-40599833D01*
X59868732Y-40572566D01*
X59725907Y-40377270D01*
X59634482Y-40192703D01*
X59595746Y-40021513D01*
X59595051Y-40010293D01*
X59583138Y-39919796D01*
X59560881Y-39860063D01*
X59547302Y-39846992D01*
X59526622Y-39809869D01*
X59516219Y-39730330D01*
X59515427Y-39621335D01*
X59521906Y-39521604D01*
X59662375Y-39521604D01*
X59813294Y-39393136D01*
X59901437Y-39324371D01*
X59984617Y-39269946D01*
X60042040Y-39242716D01*
X60045457Y-39240980D01*
X60493923Y-39240980D01*
X60517265Y-39267926D01*
X60574081Y-39299446D01*
X60580252Y-39302067D01*
X60641086Y-39340971D01*
X60718692Y-39408533D01*
X60799649Y-39490655D01*
X60870534Y-39573231D01*
X60917925Y-39642160D01*
X60928956Y-39668460D01*
X60912501Y-39694855D01*
X60846093Y-39713863D01*
X60780778Y-39722299D01*
X60656753Y-39744843D01*
X60580527Y-39786061D01*
X60545108Y-39851074D01*
X60540487Y-39898221D01*
X60566258Y-40010955D01*
X60635330Y-40122955D01*
X60735337Y-40224138D01*
X60853917Y-40304416D01*
X60978703Y-40353704D01*
X61097334Y-40361917D01*
X61107009Y-40360348D01*
X61301643Y-40299097D01*
X61461161Y-40193683D01*
X61584999Y-40044557D01*
X61644807Y-39927502D01*
X61690285Y-39748877D01*
X61685338Y-39564475D01*
X61633694Y-39384442D01*
X61539083Y-39218919D01*
X61405232Y-39078051D01*
X61307352Y-39009414D01*
X61161649Y-38935656D01*
X61037764Y-38903787D01*
X60922158Y-38911695D01*
X60844709Y-38937306D01*
X60771130Y-38977747D01*
X60686618Y-39038100D01*
X60604281Y-39107018D01*
X60537227Y-39173152D01*
X60498565Y-39225156D01*
X60493923Y-39240980D01*
X60045457Y-39240980D01*
X60104682Y-39210895D01*
X60186850Y-39142981D01*
X60293513Y-39035199D01*
X60379958Y-38944905D01*
X60445536Y-38885519D01*
X60506962Y-38845836D01*
X60580954Y-38814650D01*
X60663149Y-38787425D01*
X60883523Y-38744586D01*
X61096309Y-38757059D01*
X61298331Y-38823887D01*
X61486412Y-38944111D01*
X61624213Y-39077529D01*
X61754572Y-39260139D01*
X61831633Y-39453809D01*
X61858453Y-39666397D01*
X61858531Y-39680144D01*
X61846402Y-39844520D01*
X61805452Y-39985064D01*
X61728469Y-40119065D01*
X61620683Y-40250265D01*
X61533789Y-40341665D01*
X61464175Y-40401837D01*
X61394055Y-40443786D01*
X61306064Y-40480366D01*
X61117584Y-40526971D01*
X60918829Y-40535710D01*
X60731950Y-40506300D01*
X60677267Y-40488405D01*
X60561276Y-40427546D01*
X60544587Y-40414888D01*
X60442244Y-40337271D01*
X60334343Y-40231242D01*
X60251744Y-40123118D01*
X60212085Y-40040006D01*
X60197857Y-39901078D01*
X60235167Y-39771679D01*
X60319109Y-39662090D01*
X60426104Y-39590945D01*
X60466356Y-39567895D01*
X60464042Y-39546107D01*
X60416568Y-39510549D01*
X60411667Y-39507276D01*
X60294393Y-39458168D01*
X60174254Y-39457580D01*
X60057963Y-39498405D01*
X59952232Y-39573537D01*
X59863772Y-39675871D01*
X59799297Y-39798298D01*
X59765518Y-39933712D01*
X59769147Y-40075008D01*
X59793044Y-40162230D01*
X59879409Y-40324437D01*
X60009505Y-40485652D01*
X60171436Y-40635335D01*
X60353299Y-40762950D01*
X60543196Y-40857957D01*
X60603002Y-40879521D01*
X60828627Y-40924289D01*
X61068436Y-40920745D01*
X61312053Y-40871393D01*
X61549102Y-40778743D01*
X61769211Y-40645303D01*
X61855107Y-40576837D01*
X61887692Y-40540620D01*
X61940888Y-40473635D01*
X61996711Y-40399142D01*
X62115571Y-40195781D01*
X62199253Y-39966898D01*
X62241496Y-39732269D01*
X62245014Y-39614789D01*
X62211411Y-39355171D01*
X62129346Y-39116027D01*
X62004496Y-38901855D01*
X61842536Y-38717156D01*
X61649143Y-38566428D01*
X61429991Y-38454171D01*
X61190757Y-38384884D01*
X60937116Y-38363067D01*
X60697966Y-38388380D01*
X60448732Y-38465739D01*
X60224734Y-38590957D01*
X60030795Y-38759271D01*
X59871735Y-38965915D01*
X59752376Y-39206125D01*
X59699007Y-39375441D01*
X59662375Y-39521604D01*
X59521906Y-39521604D01*
X59523579Y-39495843D01*
X59540009Y-39366811D01*
X59564052Y-39247200D01*
X59581195Y-39187334D01*
X59654788Y-39006305D01*
X59753611Y-38842553D01*
X59887430Y-38681890D01*
X60016685Y-38554843D01*
X60119518Y-38462605D01*
X60201146Y-38398969D01*
X60280093Y-38352440D01*
X60374878Y-38311521D01*
X60457788Y-38281051D01*
X60670411Y-38226723D01*
X60912883Y-38199910D01*
X61165757Y-38200638D01*
G37*
X54521682Y-44713194D02*
X54704974Y-44747525D01*
X54748988Y-44761059D01*
X54817818Y-44787559D01*
X54878606Y-44820690D01*
X54943169Y-44869264D01*
X55023324Y-44942098D01*
X55122818Y-45039934D01*
X55223274Y-45141643D01*
X55292381Y-45217193D01*
X55339281Y-45279749D01*
X55373114Y-45342479D01*
X55403024Y-45418546D01*
X55420249Y-45468300D01*
X55467329Y-45663547D01*
X55477874Y-45852897D01*
X55467982Y-46039044D01*
X56000138Y-46101546D01*
X56532293Y-46164048D01*
X56240764Y-46466607D01*
X56128797Y-46582979D01*
X56041204Y-46668961D01*
X55966691Y-46728133D01*
X55893966Y-46764073D01*
X55811735Y-46780360D01*
X55708705Y-46780573D01*
X55573584Y-46768289D01*
X55395078Y-46747085D01*
X55366410Y-46743660D01*
X54985142Y-46698308D01*
X55237785Y-46962088D01*
X55490429Y-47225868D01*
X55245915Y-47469121D01*
X55141806Y-47571729D01*
X55067603Y-47640877D01*
X55013714Y-47683429D01*
X54970549Y-47706250D01*
X54928520Y-47716205D01*
X54896745Y-47719061D01*
X54792089Y-47725749D01*
X53930849Y-46853031D01*
X53924514Y-46846611D01*
X53716539Y-46635791D01*
X53544652Y-46461154D01*
X53405279Y-46318722D01*
X53294851Y-46204514D01*
X53209792Y-46114551D01*
X53146531Y-46044853D01*
X53101496Y-45991443D01*
X53071116Y-45950338D01*
X53051816Y-45917561D01*
X53040025Y-45889132D01*
X53032170Y-45861071D01*
X53029444Y-45849547D01*
X53015992Y-45773340D01*
X53016216Y-45756956D01*
X53190857Y-45756956D01*
X53192715Y-45800537D01*
X53204660Y-45846217D01*
X53230094Y-45898265D01*
X53272425Y-45960957D01*
X53335054Y-46038567D01*
X53421388Y-46135364D01*
X53534829Y-46255624D01*
X53678784Y-46403620D01*
X53856655Y-46583624D01*
X54027993Y-46755886D01*
X54198440Y-46926295D01*
X54356981Y-47083416D01*
X54499102Y-47222883D01*
X54620297Y-47340332D01*
X54716055Y-47431397D01*
X54781867Y-47491713D01*
X54813224Y-47516917D01*
X54814714Y-47517400D01*
X54846968Y-47497974D01*
X54903593Y-47447213D01*
X54967710Y-47381033D01*
X55092465Y-47244666D01*
X54130368Y-46268736D01*
X53636159Y-45767421D01*
X53655624Y-45747956D01*
X54014834Y-45747956D01*
X54332991Y-46066113D01*
X54416368Y-46019776D01*
X54511836Y-45944081D01*
X54557789Y-45847430D01*
X54563179Y-45807032D01*
X54548241Y-45721788D01*
X54503172Y-45625540D01*
X54441494Y-45543071D01*
X54401028Y-45509840D01*
X54346808Y-45491945D01*
X54286899Y-45506515D01*
X54211895Y-45558021D01*
X54119877Y-45643459D01*
X54014834Y-45747956D01*
X53655624Y-45747956D01*
X53846443Y-45557136D01*
X53971608Y-45438182D01*
X54072677Y-45359164D01*
X54159757Y-45315116D01*
X54242951Y-45301073D01*
X54332364Y-45312065D01*
X54340898Y-45314071D01*
X54438213Y-45358451D01*
X54541253Y-45437519D01*
X54632360Y-45534585D01*
X54693883Y-45632963D01*
X54702651Y-45656051D01*
X54718327Y-45742620D01*
X54721028Y-45842594D01*
X54720085Y-45856152D01*
X54709351Y-45923927D01*
X54684019Y-45980978D01*
X54634020Y-46044421D01*
X54570762Y-46110010D01*
X54492042Y-46183132D01*
X54420834Y-46239679D01*
X54373475Y-46266988D01*
X54339285Y-46284544D01*
X54341072Y-46315979D01*
X54373628Y-46369230D01*
X54428097Y-46432543D01*
X54483102Y-46473212D01*
X54487581Y-46475088D01*
X54531619Y-46484658D01*
X54622478Y-46499262D01*
X54750892Y-46517595D01*
X54907597Y-46538349D01*
X55083327Y-46560215D01*
X55132295Y-46566075D01*
X55721023Y-46635944D01*
X55885690Y-46471336D01*
X55959829Y-46394654D01*
X56013658Y-46334000D01*
X56038526Y-46299322D01*
X56038860Y-46295230D01*
X56008436Y-46288317D01*
X55931241Y-46276310D01*
X55816586Y-46260504D01*
X55673783Y-46242193D01*
X55542046Y-46226195D01*
X55385316Y-46205955D01*
X55251316Y-46185467D01*
X55148731Y-46166322D01*
X55086244Y-46150114D01*
X55071129Y-46139861D01*
X55104685Y-46037369D01*
X55124779Y-45904443D01*
X55128996Y-45765997D01*
X55117650Y-45659336D01*
X55054151Y-45459449D01*
X54952864Y-45278210D01*
X54821452Y-45122126D01*
X54667577Y-44997699D01*
X54498902Y-44911435D01*
X54323091Y-44869837D01*
X54190104Y-44872005D01*
X54090435Y-44888468D01*
X54005631Y-44912209D01*
X53926256Y-44949273D01*
X53842873Y-45005710D01*
X53746047Y-45087562D01*
X53626341Y-45200879D01*
X53533033Y-45293036D01*
X53411152Y-45415241D01*
X53323732Y-45505658D01*
X53264717Y-45571794D01*
X53228051Y-45621160D01*
X53207675Y-45661261D01*
X53197534Y-45699608D01*
X53195682Y-45711197D01*
X53190857Y-45756956D01*
X53016216Y-45756956D01*
X53016934Y-45704555D01*
X53036610Y-45635878D01*
X53079365Y-45559994D01*
X53149540Y-45469587D01*
X53251478Y-45357342D01*
X53389522Y-45215945D01*
X53429160Y-45176207D01*
X53557142Y-45048645D01*
X53653554Y-44954633D01*
X53726625Y-44887698D01*
X53784581Y-44841362D01*
X53835652Y-44809151D01*
X53888064Y-44784588D01*
X53950043Y-44761199D01*
X53961803Y-44756988D01*
X54127637Y-44717809D01*
X54321750Y-44703251D01*
X54521682Y-44713194D01*
G36*
X54521682Y-44713194D02*
G01*
X54704974Y-44747525D01*
X54748988Y-44761059D01*
X54817818Y-44787559D01*
X54878606Y-44820690D01*
X54943169Y-44869264D01*
X55023324Y-44942098D01*
X55122818Y-45039934D01*
X55223274Y-45141643D01*
X55292381Y-45217193D01*
X55339281Y-45279749D01*
X55373114Y-45342479D01*
X55403024Y-45418546D01*
X55420249Y-45468300D01*
X55467329Y-45663547D01*
X55477874Y-45852897D01*
X55467982Y-46039044D01*
X56000138Y-46101546D01*
X56532293Y-46164048D01*
X56240764Y-46466607D01*
X56128797Y-46582979D01*
X56041204Y-46668961D01*
X55966691Y-46728133D01*
X55893966Y-46764073D01*
X55811735Y-46780360D01*
X55708705Y-46780573D01*
X55573584Y-46768289D01*
X55395078Y-46747085D01*
X55366410Y-46743660D01*
X54985142Y-46698308D01*
X55237785Y-46962088D01*
X55490429Y-47225868D01*
X55245915Y-47469121D01*
X55141806Y-47571729D01*
X55067603Y-47640877D01*
X55013714Y-47683429D01*
X54970549Y-47706250D01*
X54928520Y-47716205D01*
X54896745Y-47719061D01*
X54792089Y-47725749D01*
X53930849Y-46853031D01*
X53924514Y-46846611D01*
X53716539Y-46635791D01*
X53544652Y-46461154D01*
X53405279Y-46318722D01*
X53294851Y-46204514D01*
X53209792Y-46114551D01*
X53146531Y-46044853D01*
X53101496Y-45991443D01*
X53071116Y-45950338D01*
X53051816Y-45917561D01*
X53040025Y-45889132D01*
X53032170Y-45861071D01*
X53029444Y-45849547D01*
X53015992Y-45773340D01*
X53016216Y-45756956D01*
X53190857Y-45756956D01*
X53192715Y-45800537D01*
X53204660Y-45846217D01*
X53230094Y-45898265D01*
X53272425Y-45960957D01*
X53335054Y-46038567D01*
X53421388Y-46135364D01*
X53534829Y-46255624D01*
X53678784Y-46403620D01*
X53856655Y-46583624D01*
X54027993Y-46755886D01*
X54198440Y-46926295D01*
X54356981Y-47083416D01*
X54499102Y-47222883D01*
X54620297Y-47340332D01*
X54716055Y-47431397D01*
X54781867Y-47491713D01*
X54813224Y-47516917D01*
X54814714Y-47517400D01*
X54846968Y-47497974D01*
X54903593Y-47447213D01*
X54967710Y-47381033D01*
X55092465Y-47244666D01*
X54130368Y-46268736D01*
X53636159Y-45767421D01*
X53655624Y-45747956D01*
X54014834Y-45747956D01*
X54332991Y-46066113D01*
X54416368Y-46019776D01*
X54511836Y-45944081D01*
X54557789Y-45847430D01*
X54563179Y-45807032D01*
X54548241Y-45721788D01*
X54503172Y-45625540D01*
X54441494Y-45543071D01*
X54401028Y-45509840D01*
X54346808Y-45491945D01*
X54286899Y-45506515D01*
X54211895Y-45558021D01*
X54119877Y-45643459D01*
X54014834Y-45747956D01*
X53655624Y-45747956D01*
X53846443Y-45557136D01*
X53971608Y-45438182D01*
X54072677Y-45359164D01*
X54159757Y-45315116D01*
X54242951Y-45301073D01*
X54332364Y-45312065D01*
X54340898Y-45314071D01*
X54438213Y-45358451D01*
X54541253Y-45437519D01*
X54632360Y-45534585D01*
X54693883Y-45632963D01*
X54702651Y-45656051D01*
X54718327Y-45742620D01*
X54721028Y-45842594D01*
X54720085Y-45856152D01*
X54709351Y-45923927D01*
X54684019Y-45980978D01*
X54634020Y-46044421D01*
X54570762Y-46110010D01*
X54492042Y-46183132D01*
X54420834Y-46239679D01*
X54373475Y-46266988D01*
X54339285Y-46284544D01*
X54341072Y-46315979D01*
X54373628Y-46369230D01*
X54428097Y-46432543D01*
X54483102Y-46473212D01*
X54487581Y-46475088D01*
X54531619Y-46484658D01*
X54622478Y-46499262D01*
X54750892Y-46517595D01*
X54907597Y-46538349D01*
X55083327Y-46560215D01*
X55132295Y-46566075D01*
X55721023Y-46635944D01*
X55885690Y-46471336D01*
X55959829Y-46394654D01*
X56013658Y-46334000D01*
X56038526Y-46299322D01*
X56038860Y-46295230D01*
X56008436Y-46288317D01*
X55931241Y-46276310D01*
X55816586Y-46260504D01*
X55673783Y-46242193D01*
X55542046Y-46226195D01*
X55385316Y-46205955D01*
X55251316Y-46185467D01*
X55148731Y-46166322D01*
X55086244Y-46150114D01*
X55071129Y-46139861D01*
X55104685Y-46037369D01*
X55124779Y-45904443D01*
X55128996Y-45765997D01*
X55117650Y-45659336D01*
X55054151Y-45459449D01*
X54952864Y-45278210D01*
X54821452Y-45122126D01*
X54667577Y-44997699D01*
X54498902Y-44911435D01*
X54323091Y-44869837D01*
X54190104Y-44872005D01*
X54090435Y-44888468D01*
X54005631Y-44912209D01*
X53926256Y-44949273D01*
X53842873Y-45005710D01*
X53746047Y-45087562D01*
X53626341Y-45200879D01*
X53533033Y-45293036D01*
X53411152Y-45415241D01*
X53323732Y-45505658D01*
X53264717Y-45571794D01*
X53228051Y-45621160D01*
X53207675Y-45661261D01*
X53197534Y-45699608D01*
X53195682Y-45711197D01*
X53190857Y-45756956D01*
X53016216Y-45756956D01*
X53016934Y-45704555D01*
X53036610Y-45635878D01*
X53079365Y-45559994D01*
X53149540Y-45469587D01*
X53251478Y-45357342D01*
X53389522Y-45215945D01*
X53429160Y-45176207D01*
X53557142Y-45048645D01*
X53653554Y-44954633D01*
X53726625Y-44887698D01*
X53784581Y-44841362D01*
X53835652Y-44809151D01*
X53888064Y-44784588D01*
X53950043Y-44761199D01*
X53961803Y-44756988D01*
X54127637Y-44717809D01*
X54321750Y-44703251D01*
X54521682Y-44713194D01*
G37*
X55816599Y-42944390D02*
X55856437Y-42952506D01*
X55898007Y-42974974D01*
X55951178Y-43018465D01*
X56025822Y-43089650D01*
X56113961Y-43177350D01*
X56349700Y-43413090D01*
X55651236Y-44111554D01*
X55810885Y-44271203D01*
X56402102Y-43679986D01*
X56516734Y-43682442D01*
X56587343Y-43687945D01*
X56636955Y-43708652D01*
X56685901Y-43756507D01*
X56724311Y-43804383D01*
X56816425Y-43957259D01*
X56865364Y-44117627D01*
X56866957Y-44271244D01*
X56864714Y-44283846D01*
X56851052Y-44337690D01*
X56828132Y-44386952D01*
X56788181Y-44442253D01*
X56723425Y-44514210D01*
X56626094Y-44613442D01*
X56616157Y-44623387D01*
X56389613Y-44849931D01*
X56549261Y-45009580D01*
X57140478Y-44418363D01*
X57250074Y-44420711D01*
X57298724Y-44423520D01*
X57339830Y-44434143D01*
X57383396Y-44459457D01*
X57439428Y-44506339D01*
X57517931Y-44581666D01*
X57593061Y-44656451D01*
X57826454Y-44889843D01*
X56637803Y-46075971D01*
X56431440Y-46089125D01*
X55860623Y-45518308D01*
X55586576Y-45244261D01*
X55380888Y-45038489D01*
X55211403Y-44868499D01*
X55074388Y-44730184D01*
X54966112Y-44619432D01*
X54882843Y-44532138D01*
X54820850Y-44464192D01*
X54776401Y-44411484D01*
X54745765Y-44369908D01*
X54725209Y-44335353D01*
X54711004Y-44303713D01*
X54699415Y-44270877D01*
X54697653Y-44265535D01*
X54677599Y-44136902D01*
X54838878Y-44136902D01*
X54862693Y-44221868D01*
X54917285Y-44317675D01*
X55003926Y-44429697D01*
X55123886Y-44563310D01*
X55278438Y-44723889D01*
X55468852Y-44916810D01*
X55632685Y-45082630D01*
X55803554Y-45255602D01*
X55962977Y-45415953D01*
X56106416Y-45559197D01*
X56229333Y-45680845D01*
X56327190Y-45776412D01*
X56395448Y-45841408D01*
X56429569Y-45871349D01*
X56431711Y-45872658D01*
X56450488Y-45871194D01*
X56482622Y-45851990D01*
X56532562Y-45810972D01*
X56604754Y-45744069D01*
X56703645Y-45647206D01*
X56833684Y-45516311D01*
X56948250Y-45399570D01*
X57427332Y-44909799D01*
X57147946Y-44630414D01*
X56798242Y-44969197D01*
X56448539Y-45307980D01*
X56010447Y-44869887D01*
X56233827Y-44644254D01*
X56329629Y-44543294D01*
X56414011Y-44446731D01*
X56476369Y-44367132D01*
X56502543Y-44325648D01*
X56528979Y-44218436D01*
X56520097Y-44099060D01*
X56479554Y-43992125D01*
X56446530Y-43948954D01*
X56389613Y-43892036D01*
X55711104Y-44570545D01*
X55273012Y-44132453D01*
X55611795Y-43782750D01*
X55950578Y-43433046D01*
X55671192Y-43153660D01*
X55271131Y-43553721D01*
X55136975Y-43686531D01*
X55025970Y-43797928D01*
X54939386Y-43893288D01*
X54878496Y-43977987D01*
X54844570Y-44057400D01*
X54838878Y-44136902D01*
X54677599Y-44136902D01*
X54673468Y-44110404D01*
X54688763Y-44007195D01*
X54701741Y-43965787D01*
X54718820Y-43927034D01*
X54745160Y-43884853D01*
X54785923Y-43833160D01*
X54846266Y-43765872D01*
X54931352Y-43676904D01*
X55046338Y-43560174D01*
X55191481Y-43414510D01*
X55659030Y-42946305D01*
X55768626Y-42943958D01*
X55816599Y-42944390D01*
G36*
X55816599Y-42944390D02*
G01*
X55856437Y-42952506D01*
X55898007Y-42974974D01*
X55951178Y-43018465D01*
X56025822Y-43089650D01*
X56113961Y-43177350D01*
X56349700Y-43413090D01*
X55651236Y-44111554D01*
X55810885Y-44271203D01*
X56402102Y-43679986D01*
X56516734Y-43682442D01*
X56587343Y-43687945D01*
X56636955Y-43708652D01*
X56685901Y-43756507D01*
X56724311Y-43804383D01*
X56816425Y-43957259D01*
X56865364Y-44117627D01*
X56866957Y-44271244D01*
X56864714Y-44283846D01*
X56851052Y-44337690D01*
X56828132Y-44386952D01*
X56788181Y-44442253D01*
X56723425Y-44514210D01*
X56626094Y-44613442D01*
X56616157Y-44623387D01*
X56389613Y-44849931D01*
X56549261Y-45009580D01*
X57140478Y-44418363D01*
X57250074Y-44420711D01*
X57298724Y-44423520D01*
X57339830Y-44434143D01*
X57383396Y-44459457D01*
X57439428Y-44506339D01*
X57517931Y-44581666D01*
X57593061Y-44656451D01*
X57826454Y-44889843D01*
X56637803Y-46075971D01*
X56431440Y-46089125D01*
X55860623Y-45518308D01*
X55586576Y-45244261D01*
X55380888Y-45038489D01*
X55211403Y-44868499D01*
X55074388Y-44730184D01*
X54966112Y-44619432D01*
X54882843Y-44532138D01*
X54820850Y-44464192D01*
X54776401Y-44411484D01*
X54745765Y-44369908D01*
X54725209Y-44335353D01*
X54711004Y-44303713D01*
X54699415Y-44270877D01*
X54697653Y-44265535D01*
X54677599Y-44136902D01*
X54838878Y-44136902D01*
X54862693Y-44221868D01*
X54917285Y-44317675D01*
X55003926Y-44429697D01*
X55123886Y-44563310D01*
X55278438Y-44723889D01*
X55468852Y-44916810D01*
X55632685Y-45082630D01*
X55803554Y-45255602D01*
X55962977Y-45415953D01*
X56106416Y-45559197D01*
X56229333Y-45680845D01*
X56327190Y-45776412D01*
X56395448Y-45841408D01*
X56429569Y-45871349D01*
X56431711Y-45872658D01*
X56450488Y-45871194D01*
X56482622Y-45851990D01*
X56532562Y-45810972D01*
X56604754Y-45744069D01*
X56703645Y-45647206D01*
X56833684Y-45516311D01*
X56948250Y-45399570D01*
X57427332Y-44909799D01*
X57147946Y-44630414D01*
X56798242Y-44969197D01*
X56448539Y-45307980D01*
X56010447Y-44869887D01*
X56233827Y-44644254D01*
X56329629Y-44543294D01*
X56414011Y-44446731D01*
X56476369Y-44367132D01*
X56502543Y-44325648D01*
X56528979Y-44218436D01*
X56520097Y-44099060D01*
X56479554Y-43992125D01*
X56446530Y-43948954D01*
X56389613Y-43892036D01*
X55711104Y-44570545D01*
X55273012Y-44132453D01*
X55611795Y-43782750D01*
X55950578Y-43433046D01*
X55671192Y-43153660D01*
X55271131Y-43553721D01*
X55136975Y-43686531D01*
X55025970Y-43797928D01*
X54939386Y-43893288D01*
X54878496Y-43977987D01*
X54844570Y-44057400D01*
X54838878Y-44136902D01*
X54677599Y-44136902D01*
X54673468Y-44110404D01*
X54688763Y-44007195D01*
X54701741Y-43965787D01*
X54718820Y-43927034D01*
X54745160Y-43884853D01*
X54785923Y-43833160D01*
X54846266Y-43765872D01*
X54931352Y-43676904D01*
X55046338Y-43560174D01*
X55191481Y-43414510D01*
X55659030Y-42946305D01*
X55768626Y-42943958D01*
X55816599Y-42944390D01*
G37*
X57335703Y-41387504D02*
X57410800Y-41393979D01*
X57462311Y-41418041D01*
X57513554Y-41472724D01*
X57532879Y-41497730D01*
X57618759Y-41638969D01*
X57672689Y-41787552D01*
X57688995Y-41925935D01*
X57684910Y-41967843D01*
X57650468Y-42068935D01*
X57575804Y-42181025D01*
X57547069Y-42215721D01*
X57427331Y-42355415D01*
X58155484Y-43094037D01*
X58883637Y-43832661D01*
X58638790Y-44076246D01*
X58534474Y-44179029D01*
X58460081Y-44248305D01*
X58406081Y-44290934D01*
X58362942Y-44313773D01*
X58321135Y-44323684D01*
X58291250Y-44326372D01*
X58188558Y-44332913D01*
X57498625Y-43653484D01*
X56808691Y-42974055D01*
X56658285Y-43104505D01*
X56553839Y-43186782D01*
X56469944Y-43231942D01*
X56410950Y-43246316D01*
X56368895Y-43249756D01*
X56333131Y-43244540D01*
X56294352Y-43224337D01*
X56243250Y-43182817D01*
X56170522Y-43113653D01*
X56072432Y-43016084D01*
X55940600Y-42884252D01*
X55830842Y-42774494D01*
X56050359Y-42774494D01*
X56329744Y-43053879D01*
X56530029Y-42865019D01*
X56730312Y-42676159D01*
X57454662Y-43400509D01*
X57621261Y-43566399D01*
X57775800Y-43718920D01*
X57913654Y-43853614D01*
X58030198Y-43966015D01*
X58120805Y-44051664D01*
X58180849Y-44106097D01*
X58205620Y-44124858D01*
X58237638Y-44106225D01*
X58296057Y-44057363D01*
X58368256Y-43988831D01*
X58504962Y-43852124D01*
X57033338Y-42380500D01*
X57179265Y-42216639D01*
X57277099Y-42094995D01*
X57333164Y-41997622D01*
X57343439Y-41965173D01*
X57344139Y-41862247D01*
X57315016Y-41749426D01*
X57264421Y-41655711D01*
X57249398Y-41638666D01*
X57236536Y-41627304D01*
X57221950Y-41622895D01*
X57201112Y-41629433D01*
X57169492Y-41650907D01*
X57122559Y-41691311D01*
X57055783Y-41754633D01*
X56964637Y-41844865D01*
X56844588Y-41966001D01*
X56691109Y-42122028D01*
X56628785Y-42185487D01*
X56050359Y-42774494D01*
X55830842Y-42774494D01*
X57220303Y-41385032D01*
X57335703Y-41387504D01*
G36*
X57335703Y-41387504D02*
G01*
X57410800Y-41393979D01*
X57462311Y-41418041D01*
X57513554Y-41472724D01*
X57532879Y-41497730D01*
X57618759Y-41638969D01*
X57672689Y-41787552D01*
X57688995Y-41925935D01*
X57684910Y-41967843D01*
X57650468Y-42068935D01*
X57575804Y-42181025D01*
X57547069Y-42215721D01*
X57427331Y-42355415D01*
X58155484Y-43094037D01*
X58883637Y-43832661D01*
X58638790Y-44076246D01*
X58534474Y-44179029D01*
X58460081Y-44248305D01*
X58406081Y-44290934D01*
X58362942Y-44313773D01*
X58321135Y-44323684D01*
X58291250Y-44326372D01*
X58188558Y-44332913D01*
X57498625Y-43653484D01*
X56808691Y-42974055D01*
X56658285Y-43104505D01*
X56553839Y-43186782D01*
X56469944Y-43231942D01*
X56410950Y-43246316D01*
X56368895Y-43249756D01*
X56333131Y-43244540D01*
X56294352Y-43224337D01*
X56243250Y-43182817D01*
X56170522Y-43113653D01*
X56072432Y-43016084D01*
X55940600Y-42884252D01*
X55830842Y-42774494D01*
X56050359Y-42774494D01*
X56329744Y-43053879D01*
X56530029Y-42865019D01*
X56730312Y-42676159D01*
X57454662Y-43400509D01*
X57621261Y-43566399D01*
X57775800Y-43718920D01*
X57913654Y-43853614D01*
X58030198Y-43966015D01*
X58120805Y-44051664D01*
X58180849Y-44106097D01*
X58205620Y-44124858D01*
X58237638Y-44106225D01*
X58296057Y-44057363D01*
X58368256Y-43988831D01*
X58504962Y-43852124D01*
X57033338Y-42380500D01*
X57179265Y-42216639D01*
X57277099Y-42094995D01*
X57333164Y-41997622D01*
X57343439Y-41965173D01*
X57344139Y-41862247D01*
X57315016Y-41749426D01*
X57264421Y-41655711D01*
X57249398Y-41638666D01*
X57236536Y-41627304D01*
X57221950Y-41622895D01*
X57201112Y-41629433D01*
X57169492Y-41650907D01*
X57122559Y-41691311D01*
X57055783Y-41754633D01*
X56964637Y-41844865D01*
X56844588Y-41966001D01*
X56691109Y-42122028D01*
X56628785Y-42185487D01*
X56050359Y-42774494D01*
X55830842Y-42774494D01*
X57220303Y-41385032D01*
X57335703Y-41387504D01*
G37*
X59051721Y-40183154D02*
X59235014Y-40217485D01*
X59279028Y-40231019D01*
X59347858Y-40257519D01*
X59408647Y-40290649D01*
X59473209Y-40339224D01*
X59553364Y-40412058D01*
X59652859Y-40509893D01*
X59753314Y-40611603D01*
X59822421Y-40687153D01*
X59869321Y-40749709D01*
X59903154Y-40812438D01*
X59933064Y-40888506D01*
X59950289Y-40938260D01*
X59997369Y-41133507D01*
X60007914Y-41322857D01*
X59998022Y-41509004D01*
X60530178Y-41571506D01*
X61062333Y-41634008D01*
X60770804Y-41936567D01*
X60658838Y-42052938D01*
X60571244Y-42138921D01*
X60496731Y-42198093D01*
X60424006Y-42234033D01*
X60341775Y-42250320D01*
X60238745Y-42250533D01*
X60103625Y-42238248D01*
X59925118Y-42217045D01*
X59896450Y-42213620D01*
X59515183Y-42168268D01*
X59767826Y-42432048D01*
X60020469Y-42695828D01*
X59775955Y-42939081D01*
X59671846Y-43041689D01*
X59597643Y-43110837D01*
X59543754Y-43153389D01*
X59500590Y-43176210D01*
X59458560Y-43186165D01*
X59426785Y-43189021D01*
X59322129Y-43195709D01*
X58460889Y-42322990D01*
X58454555Y-42316571D01*
X58246579Y-42105751D01*
X58074692Y-41931114D01*
X57935319Y-41788682D01*
X57824891Y-41674474D01*
X57739832Y-41584511D01*
X57676571Y-41514813D01*
X57631537Y-41461402D01*
X57601156Y-41420297D01*
X57581857Y-41387520D01*
X57570066Y-41359091D01*
X57562211Y-41331030D01*
X57559485Y-41319506D01*
X57546032Y-41243299D01*
X57546256Y-41226915D01*
X57720898Y-41226915D01*
X57722755Y-41270497D01*
X57734700Y-41316177D01*
X57760134Y-41368225D01*
X57802465Y-41430917D01*
X57865094Y-41508527D01*
X57951428Y-41605324D01*
X58064870Y-41725584D01*
X58208825Y-41873579D01*
X58386696Y-42053583D01*
X58558034Y-42225845D01*
X58728481Y-42396255D01*
X58887021Y-42553376D01*
X59029142Y-42692843D01*
X59150337Y-42810292D01*
X59246096Y-42901356D01*
X59311907Y-42961673D01*
X59343264Y-42986876D01*
X59344754Y-42987359D01*
X59377008Y-42967933D01*
X59433633Y-42917173D01*
X59497751Y-42850992D01*
X59622505Y-42714626D01*
X58894352Y-41976003D01*
X58660408Y-41738696D01*
X58166200Y-41237380D01*
X58185664Y-41217916D01*
X58544874Y-41217916D01*
X58863031Y-41536073D01*
X58946409Y-41489735D01*
X59041876Y-41414041D01*
X59087829Y-41317390D01*
X59093219Y-41276992D01*
X59078281Y-41191748D01*
X59033212Y-41095500D01*
X58971534Y-41013031D01*
X58931069Y-40979799D01*
X58876848Y-40961905D01*
X58816940Y-40976475D01*
X58741935Y-41027981D01*
X58649917Y-41113419D01*
X58544874Y-41217916D01*
X58185664Y-41217916D01*
X58376484Y-41027096D01*
X58501648Y-40908141D01*
X58602718Y-40829123D01*
X58689797Y-40785076D01*
X58772991Y-40771033D01*
X58862405Y-40782024D01*
X58870938Y-40784031D01*
X58968254Y-40828411D01*
X59071293Y-40907479D01*
X59162400Y-41004545D01*
X59223923Y-41102923D01*
X59232691Y-41126011D01*
X59248367Y-41212580D01*
X59251068Y-41312554D01*
X59250125Y-41326112D01*
X59239392Y-41393886D01*
X59214059Y-41450938D01*
X59164060Y-41514381D01*
X59100802Y-41579969D01*
X59022082Y-41653092D01*
X58950874Y-41709639D01*
X58903516Y-41736947D01*
X58869325Y-41754504D01*
X58871112Y-41785939D01*
X58903669Y-41839189D01*
X58958137Y-41902502D01*
X59013142Y-41943172D01*
X59017621Y-41945047D01*
X59061659Y-41954618D01*
X59152518Y-41969222D01*
X59280932Y-41987555D01*
X59437638Y-42008308D01*
X59613367Y-42030175D01*
X59662335Y-42036035D01*
X60251063Y-42105904D01*
X60415730Y-41941296D01*
X60489869Y-41864614D01*
X60543698Y-41803960D01*
X60568567Y-41769281D01*
X60568901Y-41765189D01*
X60538476Y-41758276D01*
X60461281Y-41746270D01*
X60346626Y-41730463D01*
X60203823Y-41712152D01*
X60072086Y-41696155D01*
X59915356Y-41675915D01*
X59781357Y-41655427D01*
X59678771Y-41636282D01*
X59616284Y-41620074D01*
X59601169Y-41609821D01*
X59634725Y-41507329D01*
X59654819Y-41374403D01*
X59659036Y-41235957D01*
X59647690Y-41129296D01*
X59584191Y-40929409D01*
X59482904Y-40748170D01*
X59351492Y-40592086D01*
X59197617Y-40467659D01*
X59028943Y-40381394D01*
X58853132Y-40339796D01*
X58720144Y-40341965D01*
X58620475Y-40358427D01*
X58535671Y-40382168D01*
X58456296Y-40419233D01*
X58372913Y-40475670D01*
X58276087Y-40557522D01*
X58156381Y-40670839D01*
X58063074Y-40762995D01*
X57941192Y-40885201D01*
X57853772Y-40975617D01*
X57794757Y-41041754D01*
X57758092Y-41091119D01*
X57737716Y-41131221D01*
X57727574Y-41169567D01*
X57725722Y-41181157D01*
X57720898Y-41226915D01*
X57546256Y-41226915D01*
X57546974Y-41174515D01*
X57566650Y-41105838D01*
X57609405Y-41029953D01*
X57679581Y-40939546D01*
X57781519Y-40827301D01*
X57919562Y-40685905D01*
X57959200Y-40646167D01*
X58087183Y-40518604D01*
X58183594Y-40424593D01*
X58256665Y-40357657D01*
X58314621Y-40311322D01*
X58365692Y-40279111D01*
X58418104Y-40254548D01*
X58480084Y-40231158D01*
X58491844Y-40226947D01*
X58657678Y-40187768D01*
X58851791Y-40173210D01*
X59051721Y-40183154D01*
G36*
X59051721Y-40183154D02*
G01*
X59235014Y-40217485D01*
X59279028Y-40231019D01*
X59347858Y-40257519D01*
X59408647Y-40290649D01*
X59473209Y-40339224D01*
X59553364Y-40412058D01*
X59652859Y-40509893D01*
X59753314Y-40611603D01*
X59822421Y-40687153D01*
X59869321Y-40749709D01*
X59903154Y-40812438D01*
X59933064Y-40888506D01*
X59950289Y-40938260D01*
X59997369Y-41133507D01*
X60007914Y-41322857D01*
X59998022Y-41509004D01*
X60530178Y-41571506D01*
X61062333Y-41634008D01*
X60770804Y-41936567D01*
X60658838Y-42052938D01*
X60571244Y-42138921D01*
X60496731Y-42198093D01*
X60424006Y-42234033D01*
X60341775Y-42250320D01*
X60238745Y-42250533D01*
X60103625Y-42238248D01*
X59925118Y-42217045D01*
X59896450Y-42213620D01*
X59515183Y-42168268D01*
X59767826Y-42432048D01*
X60020469Y-42695828D01*
X59775955Y-42939081D01*
X59671846Y-43041689D01*
X59597643Y-43110837D01*
X59543754Y-43153389D01*
X59500590Y-43176210D01*
X59458560Y-43186165D01*
X59426785Y-43189021D01*
X59322129Y-43195709D01*
X58460889Y-42322990D01*
X58454555Y-42316571D01*
X58246579Y-42105751D01*
X58074692Y-41931114D01*
X57935319Y-41788682D01*
X57824891Y-41674474D01*
X57739832Y-41584511D01*
X57676571Y-41514813D01*
X57631537Y-41461402D01*
X57601156Y-41420297D01*
X57581857Y-41387520D01*
X57570066Y-41359091D01*
X57562211Y-41331030D01*
X57559485Y-41319506D01*
X57546032Y-41243299D01*
X57546256Y-41226915D01*
X57720898Y-41226915D01*
X57722755Y-41270497D01*
X57734700Y-41316177D01*
X57760134Y-41368225D01*
X57802465Y-41430917D01*
X57865094Y-41508527D01*
X57951428Y-41605324D01*
X58064870Y-41725584D01*
X58208825Y-41873579D01*
X58386696Y-42053583D01*
X58558034Y-42225845D01*
X58728481Y-42396255D01*
X58887021Y-42553376D01*
X59029142Y-42692843D01*
X59150337Y-42810292D01*
X59246096Y-42901356D01*
X59311907Y-42961673D01*
X59343264Y-42986876D01*
X59344754Y-42987359D01*
X59377008Y-42967933D01*
X59433633Y-42917173D01*
X59497751Y-42850992D01*
X59622505Y-42714626D01*
X58894352Y-41976003D01*
X58660408Y-41738696D01*
X58166200Y-41237380D01*
X58185664Y-41217916D01*
X58544874Y-41217916D01*
X58863031Y-41536073D01*
X58946409Y-41489735D01*
X59041876Y-41414041D01*
X59087829Y-41317390D01*
X59093219Y-41276992D01*
X59078281Y-41191748D01*
X59033212Y-41095500D01*
X58971534Y-41013031D01*
X58931069Y-40979799D01*
X58876848Y-40961905D01*
X58816940Y-40976475D01*
X58741935Y-41027981D01*
X58649917Y-41113419D01*
X58544874Y-41217916D01*
X58185664Y-41217916D01*
X58376484Y-41027096D01*
X58501648Y-40908141D01*
X58602718Y-40829123D01*
X58689797Y-40785076D01*
X58772991Y-40771033D01*
X58862405Y-40782024D01*
X58870938Y-40784031D01*
X58968254Y-40828411D01*
X59071293Y-40907479D01*
X59162400Y-41004545D01*
X59223923Y-41102923D01*
X59232691Y-41126011D01*
X59248367Y-41212580D01*
X59251068Y-41312554D01*
X59250125Y-41326112D01*
X59239392Y-41393886D01*
X59214059Y-41450938D01*
X59164060Y-41514381D01*
X59100802Y-41579969D01*
X59022082Y-41653092D01*
X58950874Y-41709639D01*
X58903516Y-41736947D01*
X58869325Y-41754504D01*
X58871112Y-41785939D01*
X58903669Y-41839189D01*
X58958137Y-41902502D01*
X59013142Y-41943172D01*
X59017621Y-41945047D01*
X59061659Y-41954618D01*
X59152518Y-41969222D01*
X59280932Y-41987555D01*
X59437638Y-42008308D01*
X59613367Y-42030175D01*
X59662335Y-42036035D01*
X60251063Y-42105904D01*
X60415730Y-41941296D01*
X60489869Y-41864614D01*
X60543698Y-41803960D01*
X60568567Y-41769281D01*
X60568901Y-41765189D01*
X60538476Y-41758276D01*
X60461281Y-41746270D01*
X60346626Y-41730463D01*
X60203823Y-41712152D01*
X60072086Y-41696155D01*
X59915356Y-41675915D01*
X59781357Y-41655427D01*
X59678771Y-41636282D01*
X59616284Y-41620074D01*
X59601169Y-41609821D01*
X59634725Y-41507329D01*
X59654819Y-41374403D01*
X59659036Y-41235957D01*
X59647690Y-41129296D01*
X59584191Y-40929409D01*
X59482904Y-40748170D01*
X59351492Y-40592086D01*
X59197617Y-40467659D01*
X59028943Y-40381394D01*
X58853132Y-40339796D01*
X58720144Y-40341965D01*
X58620475Y-40358427D01*
X58535671Y-40382168D01*
X58456296Y-40419233D01*
X58372913Y-40475670D01*
X58276087Y-40557522D01*
X58156381Y-40670839D01*
X58063074Y-40762995D01*
X57941192Y-40885201D01*
X57853772Y-40975617D01*
X57794757Y-41041754D01*
X57758092Y-41091119D01*
X57737716Y-41131221D01*
X57727574Y-41169567D01*
X57725722Y-41181157D01*
X57720898Y-41226915D01*
X57546256Y-41226915D01*
X57546974Y-41174515D01*
X57566650Y-41105838D01*
X57609405Y-41029953D01*
X57679581Y-40939546D01*
X57781519Y-40827301D01*
X57919562Y-40685905D01*
X57959200Y-40646167D01*
X58087183Y-40518604D01*
X58183594Y-40424593D01*
X58256665Y-40357657D01*
X58314621Y-40311322D01*
X58365692Y-40279111D01*
X58418104Y-40254548D01*
X58480084Y-40231158D01*
X58491844Y-40226947D01*
X58657678Y-40187768D01*
X58851791Y-40173210D01*
X59051721Y-40183154D01*
G37*
X61447657Y-43630793D02*
X61632151Y-43688607D01*
X61718009Y-43730471D01*
X61879157Y-43832685D01*
X62059520Y-43972511D01*
X62248586Y-44139581D01*
X62435840Y-44323527D01*
X62610768Y-44513981D01*
X62762858Y-44700574D01*
X62881594Y-44872937D01*
X62889046Y-44885311D01*
X62987218Y-45084511D01*
X63036325Y-45267882D01*
X63036258Y-45432400D01*
X62986906Y-45575043D01*
X62917273Y-45666063D01*
X62835127Y-45732142D01*
X62744486Y-45782894D01*
X62722082Y-45791408D01*
X62573324Y-45816326D01*
X62412974Y-45796628D01*
X62237568Y-45730969D01*
X62043640Y-45618003D01*
X61827727Y-45456385D01*
X61799524Y-45433115D01*
X61747352Y-45386732D01*
X61635725Y-45287495D01*
X61469780Y-45123500D01*
X61310584Y-44951301D01*
X61167036Y-44781069D01*
X61048031Y-44622977D01*
X60962468Y-44487196D01*
X60948330Y-44459941D01*
X60874639Y-44264907D01*
X60860843Y-44150199D01*
X61260893Y-44150199D01*
X61304125Y-44310341D01*
X61396730Y-44490368D01*
X61539175Y-44691167D01*
X61731928Y-44913625D01*
X61975457Y-45158627D01*
X62008782Y-45190213D01*
X62203152Y-45367283D01*
X62365724Y-45501752D01*
X62499356Y-45595570D01*
X62606907Y-45650689D01*
X62691235Y-45669061D01*
X62708827Y-45668164D01*
X62777837Y-45635973D01*
X62845499Y-45566150D01*
X62898875Y-45476304D01*
X62925029Y-45384047D01*
X62925750Y-45372906D01*
X62909899Y-45225194D01*
X62851435Y-45062037D01*
X62748609Y-44880229D01*
X62599672Y-44676563D01*
X62448557Y-44498438D01*
X62290355Y-44333184D01*
X62115098Y-44170572D01*
X61936089Y-44021774D01*
X61766625Y-43897958D01*
X61644587Y-43823164D01*
X61530576Y-43777989D01*
X61438316Y-43782075D01*
X61359215Y-43837090D01*
X61320674Y-43886020D01*
X61266565Y-44009054D01*
X61260893Y-44150199D01*
X60860843Y-44150199D01*
X60853218Y-44086801D01*
X60883955Y-43927233D01*
X60966734Y-43787810D01*
X60998159Y-43753662D01*
X61126113Y-43663468D01*
X61277462Y-43622462D01*
X61447657Y-43630793D01*
G36*
X61447657Y-43630793D02*
G01*
X61632151Y-43688607D01*
X61718009Y-43730471D01*
X61879157Y-43832685D01*
X62059520Y-43972511D01*
X62248586Y-44139581D01*
X62435840Y-44323527D01*
X62610768Y-44513981D01*
X62762858Y-44700574D01*
X62881594Y-44872937D01*
X62889046Y-44885311D01*
X62987218Y-45084511D01*
X63036325Y-45267882D01*
X63036258Y-45432400D01*
X62986906Y-45575043D01*
X62917273Y-45666063D01*
X62835127Y-45732142D01*
X62744486Y-45782894D01*
X62722082Y-45791408D01*
X62573324Y-45816326D01*
X62412974Y-45796628D01*
X62237568Y-45730969D01*
X62043640Y-45618003D01*
X61827727Y-45456385D01*
X61799524Y-45433115D01*
X61747352Y-45386732D01*
X61635725Y-45287495D01*
X61469780Y-45123500D01*
X61310584Y-44951301D01*
X61167036Y-44781069D01*
X61048031Y-44622977D01*
X60962468Y-44487196D01*
X60948330Y-44459941D01*
X60874639Y-44264907D01*
X60860843Y-44150199D01*
X61260893Y-44150199D01*
X61304125Y-44310341D01*
X61396730Y-44490368D01*
X61539175Y-44691167D01*
X61731928Y-44913625D01*
X61975457Y-45158627D01*
X62008782Y-45190213D01*
X62203152Y-45367283D01*
X62365724Y-45501752D01*
X62499356Y-45595570D01*
X62606907Y-45650689D01*
X62691235Y-45669061D01*
X62708827Y-45668164D01*
X62777837Y-45635973D01*
X62845499Y-45566150D01*
X62898875Y-45476304D01*
X62925029Y-45384047D01*
X62925750Y-45372906D01*
X62909899Y-45225194D01*
X62851435Y-45062037D01*
X62748609Y-44880229D01*
X62599672Y-44676563D01*
X62448557Y-44498438D01*
X62290355Y-44333184D01*
X62115098Y-44170572D01*
X61936089Y-44021774D01*
X61766625Y-43897958D01*
X61644587Y-43823164D01*
X61530576Y-43777989D01*
X61438316Y-43782075D01*
X61359215Y-43837090D01*
X61320674Y-43886020D01*
X61266565Y-44009054D01*
X61260893Y-44150199D01*
X60860843Y-44150199D01*
X60853218Y-44086801D01*
X60883955Y-43927233D01*
X60966734Y-43787810D01*
X60998159Y-43753662D01*
X61126113Y-43663468D01*
X61277462Y-43622462D01*
X61447657Y-43630793D01*
G37*
D15*
%TO.C,G001*%
G36*
X68510660Y-45026450D02*
G01*
X69225115Y-45232660D01*
X69878215Y-45558950D01*
X70458001Y-45991089D01*
X70952509Y-46514848D01*
X71349779Y-47115996D01*
X71637849Y-47780302D01*
X71804757Y-48493535D01*
X71838541Y-49241466D01*
X71780934Y-49753835D01*
X71577547Y-50504248D01*
X71257277Y-51172944D01*
X70835825Y-51754639D01*
X70328892Y-52244051D01*
X69752178Y-52635895D01*
X69121384Y-52924888D01*
X68452210Y-53105747D01*
X67760357Y-53173188D01*
X67061526Y-53121928D01*
X66371417Y-52946683D01*
X65705731Y-52642169D01*
X65080168Y-52203103D01*
X64921587Y-52062113D01*
X64438258Y-51611065D01*
X63863810Y-52051057D01*
X63615508Y-52244103D01*
X63421204Y-52400613D01*
X63307675Y-52498729D01*
X63289362Y-52519997D01*
X63351401Y-52568086D01*
X63510903Y-52660827D01*
X63653864Y-52736864D01*
X64195825Y-53098865D01*
X64638422Y-53564979D01*
X64967683Y-54113234D01*
X65169638Y-54721661D01*
X65229514Y-55214688D01*
X65242544Y-55406750D01*
X65287884Y-55531031D01*
X65398398Y-55629783D01*
X65606953Y-55745256D01*
X65665502Y-55775187D01*
X65991637Y-55953503D01*
X66305711Y-56154279D01*
X66633076Y-56397054D01*
X66999083Y-56701367D01*
X67429083Y-57086756D01*
X67728497Y-57365176D01*
X68096738Y-57708985D01*
X68376863Y-57962226D01*
X68591686Y-58140393D01*
X68764019Y-58258979D01*
X68916676Y-58333477D01*
X69072471Y-58379382D01*
X69254218Y-58412185D01*
X69274861Y-58415367D01*
X69743838Y-58548421D01*
X70108331Y-58780941D01*
X70357824Y-59100682D01*
X70481804Y-59495400D01*
X70486741Y-59826714D01*
X70397259Y-60257801D01*
X70205102Y-60679234D01*
X69896776Y-61114647D01*
X69510509Y-61536294D01*
X69033200Y-61979522D01*
X68547823Y-62350829D01*
X68006789Y-62682791D01*
X67362509Y-63007984D01*
X67356432Y-63010823D01*
X67070648Y-63145222D01*
X66842610Y-63254316D01*
X66704396Y-63322664D01*
X66678393Y-63337200D01*
X66675532Y-63417819D01*
X66689826Y-63614671D01*
X66718365Y-63891830D01*
X66734183Y-64025872D01*
X66773029Y-64447602D01*
X66768517Y-64725054D01*
X66738933Y-64836204D01*
X66618189Y-64941069D01*
X66398576Y-65044819D01*
X66133874Y-65130435D01*
X65877865Y-65180900D01*
X65684327Y-65179196D01*
X65668583Y-65174910D01*
X65475212Y-65052748D01*
X65396718Y-64873983D01*
X65430259Y-64680489D01*
X65572997Y-64514136D01*
X65718305Y-64441921D01*
X65877047Y-64381946D01*
X65947335Y-64307717D01*
X65953215Y-64168887D01*
X65930592Y-63997402D01*
X65895187Y-63780952D01*
X65864392Y-63638769D01*
X65854019Y-63611871D01*
X65771111Y-63608163D01*
X65587472Y-63630140D01*
X65460982Y-63651463D01*
X65092685Y-63719235D01*
X65092685Y-64140065D01*
X65082047Y-64392428D01*
X65054740Y-64587300D01*
X65031227Y-64655809D01*
X64913562Y-64739686D01*
X64697569Y-64825717D01*
X64437458Y-64899150D01*
X64187440Y-64945229D01*
X64001726Y-64949199D01*
X63975478Y-64943147D01*
X63813366Y-64820519D01*
X63725279Y-64616231D01*
X63730176Y-64435751D01*
X63820325Y-64319318D01*
X63992735Y-64214273D01*
X64006488Y-64208618D01*
X64190222Y-64134378D01*
X64267140Y-64087552D01*
X64271623Y-64035414D01*
X64249667Y-63977166D01*
X64205600Y-63935108D01*
X64097237Y-63906951D01*
X63903529Y-63891212D01*
X63603430Y-63886410D01*
X63175892Y-63891062D01*
X63058434Y-63893291D01*
X61908093Y-63916320D01*
X61908093Y-64447665D01*
X61904347Y-64729375D01*
X61883334Y-64899249D01*
X61830393Y-64998904D01*
X61730862Y-65069954D01*
X61679204Y-65097372D01*
X61452408Y-65184358D01*
X61176716Y-65251796D01*
X61111570Y-65262165D01*
X60892210Y-65281449D01*
X60763202Y-65248281D01*
X60664986Y-65143073D01*
X60640999Y-65107404D01*
X60556366Y-64953071D01*
X60564237Y-64836029D01*
X60631214Y-64719955D01*
X60779837Y-64573390D01*
X60927804Y-64508928D01*
X61064315Y-64445075D01*
X61122105Y-64279238D01*
X61124918Y-64253947D01*
X61102526Y-64008464D01*
X60968659Y-63842763D01*
X60708597Y-63742542D01*
X60574013Y-63718707D01*
X60199147Y-63665906D01*
X60236956Y-64059387D01*
X60230955Y-64404822D01*
X60124123Y-64647234D01*
X59899773Y-64808886D01*
X59607967Y-64898618D01*
X59295467Y-64945086D01*
X59090425Y-64916974D01*
X58961572Y-64805340D01*
X58909455Y-64698880D01*
X58884582Y-64462250D01*
X58996597Y-64280418D01*
X59221654Y-64177350D01*
X59381834Y-64120247D01*
X59444111Y-64008855D01*
X59452504Y-63869645D01*
X59404679Y-63625186D01*
X59281444Y-63444524D01*
X59113160Y-63371537D01*
X59107782Y-63371470D01*
X58953983Y-63336876D01*
X58700960Y-63243788D01*
X58383650Y-63108242D01*
X58036989Y-62946276D01*
X57695915Y-62773927D01*
X57395364Y-62607234D01*
X57257287Y-62522013D01*
X56783456Y-62170508D01*
X56428696Y-61801273D01*
X56159730Y-61378037D01*
X56105094Y-61266216D01*
X55954307Y-60768951D01*
X55945409Y-60605484D01*
X56857778Y-60605484D01*
X56932457Y-60917876D01*
X57103974Y-61195132D01*
X57385272Y-61481036D01*
X57929363Y-61884015D01*
X58603601Y-62237797D01*
X59390826Y-62536255D01*
X60273878Y-62773265D01*
X61235599Y-62942699D01*
X61601821Y-62986398D01*
X62101400Y-63019851D01*
X62690743Y-63029672D01*
X63319419Y-63017506D01*
X63936993Y-62984999D01*
X64493033Y-62933798D01*
X64862474Y-62879973D01*
X65781521Y-62664681D01*
X66648772Y-62367928D01*
X67445645Y-62000025D01*
X68153562Y-61571286D01*
X68753943Y-61092024D01*
X69228208Y-60572551D01*
X69361139Y-60382881D01*
X69508773Y-60089798D01*
X69576207Y-59811313D01*
X69558125Y-59586077D01*
X69485888Y-59475863D01*
X69357814Y-59421265D01*
X69138135Y-59368404D01*
X68998485Y-59345727D01*
X68773212Y-59303944D01*
X68563288Y-59233402D01*
X68346926Y-59119498D01*
X68102340Y-58947625D01*
X67807745Y-58703181D01*
X67441353Y-58371560D01*
X67180410Y-58126950D01*
X66637107Y-57626415D01*
X66171151Y-57227716D01*
X65761068Y-56915267D01*
X65385379Y-56673481D01*
X65022608Y-56486771D01*
X64783949Y-56387708D01*
X64645401Y-56356951D01*
X64551239Y-56419931D01*
X64475273Y-56548660D01*
X64218527Y-56925643D01*
X63867746Y-57280826D01*
X63478758Y-57559308D01*
X63409337Y-57596875D01*
X63121717Y-57718408D01*
X62805638Y-57791428D01*
X62399506Y-57830117D01*
X62395534Y-57830337D01*
X62059761Y-57842313D01*
X61816193Y-57827524D01*
X61604527Y-57776393D01*
X61364460Y-57679345D01*
X61321214Y-57659753D01*
X60846217Y-57382738D01*
X60444565Y-57030158D01*
X60154661Y-56636298D01*
X60136386Y-56601981D01*
X60058608Y-56460637D01*
X59983735Y-56383371D01*
X59882376Y-56372937D01*
X59725139Y-56432091D01*
X59482631Y-56563587D01*
X59276714Y-56682567D01*
X58732324Y-57062798D01*
X58222132Y-57540644D01*
X57765310Y-58088155D01*
X57381033Y-58677385D01*
X57088474Y-59280388D01*
X56906806Y-59869215D01*
X56858817Y-60206837D01*
X56857778Y-60605484D01*
X55945409Y-60605484D01*
X55923459Y-60202260D01*
X56008351Y-59586965D01*
X56204784Y-58943887D01*
X56508559Y-58293844D01*
X56799960Y-57820617D01*
X57001237Y-57526261D01*
X56757440Y-57248590D01*
X56407570Y-56737436D01*
X56174302Y-56147074D01*
X56072106Y-55541335D01*
X56975519Y-55541335D01*
X57095666Y-56065903D01*
X57179422Y-56261070D01*
X57344532Y-56540232D01*
X57544047Y-56798095D01*
X57671543Y-56923982D01*
X57840144Y-57059735D01*
X57951289Y-57143159D01*
X57973227Y-57155760D01*
X58038168Y-57111203D01*
X58192011Y-56993042D01*
X58404615Y-56824542D01*
X58460655Y-56779503D01*
X58763797Y-56552544D01*
X59098074Y-56328420D01*
X59372231Y-56166253D01*
X59816876Y-55929259D01*
X59845138Y-55390805D01*
X60258244Y-55390805D01*
X60264393Y-55732180D01*
X60290081Y-55972400D01*
X60346174Y-56163542D01*
X60443536Y-56357678D01*
X60469196Y-56401923D01*
X60793588Y-56827304D01*
X61200828Y-57163688D01*
X61559922Y-57345270D01*
X61950322Y-57428734D01*
X62405739Y-57432847D01*
X62862638Y-57362099D01*
X63247605Y-57225971D01*
X63668181Y-56934296D01*
X64000963Y-56539549D01*
X64231880Y-56073267D01*
X64346860Y-55566984D01*
X64331834Y-55052237D01*
X64294351Y-54879940D01*
X64087734Y-54373894D01*
X63781745Y-53964704D01*
X63398344Y-53655242D01*
X62959491Y-53448379D01*
X62487145Y-53346989D01*
X62003266Y-53353941D01*
X61529814Y-53472110D01*
X61088748Y-53704365D01*
X60702029Y-54053580D01*
X60469196Y-54379687D01*
X60362173Y-54580755D01*
X60298616Y-54768303D01*
X60267658Y-54994406D01*
X60258437Y-55311137D01*
X60258244Y-55390805D01*
X59845138Y-55390805D01*
X59850288Y-55292687D01*
X59879306Y-54929903D01*
X59932346Y-54655986D01*
X60025887Y-54406514D01*
X60128942Y-54203322D01*
X60258128Y-53957579D01*
X60308555Y-53798726D01*
X60265407Y-53688005D01*
X60113870Y-53586658D01*
X59844154Y-53458257D01*
X59468494Y-53345739D01*
X59026790Y-53305390D01*
X58588715Y-53338587D01*
X58267745Y-53427112D01*
X57786872Y-53704108D01*
X57408223Y-54077438D01*
X57140788Y-54523693D01*
X56993556Y-55019462D01*
X56975519Y-55541335D01*
X56072106Y-55541335D01*
X56066398Y-55507503D01*
X56081350Y-54934094D01*
X56226353Y-54311492D01*
X56494749Y-53756472D01*
X56867611Y-53279181D01*
X57250980Y-52953504D01*
X61601145Y-52953504D01*
X61654329Y-52990602D01*
X61782124Y-52956990D01*
X61936897Y-52874751D01*
X62071011Y-52765966D01*
X62109646Y-52717784D01*
X62414485Y-52330263D01*
X62831574Y-51912996D01*
X63330194Y-51492055D01*
X63879631Y-51093507D01*
X64410356Y-50765200D01*
X64875889Y-50502065D01*
X65082280Y-50828299D01*
X65487649Y-51334835D01*
X65990809Y-51748111D01*
X66565092Y-52056867D01*
X67183831Y-52249846D01*
X67820357Y-52315790D01*
X68439199Y-52245505D01*
X69032020Y-52040782D01*
X69588545Y-51722605D01*
X70079470Y-51315140D01*
X70475492Y-50842555D01*
X70739989Y-50347990D01*
X70880339Y-49845472D01*
X70947717Y-49279354D01*
X70938833Y-48713773D01*
X70850396Y-48212868D01*
X70849653Y-48210303D01*
X70596797Y-47584247D01*
X70242267Y-47055998D01*
X69803916Y-46627096D01*
X69299600Y-46299083D01*
X68747174Y-46073500D01*
X68164492Y-45951887D01*
X67569408Y-45935787D01*
X66979778Y-46026739D01*
X66413457Y-46226285D01*
X65888298Y-46535966D01*
X65422158Y-46957323D01*
X65032889Y-47491897D01*
X64921741Y-47698667D01*
X64788541Y-47976780D01*
X64704039Y-48193479D01*
X64657194Y-48400531D01*
X64636962Y-48649704D01*
X64632301Y-48992765D01*
X64632262Y-49055739D01*
X64638538Y-49407816D01*
X64655402Y-49721889D01*
X64679910Y-49953126D01*
X64696318Y-50031153D01*
X64723307Y-50187381D01*
X64656098Y-50264897D01*
X64604142Y-50284531D01*
X64422233Y-50369376D01*
X64152957Y-50528349D01*
X63828608Y-50739473D01*
X63481479Y-50980769D01*
X63143861Y-51230260D01*
X62848047Y-51465968D01*
X62769370Y-51533250D01*
X62566064Y-51727752D01*
X62335427Y-51974338D01*
X62101411Y-52243890D01*
X61887967Y-52507290D01*
X61719044Y-52735419D01*
X61618595Y-52899161D01*
X61601145Y-52953504D01*
X57250980Y-52953504D01*
X57326013Y-52889762D01*
X57851026Y-52598362D01*
X58423723Y-52415125D01*
X59025177Y-52350198D01*
X59636460Y-52413725D01*
X60238645Y-52615851D01*
X60326657Y-52658568D01*
X60671308Y-52833053D01*
X61056929Y-52251053D01*
X61648167Y-51481763D01*
X62349958Y-50777427D01*
X63122042Y-50177409D01*
X63289362Y-50068331D01*
X63634679Y-49850705D01*
X63636681Y-49071661D01*
X63648272Y-48626050D01*
X63685734Y-48274741D01*
X63757045Y-47959610D01*
X63814075Y-47779212D01*
X64138494Y-47055131D01*
X64578993Y-46420412D01*
X65120662Y-45885762D01*
X65748593Y-45461889D01*
X66447875Y-45159503D01*
X67203601Y-44989311D01*
X67746814Y-44954551D01*
X68510660Y-45026450D01*
G37*
G36*
X61903838Y-54180003D02*
G01*
X62137345Y-54297075D01*
X62320286Y-54514246D01*
X62421066Y-54829609D01*
X62421209Y-54830667D01*
X62397425Y-55132755D01*
X62261325Y-55381120D01*
X62045076Y-55552836D01*
X61780846Y-55624981D01*
X61500800Y-55574630D01*
X61428484Y-55538132D01*
X61248472Y-55358417D01*
X61125054Y-55096518D01*
X61087275Y-54821232D01*
X61096067Y-54750785D01*
X61215879Y-54448419D01*
X61411509Y-54253770D01*
X61651360Y-54164933D01*
X61903838Y-54180003D01*
G37*
G36*
X58831690Y-54149846D02*
G01*
X58923389Y-54224581D01*
X59081644Y-54393822D01*
X59148958Y-54569777D01*
X59159422Y-54780926D01*
X59133678Y-55030255D01*
X59042115Y-55207903D01*
X58918744Y-55333252D01*
X58651302Y-55505040D01*
X58396620Y-55524861D01*
X58144941Y-55392566D01*
X58065332Y-55319971D01*
X57903978Y-55112638D01*
X57844523Y-54880627D01*
X57841024Y-54776908D01*
X57873379Y-54515260D01*
X57994807Y-54309342D01*
X58065332Y-54233845D01*
X58317195Y-54054228D01*
X58569037Y-54026268D01*
X58831690Y-54149846D01*
G37*
D10*
%TO.C,C1*%
X28475000Y-51315000D02*
X28475000Y-56555000D01*
X28790000Y-51315000D02*
X28475000Y-51315000D01*
X28790000Y-56555000D02*
X28475000Y-56555000D01*
X31215000Y-51315000D02*
X30900000Y-51315000D01*
X31215000Y-51315000D02*
X31215000Y-56555000D01*
X31215000Y-56555000D02*
X30900000Y-56555000D01*
%TO.C,SW1*%
X71378000Y-30964000D02*
X71378000Y-32464000D01*
X72628000Y-34964000D02*
X77128000Y-34964000D01*
X77128000Y-28464000D02*
X72628000Y-28464000D01*
X78378000Y-32464000D02*
X78378000Y-30964000D01*
%TO.C,RN1*%
X76705000Y-41994000D02*
X76705000Y-65194000D01*
X76705000Y-65194000D02*
X79505000Y-65194000D01*
X79505000Y-41994000D02*
X76705000Y-41994000D01*
X79505000Y-44704000D02*
X76705000Y-44704000D01*
X79505000Y-65194000D02*
X79505000Y-41994000D01*
%TO.C,D1*%
X73175000Y-45124000D02*
X73175000Y-49364000D01*
X73175000Y-49364000D02*
X75415000Y-49364000D01*
X74295000Y-44474000D02*
X74295000Y-45124000D01*
X74295000Y-50014000D02*
X74295000Y-49364000D01*
X75415000Y-45124000D02*
X73175000Y-45124000D01*
X75415000Y-45724000D02*
X73175000Y-45724000D01*
X75415000Y-45844000D02*
X73175000Y-45844000D01*
X75415000Y-45964000D02*
X73175000Y-45964000D01*
X75415000Y-49364000D02*
X75415000Y-45124000D01*
%TO.C,D2*%
X73175000Y-57951000D02*
X73175000Y-62191000D01*
X73175000Y-62191000D02*
X75415000Y-62191000D01*
X74295000Y-57301000D02*
X74295000Y-57951000D01*
X74295000Y-62841000D02*
X74295000Y-62191000D01*
X75415000Y-57951000D02*
X73175000Y-57951000D01*
X75415000Y-58551000D02*
X73175000Y-58551000D01*
X75415000Y-58671000D02*
X73175000Y-58671000D01*
X75415000Y-58791000D02*
X73175000Y-58791000D01*
X75415000Y-62191000D02*
X75415000Y-57951000D01*
%TO.C,J1*%
X50994000Y-28134000D02*
X50994000Y-33334000D01*
X56134000Y-28134000D02*
X50994000Y-28134000D01*
X56134000Y-28134000D02*
X56134000Y-30734000D01*
X56134000Y-30734000D02*
X58734000Y-30734000D01*
X57404000Y-28134000D02*
X58734000Y-28134000D01*
X58734000Y-28134000D02*
X58734000Y-29464000D01*
X58734000Y-30734000D02*
X58734000Y-33334000D01*
X58734000Y-33334000D02*
X50994000Y-33334000D01*
%TO.C,J2*%
X60900000Y-28134000D02*
X60900000Y-30794000D01*
X66040000Y-28134000D02*
X60900000Y-28134000D01*
X66040000Y-28134000D02*
X66040000Y-30794000D01*
X66040000Y-30794000D02*
X60900000Y-30794000D01*
X67310000Y-28134000D02*
X68640000Y-28134000D01*
X68640000Y-28134000D02*
X68640000Y-29464000D01*
%TO.C,SW2*%
X24772000Y-38210000D02*
X24772000Y-36826000D01*
X24772000Y-38210000D02*
X26155000Y-38210000D01*
X25012000Y-28070000D02*
X47633000Y-28070000D01*
X25012000Y-37970000D02*
X25012000Y-28070000D01*
X25012000Y-37970000D02*
X47633000Y-37970000D01*
X26797000Y-30990000D02*
X26797000Y-35050000D01*
X26797000Y-33696667D02*
X28067000Y-33696667D01*
X26797000Y-35050000D02*
X28067000Y-35050000D01*
X26917000Y-35050000D02*
X26917000Y-33696667D01*
X27037000Y-35050000D02*
X27037000Y-33696667D01*
X27157000Y-35050000D02*
X27157000Y-33696667D01*
X27277000Y-35050000D02*
X27277000Y-33696667D01*
X27397000Y-35050000D02*
X27397000Y-33696667D01*
X27517000Y-35050000D02*
X27517000Y-33696667D01*
X27637000Y-35050000D02*
X27637000Y-33696667D01*
X27757000Y-35050000D02*
X27757000Y-33696667D01*
X27877000Y-35050000D02*
X27877000Y-33696667D01*
X27997000Y-35050000D02*
X27997000Y-33696667D01*
X28067000Y-30990000D02*
X26797000Y-30990000D01*
X28067000Y-35050000D02*
X28067000Y-30990000D01*
X29337000Y-30990000D02*
X29337000Y-35050000D01*
X29337000Y-33696667D02*
X30607000Y-33696667D01*
X29337000Y-35050000D02*
X30607000Y-35050000D01*
X29457000Y-35050000D02*
X29457000Y-33696667D01*
X29577000Y-35050000D02*
X29577000Y-33696667D01*
X29697000Y-35050000D02*
X29697000Y-33696667D01*
X29817000Y-35050000D02*
X29817000Y-33696667D01*
X29937000Y-35050000D02*
X29937000Y-33696667D01*
X30057000Y-35050000D02*
X30057000Y-33696667D01*
X30177000Y-35050000D02*
X30177000Y-33696667D01*
X30297000Y-35050000D02*
X30297000Y-33696667D01*
X30417000Y-35050000D02*
X30417000Y-33696667D01*
X30537000Y-35050000D02*
X30537000Y-33696667D01*
X30607000Y-30990000D02*
X29337000Y-30990000D01*
X30607000Y-35050000D02*
X30607000Y-30990000D01*
X31877000Y-30990000D02*
X31877000Y-35050000D01*
X31877000Y-33696667D02*
X33147000Y-33696667D01*
X31877000Y-35050000D02*
X33147000Y-35050000D01*
X31997000Y-35050000D02*
X31997000Y-33696667D01*
X32117000Y-35050000D02*
X32117000Y-33696667D01*
X32237000Y-35050000D02*
X32237000Y-33696667D01*
X32357000Y-35050000D02*
X32357000Y-33696667D01*
X32477000Y-35050000D02*
X32477000Y-33696667D01*
X32597000Y-35050000D02*
X32597000Y-33696667D01*
X32717000Y-35050000D02*
X32717000Y-33696667D01*
X32837000Y-35050000D02*
X32837000Y-33696667D01*
X32957000Y-35050000D02*
X32957000Y-33696667D01*
X33077000Y-35050000D02*
X33077000Y-33696667D01*
X33147000Y-30990000D02*
X31877000Y-30990000D01*
X33147000Y-35050000D02*
X33147000Y-30990000D01*
X34417000Y-30990000D02*
X34417000Y-35050000D01*
X34417000Y-33696667D02*
X35687000Y-33696667D01*
X34417000Y-35050000D02*
X35687000Y-35050000D01*
X34537000Y-35050000D02*
X34537000Y-33696667D01*
X34657000Y-35050000D02*
X34657000Y-33696667D01*
X34777000Y-35050000D02*
X34777000Y-33696667D01*
X34897000Y-35050000D02*
X34897000Y-33696667D01*
X35017000Y-35050000D02*
X35017000Y-33696667D01*
X35137000Y-35050000D02*
X35137000Y-33696667D01*
X35257000Y-35050000D02*
X35257000Y-33696667D01*
X35377000Y-35050000D02*
X35377000Y-33696667D01*
X35497000Y-35050000D02*
X35497000Y-33696667D01*
X35617000Y-35050000D02*
X35617000Y-33696667D01*
X35687000Y-30990000D02*
X34417000Y-30990000D01*
X35687000Y-35050000D02*
X35687000Y-30990000D01*
X36957000Y-30990000D02*
X36957000Y-35050000D01*
X36957000Y-33696667D02*
X38227000Y-33696667D01*
X36957000Y-35050000D02*
X38227000Y-35050000D01*
X37077000Y-35050000D02*
X37077000Y-33696667D01*
X37197000Y-35050000D02*
X37197000Y-33696667D01*
X37317000Y-35050000D02*
X37317000Y-33696667D01*
X37437000Y-35050000D02*
X37437000Y-33696667D01*
X37557000Y-35050000D02*
X37557000Y-33696667D01*
X37677000Y-35050000D02*
X37677000Y-33696667D01*
X37797000Y-35050000D02*
X37797000Y-33696667D01*
X37917000Y-35050000D02*
X37917000Y-33696667D01*
X38037000Y-35050000D02*
X38037000Y-33696667D01*
X38157000Y-35050000D02*
X38157000Y-33696667D01*
X38227000Y-30990000D02*
X36957000Y-30990000D01*
X38227000Y-35050000D02*
X38227000Y-30990000D01*
X39497000Y-30990000D02*
X39497000Y-35050000D01*
X39497000Y-33696667D02*
X40767000Y-33696667D01*
X39497000Y-35050000D02*
X40767000Y-35050000D01*
X39617000Y-35050000D02*
X39617000Y-33696667D01*
X39737000Y-35050000D02*
X39737000Y-33696667D01*
X39857000Y-35050000D02*
X39857000Y-33696667D01*
X39977000Y-35050000D02*
X39977000Y-33696667D01*
X40097000Y-35050000D02*
X40097000Y-33696667D01*
X40217000Y-35050000D02*
X40217000Y-33696667D01*
X40337000Y-35050000D02*
X40337000Y-33696667D01*
X40457000Y-35050000D02*
X40457000Y-33696667D01*
X40577000Y-35050000D02*
X40577000Y-33696667D01*
X40697000Y-35050000D02*
X40697000Y-33696667D01*
X40767000Y-30990000D02*
X39497000Y-30990000D01*
X40767000Y-35050000D02*
X40767000Y-30990000D01*
X42037000Y-30990000D02*
X42037000Y-35050000D01*
X42037000Y-33696667D02*
X43307000Y-33696667D01*
X42037000Y-35050000D02*
X43307000Y-35050000D01*
X42157000Y-35050000D02*
X42157000Y-33696667D01*
X42277000Y-35050000D02*
X42277000Y-33696667D01*
X42397000Y-35050000D02*
X42397000Y-33696667D01*
X42517000Y-35050000D02*
X42517000Y-33696667D01*
X42637000Y-35050000D02*
X42637000Y-33696667D01*
X42757000Y-35050000D02*
X42757000Y-33696667D01*
X42877000Y-35050000D02*
X42877000Y-33696667D01*
X42997000Y-35050000D02*
X42997000Y-33696667D01*
X43117000Y-35050000D02*
X43117000Y-33696667D01*
X43237000Y-35050000D02*
X43237000Y-33696667D01*
X43307000Y-30990000D02*
X42037000Y-30990000D01*
X43307000Y-35050000D02*
X43307000Y-30990000D01*
X44577000Y-30990000D02*
X44577000Y-35050000D01*
X44577000Y-33696667D02*
X45847000Y-33696667D01*
X44577000Y-35050000D02*
X45847000Y-35050000D01*
X44697000Y-35050000D02*
X44697000Y-33696667D01*
X44817000Y-35050000D02*
X44817000Y-33696667D01*
X44937000Y-35050000D02*
X44937000Y-33696667D01*
X45057000Y-35050000D02*
X45057000Y-33696667D01*
X45177000Y-35050000D02*
X45177000Y-33696667D01*
X45297000Y-35050000D02*
X45297000Y-33696667D01*
X45417000Y-35050000D02*
X45417000Y-33696667D01*
X45537000Y-35050000D02*
X45537000Y-33696667D01*
X45657000Y-35050000D02*
X45657000Y-33696667D01*
X45777000Y-35050000D02*
X45777000Y-33696667D01*
X45847000Y-30990000D02*
X44577000Y-30990000D01*
X45847000Y-35050000D02*
X45847000Y-30990000D01*
X47633000Y-37970000D02*
X47633000Y-28070000D01*
%TO.C,U2*%
X32785000Y-45210000D02*
X32785000Y-65010000D01*
X32785000Y-65010000D02*
X51035000Y-65010000D01*
X33785000Y-44210000D02*
X32785000Y-45210000D01*
X40910000Y-44210000D02*
X33785000Y-44210000D01*
X51035000Y-44210000D02*
X42910000Y-44210000D01*
X51035000Y-65010000D02*
X51035000Y-44210000D01*
%TD*%
M02*
