%TF.GenerationSoftware,KiCad,Pcbnew,8.0.2*%
%TF.CreationDate,2024-08-26T19:14:41+02:00*%
%TF.ProjectId,c64-megacart,6336342d-6d65-4676-9163-6172742e6b69,rev?*%
%TF.SameCoordinates,Original*%
%TF.FileFunction,Copper,L1,Top*%
%TF.FilePolarity,Positive*%
%FSLAX46Y46*%
G04 Gerber Fmt 4.6, Leading zero omitted, Abs format (unit mm)*
G04 Created by KiCad (PCBNEW 8.0.2) date 2024-08-26 19:14:41*
%MOMM*%
%LPD*%
G01*
G04 APERTURE LIST*
%TA.AperFunction,ComponentPad*%
%ADD10C,1.600000*%
%TD*%
%TA.AperFunction,ComponentPad*%
%ADD11C,2.000000*%
%TD*%
%TA.AperFunction,SMDPad,CuDef*%
%ADD12R,1.524000X8.000000*%
%TD*%
%TA.AperFunction,ComponentPad*%
%ADD13R,1.600000X1.600000*%
%TD*%
%TA.AperFunction,ComponentPad*%
%ADD14O,1.600000X1.600000*%
%TD*%
%TA.AperFunction,ComponentPad*%
%ADD15R,1.700000X1.700000*%
%TD*%
%TA.AperFunction,ComponentPad*%
%ADD16O,1.700000X1.700000*%
%TD*%
%TA.AperFunction,ComponentPad*%
%ADD17R,1.422400X1.422400*%
%TD*%
%TA.AperFunction,ComponentPad*%
%ADD18C,1.422400*%
%TD*%
%TA.AperFunction,ViaPad*%
%ADD19C,0.800000*%
%TD*%
%TA.AperFunction,Conductor*%
%ADD20C,0.250000*%
%TD*%
G04 APERTURE END LIST*
D10*
%TO.P,C1,1*%
%TO.N,+5V*%
X29845000Y-51435000D03*
%TO.P,C1,2*%
%TO.N,GND*%
X29845000Y-56435000D03*
%TD*%
D11*
%TO.P,SW1,1*%
%TO.N,GND*%
X71628000Y-29464000D03*
X78128000Y-29464000D03*
%TO.P,SW1,2*%
%TO.N,~{RES}*%
X71628000Y-33964000D03*
X78128000Y-33964000D03*
%TD*%
D12*
%TO.P,U1,1*%
%TO.N,GND*%
X25654000Y-72769726D03*
%TO.P,U1,2*%
%TO.N,+5V*%
X28194000Y-72769726D03*
%TO.P,U1,3*%
X30734000Y-72769726D03*
%TO.P,U1,4*%
%TO.N,Net-(U1-Pad4)*%
X33274000Y-72769726D03*
%TO.P,U1,5*%
%TO.N,Net-(U1-Pad5)*%
X35814000Y-72769726D03*
%TO.P,U1,6*%
%TO.N,Net-(U1-Pad6)*%
X38354000Y-72769726D03*
%TO.P,U1,7*%
%TO.N,Net-(U1-Pad7)*%
X40894000Y-72769726D03*
%TO.P,U1,8*%
%TO.N,~{GAME}*%
X43434000Y-72769726D03*
%TO.P,U1,9*%
%TO.N,~{EXROM}*%
X45974000Y-72769726D03*
%TO.P,U1,10*%
%TO.N,Net-(U1-Pad10)*%
X48514000Y-72769726D03*
%TO.P,U1,11*%
%TO.N,~{ROML}*%
X51054000Y-72769726D03*
%TO.P,U1,12*%
%TO.N,Net-(U1-Pad12)*%
X53594000Y-72769726D03*
%TO.P,U1,13*%
%TO.N,Net-(U1-Pad13)*%
X56134000Y-72769726D03*
%TO.P,U1,14*%
%TO.N,D7*%
X58674000Y-72769726D03*
%TO.P,U1,15*%
%TO.N,D6*%
X61214000Y-72769726D03*
%TO.P,U1,16*%
%TO.N,D5*%
X63754000Y-72769726D03*
%TO.P,U1,17*%
%TO.N,D4*%
X66294000Y-72769726D03*
%TO.P,U1,18*%
%TO.N,D3*%
X68834000Y-72769726D03*
%TO.P,U1,19*%
%TO.N,D2*%
X71374000Y-72769726D03*
%TO.P,U1,20*%
%TO.N,D1*%
X73914000Y-72769726D03*
%TO.P,U1,21*%
%TO.N,D0*%
X76454000Y-72769726D03*
%TO.P,U1,22*%
%TO.N,GND*%
X78994000Y-72769726D03*
%TD*%
D13*
%TO.P,RN1,1*%
%TO.N,+5V*%
X78105000Y-43434000D03*
D14*
%TO.P,RN1,2*%
%TO.N,~{OE}*%
X78105000Y-45974000D03*
%TO.P,RN1,3*%
%TO.N,Net-(RN1-Pad3)*%
X78105000Y-48514000D03*
%TO.P,RN1,4*%
%TO.N,A18*%
X78105000Y-51054000D03*
%TO.P,RN1,5*%
%TO.N,A17*%
X78105000Y-53594000D03*
%TO.P,RN1,6*%
%TO.N,A16*%
X78105000Y-56134000D03*
%TO.P,RN1,7*%
%TO.N,A15*%
X78105000Y-58674000D03*
%TO.P,RN1,8*%
%TO.N,A14*%
X78105000Y-61214000D03*
%TO.P,RN1,9*%
%TO.N,A13*%
X78105000Y-63754000D03*
%TD*%
D13*
%TO.P,D1,1*%
%TO.N,~{ROML}*%
X74295000Y-43434000D03*
D14*
%TO.P,D1,2*%
%TO.N,~{OE}*%
X74295000Y-51054000D03*
%TD*%
D13*
%TO.P,D2,1*%
%TO.N,~{ROMH}*%
X74295000Y-56261000D03*
D14*
%TO.P,D2,2*%
%TO.N,~{OE}*%
X74295000Y-63881000D03*
%TD*%
D15*
%TO.P,J1,1*%
%TO.N,~{OE}*%
X57404000Y-29464000D03*
D16*
%TO.P,J1,2*%
X57404000Y-32004000D03*
%TO.P,J1,3*%
%TO.N,~{ROML}*%
X54864000Y-29464000D03*
%TO.P,J1,4*%
%TO.N,~{OE}*%
X54864000Y-32004000D03*
%TO.P,J1,5*%
%TO.N,~{ROMH}*%
X52324000Y-29464000D03*
%TO.P,J1,6*%
%TO.N,~{OE}*%
X52324000Y-32004000D03*
%TD*%
D15*
%TO.P,J2,1*%
%TO.N,Net-(J2-Pad1)*%
X67310000Y-29464000D03*
D16*
%TO.P,J2,2*%
%TO.N,A13*%
X64770000Y-29464000D03*
%TO.P,J2,3*%
%TO.N,~{ROML}*%
X62230000Y-29464000D03*
%TD*%
D13*
%TO.P,SW2,1*%
%TO.N,~{GAME}*%
X27432000Y-36830000D03*
D14*
%TO.P,SW2,2*%
%TO.N,~{EXROM}*%
X29972000Y-36830000D03*
%TO.P,SW2,3*%
%TO.N,A18*%
X32512000Y-36830000D03*
%TO.P,SW2,4*%
%TO.N,A17*%
X35052000Y-36830000D03*
%TO.P,SW2,5*%
%TO.N,A16*%
X37592000Y-36830000D03*
%TO.P,SW2,6*%
%TO.N,A15*%
X40132000Y-36830000D03*
%TO.P,SW2,7*%
%TO.N,A14*%
X42672000Y-36830000D03*
%TO.P,SW2,8*%
%TO.N,Net-(J2-Pad1)*%
X45212000Y-36830000D03*
%TO.P,SW2,9*%
%TO.N,GND*%
X45212000Y-29210000D03*
%TO.P,SW2,10*%
X42672000Y-29210000D03*
%TO.P,SW2,11*%
X40132000Y-29210000D03*
%TO.P,SW2,12*%
X37592000Y-29210000D03*
%TO.P,SW2,13*%
X35052000Y-29210000D03*
%TO.P,SW2,14*%
X32512000Y-29210000D03*
%TO.P,SW2,15*%
X29972000Y-29210000D03*
%TO.P,SW2,16*%
X27432000Y-29210000D03*
%TD*%
D17*
%TO.P,U2,1*%
%TO.N,A18*%
X43180000Y-49530000D03*
D18*
%TO.P,U2,2*%
%TO.N,A16*%
X40640000Y-46990000D03*
%TO.P,U2,3*%
%TO.N,A15*%
X40640000Y-49530000D03*
%TO.P,U2,4*%
%TO.N,Net-(U1-PadK)*%
X38100000Y-46990000D03*
%TO.P,U2,5*%
%TO.N,Net-(U1-PadR)*%
X35560000Y-49530000D03*
%TO.P,U2,6*%
%TO.N,Net-(U1-PadS)*%
X38100000Y-49530000D03*
%TO.P,U2,7*%
%TO.N,Net-(U1-PadT)*%
X35560000Y-52070000D03*
%TO.P,U2,8*%
%TO.N,Net-(U1-PadU)*%
X38100000Y-52070000D03*
%TO.P,U2,9*%
%TO.N,Net-(U1-PadV)*%
X35560000Y-54610000D03*
%TO.P,U2,10*%
%TO.N,Net-(U1-PadW)*%
X38100000Y-54610000D03*
%TO.P,U2,11*%
%TO.N,Net-(U1-PadX)*%
X35560000Y-57150000D03*
%TO.P,U2,12*%
%TO.N,Net-(U1-PadY)*%
X38100000Y-57150000D03*
%TO.P,U2,13*%
%TO.N,D0*%
X35560000Y-59690000D03*
%TO.P,U2,14*%
%TO.N,D1*%
X38100000Y-62230000D03*
%TO.P,U2,15*%
%TO.N,D2*%
X38100000Y-59690000D03*
%TO.P,U2,16*%
%TO.N,GND*%
X40640000Y-62230000D03*
%TO.P,U2,17*%
%TO.N,D3*%
X40640000Y-59690000D03*
%TO.P,U2,18*%
%TO.N,D4*%
X43180000Y-62230000D03*
%TO.P,U2,19*%
%TO.N,D5*%
X43180000Y-59690000D03*
%TO.P,U2,20*%
%TO.N,D6*%
X45720000Y-62230000D03*
%TO.P,U2,21*%
%TO.N,D7*%
X48260000Y-59690000D03*
%TO.P,U2,22*%
%TO.N,GND*%
X45720000Y-59690000D03*
%TO.P,U2,23*%
%TO.N,Net-(U1-PadM)*%
X48260000Y-57150000D03*
%TO.P,U2,24*%
%TO.N,~{OE}*%
X45720000Y-57150000D03*
%TO.P,U2,25*%
%TO.N,Net-(U1-PadL)*%
X48260000Y-54610000D03*
%TO.P,U2,26*%
%TO.N,Net-(U1-PadN)*%
X45720000Y-54610000D03*
%TO.P,U2,27*%
%TO.N,Net-(U1-PadP)*%
X48260000Y-52070000D03*
%TO.P,U2,28*%
%TO.N,A13*%
X45720000Y-52070000D03*
%TO.P,U2,29*%
%TO.N,A14*%
X48260000Y-49530000D03*
%TO.P,U2,30*%
%TO.N,A17*%
X45720000Y-46990000D03*
%TO.P,U2,31*%
%TO.N,+5V*%
X45720000Y-49530000D03*
%TO.P,U2,32*%
X43180000Y-46990000D03*
%TD*%
D19*
%TO.N,GND*%
X79625000Y-66301300D03*
%TO.N,+5V*%
X26670000Y-66040000D03*
%TO.N,Net-(U1-PadU)*%
X54669500Y-54776500D03*
%TO.N,Net-(U1-PadV)*%
X42112100Y-46195300D03*
X49377500Y-46445700D03*
%TO.N,Net-(U1-PadW)*%
X31152600Y-43649800D03*
%TO.N,Net-(U1-PadX)*%
X28538500Y-50293400D03*
%TO.N,Net-(U1-PadY)*%
X63103900Y-55369200D03*
%TO.N,Net-(U1-PadR)*%
X50128700Y-53123200D03*
%TO.N,~{RES}*%
X41442100Y-44799700D03*
%TO.N,~{GAME}*%
X38708000Y-60947300D03*
X43088900Y-66698200D03*
%TO.N,~{EXROM}*%
X42143400Y-51758100D03*
X45417500Y-66677300D03*
%TO.N,~{ROML}*%
X55194200Y-66679800D03*
X55194200Y-61144000D03*
%TO.N,D7*%
X50386100Y-66446300D03*
%TO.N,D5*%
X47631800Y-63813700D03*
%TO.N,D1*%
X39116000Y-65457600D03*
X53892300Y-65457600D03*
X54098600Y-61800600D03*
%TO.N,D0*%
X27555400Y-48630800D03*
X75908200Y-66275700D03*
%TO.N,~{ROMH}*%
X32713000Y-44562300D03*
%TD*%
D20*
%TO.N,GND*%
X42672000Y-29210000D02*
X40132000Y-29210000D01*
X44216200Y-61193800D02*
X45720000Y-59690000D01*
X24765000Y-64770000D02*
X25654000Y-65659000D01*
X40640000Y-62230000D02*
X41676200Y-61193800D01*
X78359000Y-29464000D02*
X78128000Y-29464000D01*
X29845000Y-60960000D02*
X34290000Y-65405000D01*
X24765000Y-30480000D02*
X24765000Y-54610000D01*
X24765000Y-54610000D02*
X24765000Y-55245000D01*
X79625100Y-66301300D02*
X80321900Y-66998100D01*
X71628000Y-29464000D02*
X69469000Y-27305000D01*
X24765000Y-55245000D02*
X24765000Y-64770000D01*
X37592000Y-29210000D02*
X35052000Y-29210000D01*
X34290000Y-65405000D02*
X37465000Y-65405000D01*
X25955000Y-56435000D02*
X29845000Y-56435000D01*
X29845000Y-56435000D02*
X29845000Y-60960000D01*
X37465000Y-65405000D02*
X40640000Y-62230000D01*
X24765000Y-55245000D02*
X25955000Y-56435000D01*
X45212000Y-29210000D02*
X42672000Y-29210000D01*
X69469000Y-27305000D02*
X47117000Y-27305000D01*
X41676200Y-61193800D02*
X44216200Y-61193800D01*
X80645000Y-31750000D02*
X78359000Y-29464000D01*
X25654000Y-65659000D02*
X25654000Y-72769700D01*
X32512000Y-29210000D02*
X29972000Y-29210000D01*
X29972000Y-29210000D02*
X27432000Y-29210000D01*
X80645000Y-66675000D02*
X80645000Y-31750000D01*
X78994000Y-68326000D02*
X80321900Y-66998100D01*
X47117000Y-27305000D02*
X45212000Y-29210000D01*
X78994000Y-72769700D02*
X78994000Y-68326000D01*
X26035000Y-29210000D02*
X24765000Y-30480000D01*
X24765000Y-54610000D02*
X24765000Y-55245000D01*
X78128000Y-29464000D02*
X71628000Y-29464000D01*
X79625000Y-66301300D02*
X79625100Y-66301300D01*
X40132000Y-29210000D02*
X37592000Y-29210000D01*
X35052000Y-29210000D02*
X32512000Y-29210000D01*
X27432000Y-29210000D02*
X26035000Y-29210000D01*
X80321900Y-66998100D02*
X80645000Y-66675000D01*
%TO.N,+5V*%
X30734000Y-66929000D02*
X29845000Y-66040000D01*
X28194000Y-67564000D02*
X26670000Y-66040000D01*
X30734000Y-72769700D02*
X30734000Y-66929000D01*
X28194000Y-72769700D02*
X28194000Y-67564000D01*
X29845000Y-66040000D02*
X26670000Y-66040000D01*
%TO.N,A13*%
X76979700Y-63754000D02*
X64252300Y-51026600D01*
X64252300Y-51026600D02*
X46763400Y-51026600D01*
X46763400Y-51026600D02*
X45720000Y-52070000D01*
X78105000Y-63754000D02*
X76979700Y-63754000D01*
%TO.N,A14*%
X76328200Y-61214000D02*
X64644200Y-49530000D01*
X78105000Y-61214000D02*
X76328200Y-61214000D01*
X64644200Y-49530000D02*
X48260000Y-49530000D01*
%TO.N,A15*%
X31359400Y-36389800D02*
X31359400Y-38773300D01*
X46990000Y-49748600D02*
X46162400Y-50576200D01*
X39006700Y-36548700D02*
X38111900Y-35653900D01*
X77667400Y-57548700D02*
X68612100Y-48493400D01*
X39006700Y-36830000D02*
X39006700Y-36548700D01*
X46162400Y-50576200D02*
X41686200Y-50576200D01*
X47830700Y-48493400D02*
X46990000Y-49334100D01*
X78105000Y-58674000D02*
X78105000Y-57548700D01*
X78105000Y-57548700D02*
X77667400Y-57548700D01*
X39144700Y-48034700D02*
X40640000Y-49530000D01*
X38111900Y-35653900D02*
X32095300Y-35653900D01*
X32095300Y-35653900D02*
X31359400Y-36389800D01*
X31359400Y-38773300D02*
X39144700Y-46558600D01*
X39144700Y-46558600D02*
X39144700Y-48034700D01*
X68612100Y-48493400D02*
X47830700Y-48493400D01*
X46990000Y-49334100D02*
X46990000Y-49748600D01*
X41686200Y-50576200D02*
X40640000Y-49530000D01*
X40132000Y-36830000D02*
X39006700Y-36830000D01*
%TO.N,A16*%
X78386300Y-55008700D02*
X79744200Y-53650800D01*
X79744200Y-48511800D02*
X78621000Y-47388600D01*
X77928000Y-47388600D02*
X75996200Y-45456800D01*
X78621000Y-47388600D02*
X77928000Y-47388600D01*
X41738500Y-45543100D02*
X40640000Y-45543100D01*
X37592000Y-37955300D02*
X40640000Y-41003300D01*
X37592000Y-36830000D02*
X37592000Y-37955300D01*
X78105000Y-55008700D02*
X78386300Y-55008700D01*
X40640000Y-41003300D02*
X40640000Y-45543100D01*
X79744200Y-53650800D02*
X79744200Y-48511800D01*
X40640000Y-45543100D02*
X40640000Y-46990000D01*
X41824800Y-45456800D02*
X41738500Y-45543100D01*
X75996200Y-45456800D02*
X41824800Y-45456800D01*
X78105000Y-56134000D02*
X78105000Y-55008700D01*
%TO.N,A17*%
X78386300Y-52468700D02*
X78105000Y-52468700D01*
X78105000Y-53594000D02*
X78105000Y-52468700D01*
X45720000Y-46990000D02*
X45901000Y-47171000D01*
X79233700Y-50535800D02*
X79233700Y-51621300D01*
X74740000Y-47171000D02*
X77353000Y-49784000D01*
X45901000Y-47171000D02*
X74740000Y-47171000D01*
X79233700Y-51621300D02*
X78386300Y-52468700D01*
X77353000Y-49784000D02*
X78481900Y-49784000D01*
X78481900Y-49784000D02*
X79233700Y-50535800D01*
%TO.N,Net-(U1-PadU)*%
X39603500Y-53573500D02*
X38100000Y-52070000D01*
X50324600Y-54776500D02*
X49121600Y-53573500D01*
X49121600Y-53573500D02*
X39603500Y-53573500D01*
X54669500Y-54776500D02*
X50324600Y-54776500D01*
%TO.N,Net-(U1-PadV)*%
X49377500Y-46445700D02*
X48885300Y-45953500D01*
X48885300Y-45953500D02*
X42353900Y-45953500D01*
X42353900Y-45953500D02*
X42112100Y-46195300D01*
%TO.N,Net-(U1-PadW)*%
X38100000Y-54610000D02*
X36830000Y-53340000D01*
X31152600Y-46624900D02*
X31152600Y-43649800D01*
X36830000Y-51819700D02*
X35810100Y-50799800D01*
X35327500Y-50799800D02*
X31152600Y-46624900D01*
X36830000Y-53340000D02*
X36830000Y-51819700D01*
X35810100Y-50799800D02*
X35327500Y-50799800D01*
%TO.N,Net-(U1-PadX)*%
X28538500Y-51719900D02*
X33968600Y-57150000D01*
X28538500Y-50293400D02*
X28538500Y-51719900D01*
X33968600Y-57150000D02*
X35560000Y-57150000D01*
%TO.N,Net-(U1-PadY)*%
X62818300Y-55654800D02*
X63103900Y-55369200D01*
X38100000Y-57150000D02*
X39595200Y-55654800D01*
X39595200Y-55654800D02*
X62818300Y-55654800D01*
%TO.N,Net-(U1-PadR)*%
X38733100Y-50800000D02*
X36830000Y-50800000D01*
X41056300Y-53123200D02*
X38733100Y-50800000D01*
X36830000Y-50800000D02*
X35560000Y-49530000D01*
X50128700Y-53123200D02*
X41056300Y-53123200D01*
%TO.N,A18*%
X41107000Y-48493500D02*
X42143500Y-49530000D01*
X39595100Y-47420900D02*
X40667700Y-48493500D01*
X32512000Y-37955300D02*
X39595100Y-45038400D01*
X39595100Y-45038400D02*
X39595100Y-47420900D01*
X40667700Y-48493500D02*
X41107000Y-48493500D01*
X32512000Y-36830000D02*
X32512000Y-37955300D01*
X76979700Y-51054000D02*
X73968800Y-48043100D01*
X78105000Y-51054000D02*
X76979700Y-51054000D01*
X43180000Y-49530000D02*
X42143500Y-49530000D01*
X45703400Y-48043100D02*
X44216500Y-49530000D01*
X43180000Y-49530000D02*
X44216500Y-49530000D01*
X73968800Y-48043100D02*
X45703400Y-48043100D01*
%TO.N,~{OE}*%
X54864000Y-32004000D02*
X52324000Y-32004000D01*
X57404000Y-32004000D02*
X54864000Y-32004000D01*
X65393900Y-56105200D02*
X73169700Y-63881000D01*
X46764800Y-56105200D02*
X65393900Y-56105200D01*
X45720000Y-57150000D02*
X46764800Y-56105200D01*
X74295000Y-63881000D02*
X73169700Y-63881000D01*
%TO.N,~{RES}*%
X71628000Y-33964000D02*
X60792300Y-44799700D01*
X71628000Y-33964000D02*
X78128000Y-33964000D01*
X60792300Y-44799700D02*
X41442100Y-44799700D01*
%TO.N,~{GAME}*%
X37879300Y-60947300D02*
X36830000Y-59898000D01*
X43434000Y-68444400D02*
X43088900Y-68099300D01*
X43434000Y-72769700D02*
X43434000Y-68444400D01*
X43088900Y-68099300D02*
X43088900Y-66698200D01*
X35297300Y-55880000D02*
X31286900Y-51869600D01*
X27432000Y-46954500D02*
X27432000Y-36830000D01*
X31286900Y-50809400D02*
X27432000Y-46954500D01*
X35761600Y-55880000D02*
X35297300Y-55880000D01*
X36830000Y-56948400D02*
X35761600Y-55880000D01*
X36830000Y-59898000D02*
X36830000Y-56948400D01*
X38708000Y-60947300D02*
X37879300Y-60947300D01*
X31286900Y-51869600D02*
X31286900Y-50809400D01*
%TO.N,~{EXROM}*%
X39136600Y-49046100D02*
X38350500Y-48260000D01*
X29972000Y-40336000D02*
X29972000Y-37955300D01*
X42143400Y-51758100D02*
X41370600Y-51758100D01*
X29972000Y-36830000D02*
X29972000Y-37955300D01*
X37896000Y-48260000D02*
X29972000Y-40336000D01*
X41370600Y-51758100D02*
X39136600Y-49524100D01*
X39136600Y-49524100D02*
X39136600Y-49046100D01*
X45974000Y-72769700D02*
X45974000Y-67233800D01*
X45974000Y-67233800D02*
X45417500Y-66677300D01*
X38350500Y-48260000D02*
X37896000Y-48260000D01*
%TO.N,~{ROML}*%
X74295000Y-43434000D02*
X75420300Y-43434000D01*
X62230000Y-29464000D02*
X61054700Y-29464000D01*
X59879400Y-28288700D02*
X61054700Y-29464000D01*
X56406600Y-28288700D02*
X59879400Y-28288700D01*
X68383200Y-61144000D02*
X55194200Y-61144000D01*
X51054000Y-72769700D02*
X51054000Y-68444400D01*
X56039300Y-29464000D02*
X56039300Y-28656000D01*
X56039300Y-28656000D02*
X56406600Y-28288700D01*
X51054000Y-68444400D02*
X53429600Y-68444400D01*
X76545600Y-44559300D02*
X78287300Y-44559300D01*
X54864000Y-29464000D02*
X56039300Y-29464000D01*
X78494300Y-65014700D02*
X72253900Y-65014700D01*
X75420300Y-43434000D02*
X76545600Y-44559300D01*
X80194600Y-46466600D02*
X80194600Y-63314400D01*
X80194600Y-63314400D02*
X78494300Y-65014700D01*
X53429600Y-68444400D02*
X55194200Y-66679800D01*
X78287300Y-44559300D02*
X80194600Y-46466600D01*
X72253900Y-65014700D02*
X68383200Y-61144000D01*
%TO.N,D7*%
X54749900Y-65894300D02*
X54197900Y-66446300D01*
X54197900Y-66446300D02*
X50386100Y-66446300D01*
X58674000Y-68444400D02*
X56123900Y-65894300D01*
X58674000Y-72769700D02*
X58674000Y-68444400D01*
X56123900Y-65894300D02*
X54749900Y-65894300D01*
%TO.N,D6*%
X57340800Y-64571200D02*
X61214000Y-68444400D01*
X61214000Y-72769700D02*
X61214000Y-68444400D01*
X45720000Y-62230000D02*
X45720000Y-62927600D01*
X47363600Y-64571200D02*
X57340800Y-64571200D01*
X45720000Y-62927600D02*
X47363600Y-64571200D01*
%TO.N,D5*%
X47631800Y-63813700D02*
X47939000Y-64120900D01*
X47939000Y-64120900D02*
X59430500Y-64120900D01*
X59430500Y-64120900D02*
X63754000Y-68444400D01*
X63754000Y-72769700D02*
X63754000Y-68444400D01*
%TO.N,D4*%
X44862400Y-61184500D02*
X50921300Y-61184500D01*
X43180000Y-62230000D02*
X43816900Y-62230000D01*
X61520200Y-63670600D02*
X66294000Y-68444400D01*
X66294000Y-72769700D02*
X66294000Y-68444400D01*
X43816900Y-62230000D02*
X44862400Y-61184500D01*
X53407400Y-63670600D02*
X61520200Y-63670600D01*
X50921300Y-61184500D02*
X53407400Y-63670600D01*
%TO.N,D3*%
X63609900Y-63220300D02*
X68834000Y-68444400D01*
X68834000Y-72769700D02*
X68834000Y-68444400D01*
X49019000Y-58645300D02*
X53594000Y-63220300D01*
X40640000Y-59690000D02*
X41684700Y-58645300D01*
X53594000Y-63220300D02*
X63609900Y-63220300D01*
X41684700Y-58645300D02*
X49019000Y-58645300D01*
%TO.N,D2*%
X53780900Y-62544900D02*
X49422600Y-58186600D01*
X71374000Y-72769700D02*
X71374000Y-68444400D01*
X71374000Y-68444400D02*
X65474500Y-62544900D01*
X39603400Y-58186600D02*
X38100000Y-59690000D01*
X49422600Y-58186600D02*
X39603400Y-58186600D01*
X65474500Y-62544900D02*
X53780900Y-62544900D01*
%TO.N,D1*%
X73914000Y-68444400D02*
X67339000Y-61869400D01*
X73914000Y-72769700D02*
X73914000Y-68444400D01*
X39116000Y-65457600D02*
X53892300Y-65457600D01*
X54167400Y-61869400D02*
X54098600Y-61800600D01*
X67339000Y-61869400D02*
X54167400Y-61869400D01*
%TO.N,D0*%
X76454000Y-72769700D02*
X76454000Y-68444400D01*
X76454000Y-68444400D02*
X75908200Y-67898600D01*
X27555400Y-51685400D02*
X35560000Y-59690000D01*
X75908200Y-67898600D02*
X75908200Y-66275700D01*
X27555400Y-48630800D02*
X27555400Y-51685400D01*
%TO.N,~{ROMH}*%
X49784100Y-30828600D02*
X51148700Y-29464000D01*
X32713000Y-44184400D02*
X28833300Y-40304700D01*
X52324000Y-29464000D02*
X51148700Y-29464000D01*
X28833300Y-40304700D02*
X28833300Y-36349400D01*
X28833300Y-36349400D02*
X34354100Y-30828600D01*
X34354100Y-30828600D02*
X49784100Y-30828600D01*
X32713000Y-44562300D02*
X32713000Y-44184400D01*
%TO.N,Net-(J2-Pad1)*%
X66134700Y-29831300D02*
X59136000Y-36830000D01*
X59136000Y-36830000D02*
X45212000Y-36830000D01*
X66134700Y-29464000D02*
X66134700Y-29831300D01*
X67310000Y-29464000D02*
X66134700Y-29464000D01*
%TD*%
%TA.AperFunction,Conductor*%
%TO.N,GND*%
G36*
X80268930Y-26237888D02*
G01*
X80440975Y-26251428D01*
X80460503Y-26254521D01*
X80541991Y-26274084D01*
X80623480Y-26293648D01*
X80642283Y-26299758D01*
X80797128Y-26363897D01*
X80814745Y-26372873D01*
X80957658Y-26460450D01*
X80973653Y-26472072D01*
X81101098Y-26580920D01*
X81115079Y-26594901D01*
X81223927Y-26722346D01*
X81235549Y-26738341D01*
X81323126Y-26881254D01*
X81332102Y-26898871D01*
X81396241Y-27053716D01*
X81402351Y-27072520D01*
X81441478Y-27235496D01*
X81444571Y-27255024D01*
X81458112Y-27427069D01*
X81458500Y-27436955D01*
X81458500Y-67946000D01*
X81438498Y-68014121D01*
X81384842Y-68060614D01*
X81332500Y-68072000D01*
X77029696Y-68072000D01*
X76961575Y-68051998D01*
X76940601Y-68035095D01*
X76578605Y-67673099D01*
X76544579Y-67610787D01*
X76541700Y-67584004D01*
X76541700Y-66978224D01*
X76561702Y-66910103D01*
X76574058Y-66893920D01*
X76647240Y-66812644D01*
X76742727Y-66647256D01*
X76801742Y-66465628D01*
X76821704Y-66275700D01*
X76801742Y-66085772D01*
X76742727Y-65904144D01*
X76715135Y-65856354D01*
X76704077Y-65837200D01*
X76687339Y-65768205D01*
X76710559Y-65701113D01*
X76766367Y-65657226D01*
X76813196Y-65648200D01*
X78556693Y-65648200D01*
X78556694Y-65648200D01*
X78679085Y-65623855D01*
X78794375Y-65576100D01*
X78898133Y-65506771D01*
X80686671Y-63718233D01*
X80756000Y-63614475D01*
X80803755Y-63499185D01*
X80828100Y-63376794D01*
X80828100Y-63252007D01*
X80828100Y-46404206D01*
X80803755Y-46281815D01*
X80786020Y-46239000D01*
X80756001Y-46166525D01*
X80686672Y-46062767D01*
X79325298Y-44701394D01*
X79291275Y-44639084D01*
X79296339Y-44568269D01*
X79313528Y-44536791D01*
X79355889Y-44480204D01*
X79406989Y-44343201D01*
X79413500Y-44282638D01*
X79413500Y-42585362D01*
X79413499Y-42585350D01*
X79406990Y-42524803D01*
X79406988Y-42524795D01*
X79355889Y-42387797D01*
X79355887Y-42387792D01*
X79268261Y-42270738D01*
X79151207Y-42183112D01*
X79151202Y-42183110D01*
X79014204Y-42132011D01*
X79014196Y-42132009D01*
X78953649Y-42125500D01*
X78953638Y-42125500D01*
X77256362Y-42125500D01*
X77256350Y-42125500D01*
X77195803Y-42132009D01*
X77195795Y-42132011D01*
X77058797Y-42183110D01*
X77058792Y-42183112D01*
X76941738Y-42270738D01*
X76854112Y-42387792D01*
X76854110Y-42387797D01*
X76803011Y-42524795D01*
X76803009Y-42524803D01*
X76796500Y-42585350D01*
X76796500Y-43610104D01*
X76776498Y-43678225D01*
X76722842Y-43724718D01*
X76652568Y-43734822D01*
X76587988Y-43705328D01*
X76581405Y-43699200D01*
X76444233Y-43562028D01*
X75824133Y-42941929D01*
X75720375Y-42872600D01*
X75681280Y-42856406D01*
X75626001Y-42811858D01*
X75603580Y-42744495D01*
X75603500Y-42739998D01*
X75603500Y-42585367D01*
X75603499Y-42585350D01*
X75596990Y-42524803D01*
X75596988Y-42524795D01*
X75545889Y-42387797D01*
X75545887Y-42387792D01*
X75458261Y-42270738D01*
X75341207Y-42183112D01*
X75341202Y-42183110D01*
X75204204Y-42132011D01*
X75204196Y-42132009D01*
X75143649Y-42125500D01*
X75143638Y-42125500D01*
X73446362Y-42125500D01*
X73446350Y-42125500D01*
X73385803Y-42132009D01*
X73385795Y-42132011D01*
X73248797Y-42183110D01*
X73248792Y-42183112D01*
X73131738Y-42270738D01*
X73044112Y-42387792D01*
X73044110Y-42387797D01*
X72993011Y-42524795D01*
X72993009Y-42524803D01*
X72986500Y-42585350D01*
X72986500Y-44282649D01*
X72993009Y-44343196D01*
X72993011Y-44343204D01*
X73044110Y-44480202D01*
X73044112Y-44480207D01*
X73131740Y-44597263D01*
X73138111Y-44603634D01*
X73136916Y-44604828D01*
X73173178Y-44653269D01*
X73178242Y-44724085D01*
X73144216Y-44786396D01*
X73081904Y-44820421D01*
X73055122Y-44823300D01*
X61968794Y-44823300D01*
X61900673Y-44803298D01*
X61854180Y-44749642D01*
X61844076Y-44679368D01*
X61873570Y-44614788D01*
X61879699Y-44608205D01*
X64100112Y-42387792D01*
X71049541Y-35438361D01*
X71111851Y-35404337D01*
X71168045Y-35404938D01*
X71391289Y-35458535D01*
X71628000Y-35477165D01*
X71864711Y-35458535D01*
X72095594Y-35403105D01*
X72314963Y-35312240D01*
X72517416Y-35188176D01*
X72697969Y-35033969D01*
X72852176Y-34853416D01*
X72972134Y-34657662D01*
X73024780Y-34610034D01*
X73079565Y-34597500D01*
X76676435Y-34597500D01*
X76744556Y-34617502D01*
X76783865Y-34657662D01*
X76903824Y-34853416D01*
X76903825Y-34853417D01*
X76903826Y-34853419D01*
X77058030Y-35033969D01*
X77207739Y-35161832D01*
X77238584Y-35188176D01*
X77441037Y-35312240D01*
X77660406Y-35403105D01*
X77891289Y-35458535D01*
X78128000Y-35477165D01*
X78364711Y-35458535D01*
X78595594Y-35403105D01*
X78814963Y-35312240D01*
X79017416Y-35188176D01*
X79197969Y-35033969D01*
X79352176Y-34853416D01*
X79476240Y-34650963D01*
X79567105Y-34431594D01*
X79622535Y-34200711D01*
X79641165Y-33964000D01*
X79622535Y-33727289D01*
X79567105Y-33496406D01*
X79476240Y-33277037D01*
X79352176Y-33074584D01*
X79352173Y-33074580D01*
X79197969Y-32894030D01*
X79017419Y-32739826D01*
X79017417Y-32739825D01*
X79017416Y-32739824D01*
X78814963Y-32615760D01*
X78595594Y-32524895D01*
X78595592Y-32524894D01*
X78437651Y-32486976D01*
X78364711Y-32469465D01*
X78128000Y-32450835D01*
X77891289Y-32469465D01*
X77660407Y-32524894D01*
X77441038Y-32615759D01*
X77238582Y-32739825D01*
X77238580Y-32739826D01*
X77058030Y-32894030D01*
X76903826Y-33074580D01*
X76903825Y-33074582D01*
X76903824Y-33074584D01*
X76783865Y-33270337D01*
X76731220Y-33317966D01*
X76676435Y-33330500D01*
X73079565Y-33330500D01*
X73011444Y-33310498D01*
X72972134Y-33270337D01*
X72852176Y-33074584D01*
X72852173Y-33074580D01*
X72697969Y-32894030D01*
X72517419Y-32739826D01*
X72517417Y-32739825D01*
X72517416Y-32739824D01*
X72314963Y-32615760D01*
X72095594Y-32524895D01*
X72095592Y-32524894D01*
X71937651Y-32486976D01*
X71864711Y-32469465D01*
X71628000Y-32450835D01*
X71391289Y-32469465D01*
X71160407Y-32524894D01*
X70941038Y-32615759D01*
X70738582Y-32739825D01*
X70738580Y-32739826D01*
X70558030Y-32894030D01*
X70403826Y-33074580D01*
X70403825Y-33074582D01*
X70279759Y-33277038D01*
X70188894Y-33496407D01*
X70133465Y-33727289D01*
X70114835Y-33964000D01*
X70133465Y-34200710D01*
X70187060Y-34423949D01*
X70183513Y-34494857D01*
X70153636Y-34542458D01*
X60566801Y-44129295D01*
X60504489Y-44163321D01*
X60477706Y-44166200D01*
X42150300Y-44166200D01*
X42082179Y-44146198D01*
X42056663Y-44124510D01*
X42053352Y-44120833D01*
X41898852Y-44008582D01*
X41724388Y-43930906D01*
X41537587Y-43891200D01*
X41399500Y-43891200D01*
X41331379Y-43871198D01*
X41284886Y-43817542D01*
X41273500Y-43765200D01*
X41273500Y-40940907D01*
X41273499Y-40940903D01*
X41249155Y-40818515D01*
X41201400Y-40703225D01*
X41132071Y-40599467D01*
X41043833Y-40511229D01*
X38491646Y-37959042D01*
X38457620Y-37896730D01*
X38462685Y-37825915D01*
X38491646Y-37780852D01*
X38533302Y-37739196D01*
X38598198Y-37674300D01*
X38722912Y-37496189D01*
X38778369Y-37451861D01*
X38848988Y-37444552D01*
X38850565Y-37444853D01*
X38934068Y-37461463D01*
X38996977Y-37494371D01*
X39012697Y-37512770D01*
X39060778Y-37581436D01*
X39125795Y-37674291D01*
X39125802Y-37674300D01*
X39287700Y-37836198D01*
X39475251Y-37967523D01*
X39682757Y-38064284D01*
X39903913Y-38123543D01*
X40132000Y-38143498D01*
X40360087Y-38123543D01*
X40581243Y-38064284D01*
X40788749Y-37967523D01*
X40976300Y-37836198D01*
X41138198Y-37674300D01*
X41269523Y-37486749D01*
X41287805Y-37447543D01*
X41334721Y-37394258D01*
X41402998Y-37374796D01*
X41470958Y-37395337D01*
X41516195Y-37447543D01*
X41534477Y-37486749D01*
X41622177Y-37611998D01*
X41665795Y-37674291D01*
X41665802Y-37674300D01*
X41827700Y-37836198D01*
X42015251Y-37967523D01*
X42222757Y-38064284D01*
X42443913Y-38123543D01*
X42672000Y-38143498D01*
X42900087Y-38123543D01*
X43121243Y-38064284D01*
X43328749Y-37967523D01*
X43516300Y-37836198D01*
X43678198Y-37674300D01*
X43809523Y-37486749D01*
X43827805Y-37447543D01*
X43874721Y-37394258D01*
X43942998Y-37374796D01*
X44010958Y-37395337D01*
X44056195Y-37447543D01*
X44074477Y-37486749D01*
X44162177Y-37611998D01*
X44205795Y-37674291D01*
X44205802Y-37674300D01*
X44367700Y-37836198D01*
X44555251Y-37967523D01*
X44762757Y-38064284D01*
X44983913Y-38123543D01*
X45212000Y-38143498D01*
X45440087Y-38123543D01*
X45661243Y-38064284D01*
X45868749Y-37967523D01*
X46056300Y-37836198D01*
X46218198Y-37674300D01*
X46328181Y-37517229D01*
X46383638Y-37472901D01*
X46431394Y-37463500D01*
X59198393Y-37463500D01*
X59198394Y-37463500D01*
X59320785Y-37439155D01*
X59436075Y-37391400D01*
X59539833Y-37322071D01*
X66071565Y-30790337D01*
X66133875Y-30756313D01*
X66204690Y-30761378D01*
X66206065Y-30762005D01*
X66213794Y-30764888D01*
X66213796Y-30764889D01*
X66268900Y-30785442D01*
X66350795Y-30815988D01*
X66350803Y-30815990D01*
X66411350Y-30822499D01*
X66411355Y-30822499D01*
X66411362Y-30822500D01*
X66411368Y-30822500D01*
X68208632Y-30822500D01*
X68208638Y-30822500D01*
X68208645Y-30822499D01*
X68208649Y-30822499D01*
X68269196Y-30815990D01*
X68269199Y-30815989D01*
X68269201Y-30815989D01*
X68406204Y-30764889D01*
X68430199Y-30746927D01*
X68523261Y-30677261D01*
X68610887Y-30560207D01*
X68610887Y-30560206D01*
X68610889Y-30560204D01*
X68661989Y-30423201D01*
X68663800Y-30406362D01*
X68668499Y-30362649D01*
X68668500Y-30362632D01*
X68668500Y-29464000D01*
X70115337Y-29464000D01*
X70133960Y-29700632D01*
X70189371Y-29931437D01*
X70280208Y-30150738D01*
X70394896Y-30337890D01*
X70394897Y-30337890D01*
X71103016Y-29629771D01*
X71115482Y-29676292D01*
X71187890Y-29801708D01*
X71290292Y-29904110D01*
X71415708Y-29976518D01*
X71462226Y-29988982D01*
X70754107Y-30697101D01*
X70754108Y-30697102D01*
X70941261Y-30811791D01*
X71160562Y-30902628D01*
X71391367Y-30958039D01*
X71628000Y-30976662D01*
X71864632Y-30958039D01*
X72095437Y-30902628D01*
X72314738Y-30811791D01*
X72501890Y-30697102D01*
X72501891Y-30697102D01*
X71793772Y-29988982D01*
X71840292Y-29976518D01*
X71965708Y-29904110D01*
X72068110Y-29801708D01*
X72140518Y-29676292D01*
X72152983Y-29629772D01*
X72861102Y-30337891D01*
X72861102Y-30337890D01*
X72975791Y-30150738D01*
X73066628Y-29931437D01*
X73122039Y-29700632D01*
X73140662Y-29464000D01*
X76615337Y-29464000D01*
X76633960Y-29700632D01*
X76689371Y-29931437D01*
X76780208Y-30150738D01*
X76894896Y-30337890D01*
X76894897Y-30337890D01*
X77603016Y-29629771D01*
X77615482Y-29676292D01*
X77687890Y-29801708D01*
X77790292Y-29904110D01*
X77915708Y-29976518D01*
X77962226Y-29988982D01*
X77254107Y-30697101D01*
X77254108Y-30697102D01*
X77441261Y-30811791D01*
X77660562Y-30902628D01*
X77891367Y-30958039D01*
X78128000Y-30976662D01*
X78364632Y-30958039D01*
X78595437Y-30902628D01*
X78814738Y-30811791D01*
X79001890Y-30697102D01*
X79001891Y-30697102D01*
X78293772Y-29988982D01*
X78340292Y-29976518D01*
X78465708Y-29904110D01*
X78568110Y-29801708D01*
X78640518Y-29676292D01*
X78652982Y-29629772D01*
X79361102Y-30337891D01*
X79361102Y-30337890D01*
X79475791Y-30150738D01*
X79566628Y-29931437D01*
X79622039Y-29700632D01*
X79640662Y-29464000D01*
X79622039Y-29227367D01*
X79566628Y-28996562D01*
X79475791Y-28777261D01*
X79361102Y-28590108D01*
X79361101Y-28590107D01*
X78652982Y-29298225D01*
X78640518Y-29251708D01*
X78568110Y-29126292D01*
X78465708Y-29023890D01*
X78340292Y-28951482D01*
X78293771Y-28939016D01*
X79001890Y-28230897D01*
X79001890Y-28230896D01*
X78814738Y-28116208D01*
X78595437Y-28025371D01*
X78364632Y-27969960D01*
X78128000Y-27951337D01*
X77891367Y-27969960D01*
X77660562Y-28025371D01*
X77441266Y-28116206D01*
X77254108Y-28230897D01*
X77254108Y-28230898D01*
X77962227Y-28939017D01*
X77915708Y-28951482D01*
X77790292Y-29023890D01*
X77687890Y-29126292D01*
X77615482Y-29251708D01*
X77603017Y-29298227D01*
X76894898Y-28590108D01*
X76894897Y-28590108D01*
X76780206Y-28777266D01*
X76689371Y-28996562D01*
X76633960Y-29227367D01*
X76615337Y-29464000D01*
X73140662Y-29464000D01*
X73122039Y-29227367D01*
X73066628Y-28996562D01*
X72975791Y-28777261D01*
X72861102Y-28590108D01*
X72861101Y-28590107D01*
X72152982Y-29298226D01*
X72140518Y-29251708D01*
X72068110Y-29126292D01*
X71965708Y-29023890D01*
X71840292Y-28951482D01*
X71793771Y-28939016D01*
X72501890Y-28230897D01*
X72501890Y-28230896D01*
X72314738Y-28116208D01*
X72095437Y-28025371D01*
X71864632Y-27969960D01*
X71628000Y-27951337D01*
X71391367Y-27969960D01*
X71160562Y-28025371D01*
X70941266Y-28116206D01*
X70754108Y-28230897D01*
X70754108Y-28230898D01*
X71462227Y-28939017D01*
X71415708Y-28951482D01*
X71290292Y-29023890D01*
X71187890Y-29126292D01*
X71115482Y-29251708D01*
X71103017Y-29298227D01*
X70394898Y-28590108D01*
X70394897Y-28590108D01*
X70280206Y-28777266D01*
X70189371Y-28996562D01*
X70133960Y-29227367D01*
X70115337Y-29464000D01*
X68668500Y-29464000D01*
X68668500Y-28565367D01*
X68668499Y-28565350D01*
X68661990Y-28504803D01*
X68661988Y-28504795D01*
X68610889Y-28367797D01*
X68610887Y-28367792D01*
X68523261Y-28250738D01*
X68406207Y-28163112D01*
X68406202Y-28163110D01*
X68269204Y-28112011D01*
X68269196Y-28112009D01*
X68208649Y-28105500D01*
X68208638Y-28105500D01*
X66411362Y-28105500D01*
X66411350Y-28105500D01*
X66350803Y-28112009D01*
X66350795Y-28112011D01*
X66213797Y-28163110D01*
X66213792Y-28163112D01*
X66096738Y-28250738D01*
X66009112Y-28367792D01*
X66009111Y-28367795D01*
X65965000Y-28486058D01*
X65922453Y-28542893D01*
X65855932Y-28567703D01*
X65786558Y-28552611D01*
X65754246Y-28527363D01*
X65693240Y-28461094D01*
X65693239Y-28461093D01*
X65693237Y-28461091D01*
X65573372Y-28367796D01*
X65515576Y-28322811D01*
X65317574Y-28215658D01*
X65317572Y-28215657D01*
X65317571Y-28215656D01*
X65104639Y-28142557D01*
X65104630Y-28142555D01*
X65060476Y-28135187D01*
X64882569Y-28105500D01*
X64657431Y-28105500D01*
X64509211Y-28130233D01*
X64435369Y-28142555D01*
X64435360Y-28142557D01*
X64222428Y-28215656D01*
X64222426Y-28215658D01*
X64193347Y-28231395D01*
X64024426Y-28322810D01*
X64024424Y-28322811D01*
X63846762Y-28461091D01*
X63694279Y-28626729D01*
X63605483Y-28762643D01*
X63551479Y-28808731D01*
X63481131Y-28818306D01*
X63416774Y-28788329D01*
X63394517Y-28762643D01*
X63305720Y-28626729D01*
X63153237Y-28461091D01*
X63033372Y-28367796D01*
X62975576Y-28322811D01*
X62777574Y-28215658D01*
X62777572Y-28215657D01*
X62777571Y-28215656D01*
X62564639Y-28142557D01*
X62564630Y-28142555D01*
X62520476Y-28135187D01*
X62342569Y-28105500D01*
X62117431Y-28105500D01*
X61969211Y-28130233D01*
X61895369Y-28142555D01*
X61895360Y-28142557D01*
X61682428Y-28215656D01*
X61682426Y-28215658D01*
X61653347Y-28231395D01*
X61484426Y-28322810D01*
X61484424Y-28322811D01*
X61306759Y-28461094D01*
X61223592Y-28551436D01*
X61162739Y-28588007D01*
X61091774Y-28585872D01*
X61041797Y-28555193D01*
X60283235Y-27796631D01*
X60283233Y-27796629D01*
X60179475Y-27727300D01*
X60064185Y-27679545D01*
X59990486Y-27664885D01*
X59941796Y-27655200D01*
X59941794Y-27655200D01*
X56344206Y-27655200D01*
X56344200Y-27655200D01*
X56221817Y-27679544D01*
X56221809Y-27679546D01*
X56188047Y-27693530D01*
X56188047Y-27693531D01*
X56106525Y-27727299D01*
X56002767Y-27796627D01*
X55635467Y-28163929D01*
X55635465Y-28163930D01*
X55589717Y-28209677D01*
X55527405Y-28243702D01*
X55456589Y-28238636D01*
X55440655Y-28231395D01*
X55411579Y-28215660D01*
X55411571Y-28215656D01*
X55198639Y-28142557D01*
X55198630Y-28142555D01*
X55154476Y-28135187D01*
X54976569Y-28105500D01*
X54751431Y-28105500D01*
X54603211Y-28130233D01*
X54529369Y-28142555D01*
X54529360Y-28142557D01*
X54316428Y-28215656D01*
X54316426Y-28215658D01*
X54287347Y-28231395D01*
X54118426Y-28322810D01*
X54118424Y-28322811D01*
X53940762Y-28461091D01*
X53788279Y-28626729D01*
X53699483Y-28762643D01*
X53645479Y-28808731D01*
X53575131Y-28818306D01*
X53510774Y-28788329D01*
X53488517Y-28762643D01*
X53399720Y-28626729D01*
X53247237Y-28461091D01*
X53127372Y-28367796D01*
X53069576Y-28322811D01*
X52871574Y-28215658D01*
X52871572Y-28215657D01*
X52871571Y-28215656D01*
X52658639Y-28142557D01*
X52658630Y-28142555D01*
X52614476Y-28135187D01*
X52436569Y-28105500D01*
X52211431Y-28105500D01*
X52063211Y-28130233D01*
X51989369Y-28142555D01*
X51989360Y-28142557D01*
X51776428Y-28215656D01*
X51776426Y-28215658D01*
X51747347Y-28231395D01*
X51578426Y-28322810D01*
X51578424Y-28322811D01*
X51400762Y-28461091D01*
X51248279Y-28626729D01*
X51248279Y-28626730D01*
X51148421Y-28779573D01*
X51094417Y-28825661D01*
X51067521Y-28834236D01*
X50991757Y-28849306D01*
X50963915Y-28854845D01*
X50963914Y-28854845D01*
X50963911Y-28854846D01*
X50848623Y-28902601D01*
X50744871Y-28971926D01*
X50744864Y-28971931D01*
X49558601Y-30158195D01*
X49496289Y-30192221D01*
X49469506Y-30195100D01*
X46361042Y-30195100D01*
X46292921Y-30175098D01*
X46246428Y-30121442D01*
X46236324Y-30051168D01*
X46257829Y-29996829D01*
X46349087Y-29866498D01*
X46445811Y-29659073D01*
X46445813Y-29659068D01*
X46498082Y-29464000D01*
X45523686Y-29464000D01*
X45532080Y-29455606D01*
X45584741Y-29364394D01*
X45612000Y-29262661D01*
X45612000Y-29157339D01*
X45584741Y-29055606D01*
X45532080Y-28964394D01*
X45523686Y-28956000D01*
X46498082Y-28956000D01*
X46445813Y-28760931D01*
X46445811Y-28760926D01*
X46349087Y-28553501D01*
X46217815Y-28366025D01*
X46217810Y-28366019D01*
X46055980Y-28204189D01*
X46055974Y-28204184D01*
X45868498Y-28072912D01*
X45661073Y-27976188D01*
X45661071Y-27976187D01*
X45466000Y-27923917D01*
X45466000Y-28898314D01*
X45457606Y-28889920D01*
X45366394Y-28837259D01*
X45264661Y-28810000D01*
X45159339Y-28810000D01*
X45057606Y-28837259D01*
X44966394Y-28889920D01*
X44958000Y-28898314D01*
X44958000Y-27923917D01*
X44957999Y-27923917D01*
X44762928Y-27976187D01*
X44762926Y-27976188D01*
X44555501Y-28072912D01*
X44368025Y-28204184D01*
X44368019Y-28204189D01*
X44206189Y-28366019D01*
X44206184Y-28366025D01*
X44074910Y-28553503D01*
X44056194Y-28593641D01*
X44009277Y-28646925D01*
X43941000Y-28666386D01*
X43873040Y-28645844D01*
X43827806Y-28593641D01*
X43809089Y-28553503D01*
X43677815Y-28366025D01*
X43677810Y-28366019D01*
X43515980Y-28204189D01*
X43515974Y-28204184D01*
X43328498Y-28072912D01*
X43121073Y-27976188D01*
X43121071Y-27976187D01*
X42926000Y-27923917D01*
X42926000Y-28898314D01*
X42917606Y-28889920D01*
X42826394Y-28837259D01*
X42724661Y-28810000D01*
X42619339Y-28810000D01*
X42517606Y-28837259D01*
X42426394Y-28889920D01*
X42418000Y-28898314D01*
X42418000Y-27923917D01*
X42417999Y-27923917D01*
X42222928Y-27976187D01*
X42222926Y-27976188D01*
X42015501Y-28072912D01*
X41828025Y-28204184D01*
X41828019Y-28204189D01*
X41666189Y-28366019D01*
X41666184Y-28366025D01*
X41534910Y-28553503D01*
X41516194Y-28593641D01*
X41469277Y-28646925D01*
X41401000Y-28666386D01*
X41333040Y-28645844D01*
X41287806Y-28593641D01*
X41269089Y-28553503D01*
X41137815Y-28366025D01*
X41137810Y-28366019D01*
X40975980Y-28204189D01*
X40975974Y-28204184D01*
X40788498Y-28072912D01*
X40581073Y-27976188D01*
X40581071Y-27976187D01*
X40386000Y-27923917D01*
X40386000Y-28898314D01*
X40377606Y-28889920D01*
X40286394Y-28837259D01*
X40184661Y-28810000D01*
X40079339Y-28810000D01*
X39977606Y-28837259D01*
X39886394Y-28889920D01*
X39878000Y-28898314D01*
X39878000Y-27923917D01*
X39682928Y-27976187D01*
X39682926Y-27976188D01*
X39475501Y-28072912D01*
X39288025Y-28204184D01*
X39288019Y-28204189D01*
X39126189Y-28366019D01*
X39126184Y-28366025D01*
X38994910Y-28553503D01*
X38976194Y-28593641D01*
X38929277Y-28646925D01*
X38861000Y-28666386D01*
X38793040Y-28645844D01*
X38747806Y-28593641D01*
X38729089Y-28553503D01*
X38597815Y-28366025D01*
X38597810Y-28366019D01*
X38435980Y-28204189D01*
X38435974Y-28204184D01*
X38248498Y-28072912D01*
X38041073Y-27976188D01*
X38041071Y-27976187D01*
X37846000Y-27923917D01*
X37846000Y-28898314D01*
X37837606Y-28889920D01*
X37746394Y-28837259D01*
X37644661Y-28810000D01*
X37539339Y-28810000D01*
X37437606Y-28837259D01*
X37346394Y-28889920D01*
X37338000Y-28898314D01*
X37338000Y-27923917D01*
X37142928Y-27976187D01*
X37142926Y-27976188D01*
X36935501Y-28072912D01*
X36748025Y-28204184D01*
X36748019Y-28204189D01*
X36586189Y-28366019D01*
X36586184Y-28366025D01*
X36454910Y-28553503D01*
X36436194Y-28593641D01*
X36389277Y-28646925D01*
X36321000Y-28666386D01*
X36253040Y-28645844D01*
X36207806Y-28593641D01*
X36189089Y-28553503D01*
X36057815Y-28366025D01*
X36057810Y-28366019D01*
X35895980Y-28204189D01*
X35895974Y-28204184D01*
X35708498Y-28072912D01*
X35501073Y-27976188D01*
X35501071Y-27976187D01*
X35306000Y-27923917D01*
X35306000Y-28898314D01*
X35297606Y-28889920D01*
X35206394Y-28837259D01*
X35104661Y-28810000D01*
X34999339Y-28810000D01*
X34897606Y-28837259D01*
X34806394Y-28889920D01*
X34798000Y-28898314D01*
X34798000Y-27923917D01*
X34797999Y-27923917D01*
X34602928Y-27976187D01*
X34602926Y-27976188D01*
X34395501Y-28072912D01*
X34208025Y-28204184D01*
X34208019Y-28204189D01*
X34046189Y-28366019D01*
X34046184Y-28366025D01*
X33914910Y-28553503D01*
X33896194Y-28593641D01*
X33849277Y-28646925D01*
X33781000Y-28666386D01*
X33713040Y-28645844D01*
X33667806Y-28593641D01*
X33649089Y-28553503D01*
X33517815Y-28366025D01*
X33517810Y-28366019D01*
X33355980Y-28204189D01*
X33355974Y-28204184D01*
X33168498Y-28072912D01*
X32961073Y-27976188D01*
X32961071Y-27976187D01*
X32766000Y-27923917D01*
X32766000Y-28898314D01*
X32757606Y-28889920D01*
X32666394Y-28837259D01*
X32564661Y-28810000D01*
X32459339Y-28810000D01*
X32357606Y-28837259D01*
X32266394Y-28889920D01*
X32258000Y-28898314D01*
X32258000Y-27923917D01*
X32257999Y-27923917D01*
X32062928Y-27976187D01*
X32062926Y-27976188D01*
X31855501Y-28072912D01*
X31668025Y-28204184D01*
X31668019Y-28204189D01*
X31506189Y-28366019D01*
X31506184Y-28366025D01*
X31374910Y-28553503D01*
X31356194Y-28593641D01*
X31309277Y-28646925D01*
X31241000Y-28666386D01*
X31173040Y-28645844D01*
X31127806Y-28593641D01*
X31109089Y-28553503D01*
X30977815Y-28366025D01*
X30977810Y-28366019D01*
X30815980Y-28204189D01*
X30815974Y-28204184D01*
X30628498Y-28072912D01*
X30421073Y-27976188D01*
X30421071Y-27976187D01*
X30226000Y-27923917D01*
X30226000Y-28898314D01*
X30217606Y-28889920D01*
X30126394Y-28837259D01*
X30024661Y-28810000D01*
X29919339Y-28810000D01*
X29817606Y-28837259D01*
X29726394Y-28889920D01*
X29718000Y-28898314D01*
X29718000Y-27923917D01*
X29717999Y-27923917D01*
X29522928Y-27976187D01*
X29522926Y-27976188D01*
X29315501Y-28072912D01*
X29128025Y-28204184D01*
X29128019Y-28204189D01*
X28966189Y-28366019D01*
X28966184Y-28366025D01*
X28834910Y-28553503D01*
X28816194Y-28593641D01*
X28769277Y-28646925D01*
X28701000Y-28666386D01*
X28633040Y-28645844D01*
X28587806Y-28593641D01*
X28569089Y-28553503D01*
X28437815Y-28366025D01*
X28437810Y-28366019D01*
X28275980Y-28204189D01*
X28275974Y-28204184D01*
X28088498Y-28072912D01*
X27881073Y-27976188D01*
X27881071Y-27976187D01*
X27686000Y-27923917D01*
X27686000Y-28898314D01*
X27677606Y-28889920D01*
X27586394Y-28837259D01*
X27484661Y-28810000D01*
X27379339Y-28810000D01*
X27277606Y-28837259D01*
X27186394Y-28889920D01*
X27178000Y-28898314D01*
X27178000Y-27923917D01*
X27177999Y-27923917D01*
X26982928Y-27976187D01*
X26982926Y-27976188D01*
X26775501Y-28072912D01*
X26588025Y-28204184D01*
X26588019Y-28204189D01*
X26426189Y-28366019D01*
X26426184Y-28366025D01*
X26294912Y-28553501D01*
X26198188Y-28760926D01*
X26198186Y-28760931D01*
X26145917Y-28956000D01*
X27120314Y-28956000D01*
X27111920Y-28964394D01*
X27059259Y-29055606D01*
X27032000Y-29157339D01*
X27032000Y-29262661D01*
X27059259Y-29364394D01*
X27111920Y-29455606D01*
X27120314Y-29464000D01*
X26145918Y-29464000D01*
X26198186Y-29659068D01*
X26198188Y-29659073D01*
X26294912Y-29866498D01*
X26426184Y-30053974D01*
X26426189Y-30053980D01*
X26588019Y-30215810D01*
X26588025Y-30215815D01*
X26775501Y-30347087D01*
X26982926Y-30443811D01*
X26982931Y-30443813D01*
X27178000Y-30496081D01*
X27178000Y-29521686D01*
X27186394Y-29530080D01*
X27277606Y-29582741D01*
X27379339Y-29610000D01*
X27484661Y-29610000D01*
X27586394Y-29582741D01*
X27677606Y-29530080D01*
X27686000Y-29521686D01*
X27686000Y-30496081D01*
X27881068Y-30443813D01*
X27881073Y-30443811D01*
X28088498Y-30347087D01*
X28275974Y-30215815D01*
X28275980Y-30215810D01*
X28437810Y-30053980D01*
X28437815Y-30053974D01*
X28569087Y-29866498D01*
X28587805Y-29826359D01*
X28634722Y-29773074D01*
X28702999Y-29753613D01*
X28770959Y-29774155D01*
X28816195Y-29826359D01*
X28834912Y-29866498D01*
X28966184Y-30053974D01*
X28966189Y-30053980D01*
X29128019Y-30215810D01*
X29128025Y-30215815D01*
X29315501Y-30347087D01*
X29522926Y-30443811D01*
X29522931Y-30443813D01*
X29718000Y-30496081D01*
X29718000Y-29521686D01*
X29726394Y-29530080D01*
X29817606Y-29582741D01*
X29919339Y-29610000D01*
X30024661Y-29610000D01*
X30126394Y-29582741D01*
X30217606Y-29530080D01*
X30226000Y-29521686D01*
X30226000Y-30496081D01*
X30421068Y-30443813D01*
X30421073Y-30443811D01*
X30628498Y-30347087D01*
X30815974Y-30215815D01*
X30815980Y-30215810D01*
X30977810Y-30053980D01*
X30977815Y-30053974D01*
X31109087Y-29866498D01*
X31127805Y-29826359D01*
X31174722Y-29773074D01*
X31242999Y-29753613D01*
X31310959Y-29774155D01*
X31356195Y-29826359D01*
X31374912Y-29866498D01*
X31506184Y-30053974D01*
X31506189Y-30053980D01*
X31668019Y-30215810D01*
X31668025Y-30215815D01*
X31855501Y-30347087D01*
X32062926Y-30443811D01*
X32062931Y-30443813D01*
X32258000Y-30496081D01*
X32258000Y-29521686D01*
X32266394Y-29530080D01*
X32357606Y-29582741D01*
X32459339Y-29610000D01*
X32564661Y-29610000D01*
X32666394Y-29582741D01*
X32757606Y-29530080D01*
X32766000Y-29521686D01*
X32766000Y-30496081D01*
X32961068Y-30443813D01*
X32961073Y-30443811D01*
X33168498Y-30347087D01*
X33355974Y-30215815D01*
X33355980Y-30215810D01*
X33517810Y-30053980D01*
X33517815Y-30053974D01*
X33649087Y-29866498D01*
X33667805Y-29826359D01*
X33714722Y-29773074D01*
X33782999Y-29753613D01*
X33850959Y-29774155D01*
X33896195Y-29826359D01*
X33914912Y-29866498D01*
X34046184Y-30053974D01*
X34046189Y-30053980D01*
X34068580Y-30076371D01*
X34102606Y-30138683D01*
X34097541Y-30209498D01*
X34054994Y-30266334D01*
X34049488Y-30270231D01*
X33950267Y-30336529D01*
X33950264Y-30336531D01*
X28686642Y-35600152D01*
X28624330Y-35634178D01*
X28553514Y-35629113D01*
X28522037Y-35611924D01*
X28478208Y-35579113D01*
X28478202Y-35579110D01*
X28341204Y-35528011D01*
X28341196Y-35528009D01*
X28280649Y-35521500D01*
X28280638Y-35521500D01*
X26583362Y-35521500D01*
X26583350Y-35521500D01*
X26522803Y-35528009D01*
X26522795Y-35528011D01*
X26385797Y-35579110D01*
X26385792Y-35579112D01*
X26268738Y-35666738D01*
X26181112Y-35783792D01*
X26181110Y-35783797D01*
X26130011Y-35920795D01*
X26130009Y-35920803D01*
X26123500Y-35981350D01*
X26123500Y-37678649D01*
X26130009Y-37739196D01*
X26130011Y-37739204D01*
X26181110Y-37876202D01*
X26181112Y-37876207D01*
X26268738Y-37993261D01*
X26385792Y-38080887D01*
X26385794Y-38080888D01*
X26385796Y-38080889D01*
X26444875Y-38102924D01*
X26522795Y-38131988D01*
X26522803Y-38131990D01*
X26583350Y-38138499D01*
X26583355Y-38138499D01*
X26583362Y-38138500D01*
X26672500Y-38138500D01*
X26740621Y-38158502D01*
X26787114Y-38212158D01*
X26798500Y-38264500D01*
X26798500Y-46892106D01*
X26798500Y-47016894D01*
X26822845Y-47139285D01*
X26870600Y-47254575D01*
X26939929Y-47358333D01*
X26939931Y-47358335D01*
X27192251Y-47610655D01*
X27226277Y-47672967D01*
X27221212Y-47743782D01*
X27178665Y-47800618D01*
X27154406Y-47814856D01*
X27098651Y-47839680D01*
X27098648Y-47839682D01*
X26944144Y-47951935D01*
X26816365Y-48093848D01*
X26816358Y-48093858D01*
X26720876Y-48259238D01*
X26720873Y-48259245D01*
X26661857Y-48440872D01*
X26641896Y-48630800D01*
X26661857Y-48820727D01*
X26664670Y-48829383D01*
X26720873Y-49002356D01*
X26720876Y-49002361D01*
X26807288Y-49152032D01*
X26816360Y-49167744D01*
X26889537Y-49249015D01*
X26920253Y-49313020D01*
X26921900Y-49333324D01*
X26921900Y-51747796D01*
X26931585Y-51796486D01*
X26946245Y-51870185D01*
X26994000Y-51985475D01*
X27063329Y-52089233D01*
X27063331Y-52089235D01*
X29884833Y-54910737D01*
X29918859Y-54973049D01*
X29913794Y-55043864D01*
X29871247Y-55100700D01*
X29806720Y-55125353D01*
X29616997Y-55141951D01*
X29395931Y-55201186D01*
X29395926Y-55201188D01*
X29188500Y-55297913D01*
X29117109Y-55347899D01*
X29804211Y-56035000D01*
X29792339Y-56035000D01*
X29690606Y-56062259D01*
X29599394Y-56114920D01*
X29524920Y-56189394D01*
X29472259Y-56280606D01*
X29445000Y-56382339D01*
X29445000Y-56394209D01*
X28757900Y-55707109D01*
X28707913Y-55778500D01*
X28611188Y-55985926D01*
X28611186Y-55985931D01*
X28551951Y-56206997D01*
X28532004Y-56435000D01*
X28551951Y-56663002D01*
X28611186Y-56884068D01*
X28611188Y-56884073D01*
X28707913Y-57091501D01*
X28757899Y-57162888D01*
X29445000Y-56475788D01*
X29445000Y-56487661D01*
X29472259Y-56589394D01*
X29524920Y-56680606D01*
X29599394Y-56755080D01*
X29690606Y-56807741D01*
X29792339Y-56835000D01*
X29804210Y-56835000D01*
X29117110Y-57522098D01*
X29117110Y-57522100D01*
X29188498Y-57572086D01*
X29395926Y-57668811D01*
X29395931Y-57668813D01*
X29616999Y-57728048D01*
X29616995Y-57728048D01*
X29845000Y-57747995D01*
X30073002Y-57728048D01*
X30294068Y-57668813D01*
X30294073Y-57668811D01*
X30501497Y-57572088D01*
X30572888Y-57522099D01*
X30572888Y-57522097D01*
X29885791Y-56835000D01*
X29897661Y-56835000D01*
X29999394Y-56807741D01*
X30090606Y-56755080D01*
X30165080Y-56680606D01*
X30217741Y-56589394D01*
X30245000Y-56487661D01*
X30245000Y-56475790D01*
X30932097Y-57162888D01*
X30932099Y-57162888D01*
X30982088Y-57091497D01*
X31078811Y-56884073D01*
X31078813Y-56884068D01*
X31138048Y-56663002D01*
X31154646Y-56473280D01*
X31180509Y-56407162D01*
X31238013Y-56365522D01*
X31308900Y-56361581D01*
X31369262Y-56395166D01*
X34323352Y-59349256D01*
X34357378Y-59411568D01*
X34355966Y-59470955D01*
X34354242Y-59477386D01*
X34340248Y-59637339D01*
X34335641Y-59690000D01*
X34354242Y-59902608D01*
X34374903Y-59979716D01*
X34409478Y-60108753D01*
X34409480Y-60108758D01*
X34499673Y-60302178D01*
X34499674Y-60302180D01*
X34622083Y-60476998D01*
X34622090Y-60477007D01*
X34772992Y-60627909D01*
X34772996Y-60627912D01*
X34772997Y-60627913D01*
X34947820Y-60750326D01*
X35141245Y-60840521D01*
X35347392Y-60895758D01*
X35560000Y-60914359D01*
X35772608Y-60895758D01*
X35978755Y-60840521D01*
X36172180Y-60750326D01*
X36347003Y-60627913D01*
X36416412Y-60558503D01*
X36478722Y-60524480D01*
X36549538Y-60529544D01*
X36594601Y-60558505D01*
X37231494Y-61195398D01*
X37265520Y-61257710D01*
X37260455Y-61328525D01*
X37231496Y-61373587D01*
X37162084Y-61443000D01*
X37039674Y-61617820D01*
X36949480Y-61811241D01*
X36949478Y-61811246D01*
X36923039Y-61909920D01*
X36894242Y-62017392D01*
X36875641Y-62230000D01*
X36894242Y-62442608D01*
X36903084Y-62475606D01*
X36949478Y-62648753D01*
X36949480Y-62648758D01*
X37039673Y-62842178D01*
X37039674Y-62842180D01*
X37162083Y-63016998D01*
X37162090Y-63017007D01*
X37312992Y-63167909D01*
X37313001Y-63167916D01*
X37363866Y-63203532D01*
X37487820Y-63290326D01*
X37681245Y-63380521D01*
X37887392Y-63435758D01*
X38100000Y-63454359D01*
X38312608Y-63435758D01*
X38518755Y-63380521D01*
X38712180Y-63290326D01*
X38887003Y-63167913D01*
X39037913Y-63017003D01*
X39160326Y-62842180D01*
X39250521Y-62648755D01*
X39250523Y-62648749D01*
X39251865Y-62645063D01*
X39293958Y-62587891D01*
X39360279Y-62562552D01*
X39429771Y-62577091D01*
X39480371Y-62626892D01*
X39488668Y-62645060D01*
X39489949Y-62648580D01*
X39580106Y-62841924D01*
X39616660Y-62894128D01*
X40240000Y-62270788D01*
X40240000Y-62282661D01*
X40267259Y-62384394D01*
X40319920Y-62475606D01*
X40394394Y-62550080D01*
X40485606Y-62602741D01*
X40587339Y-62630000D01*
X40599210Y-62630000D01*
X39975870Y-63253338D01*
X39975870Y-63253339D01*
X40028072Y-63289891D01*
X40028071Y-63289891D01*
X40221412Y-63380047D01*
X40221418Y-63380049D01*
X40427479Y-63435263D01*
X40640000Y-63453856D01*
X40852520Y-63435263D01*
X41058581Y-63380049D01*
X41058587Y-63380047D01*
X41251928Y-63289891D01*
X41251929Y-63289890D01*
X41304128Y-63253339D01*
X41304128Y-63253337D01*
X40680791Y-62630000D01*
X40692661Y-62630000D01*
X40794394Y-62602741D01*
X40885606Y-62550080D01*
X40960080Y-62475606D01*
X41012741Y-62384394D01*
X41040000Y-62282661D01*
X41040000Y-62270791D01*
X41663337Y-62894128D01*
X41663339Y-62894128D01*
X41699890Y-62841929D01*
X41699891Y-62841928D01*
X41790045Y-62648592D01*
X41791326Y-62645072D01*
X41792309Y-62643735D01*
X41792374Y-62643598D01*
X41792401Y-62643610D01*
X41833415Y-62587897D01*
X41899734Y-62562552D01*
X41969227Y-62577086D01*
X42019831Y-62626883D01*
X42028130Y-62645051D01*
X42029476Y-62648749D01*
X42119673Y-62842178D01*
X42119674Y-62842180D01*
X42242083Y-63016998D01*
X42242090Y-63017007D01*
X42392992Y-63167909D01*
X42393001Y-63167916D01*
X42443866Y-63203532D01*
X42567820Y-63290326D01*
X42761245Y-63380521D01*
X42967392Y-63435758D01*
X43180000Y-63454359D01*
X43392608Y-63435758D01*
X43598755Y-63380521D01*
X43792180Y-63290326D01*
X43967003Y-63167913D01*
X44117913Y-63017003D01*
X44240326Y-62842180D01*
X44240446Y-62841924D01*
X44284336Y-62747799D01*
X44330521Y-62648755D01*
X44330524Y-62648742D01*
X44331593Y-62645807D01*
X44332418Y-62644685D01*
X44332846Y-62643769D01*
X44333030Y-62643854D01*
X44373680Y-62588631D01*
X44439999Y-62563285D01*
X44509492Y-62577818D01*
X44560097Y-62627614D01*
X44568398Y-62645786D01*
X44569478Y-62648753D01*
X44659673Y-62842178D01*
X44659674Y-62842180D01*
X44782083Y-63016998D01*
X44782090Y-63017007D01*
X44932992Y-63167909D01*
X44932996Y-63167912D01*
X44932997Y-63167913D01*
X45013456Y-63224251D01*
X45107821Y-63290327D01*
X45235713Y-63349963D01*
X45271559Y-63375063D01*
X46505501Y-64609005D01*
X46539527Y-64671317D01*
X46534462Y-64742132D01*
X46491915Y-64798968D01*
X46425395Y-64823779D01*
X46416406Y-64824100D01*
X39824200Y-64824100D01*
X39756079Y-64804098D01*
X39730563Y-64782410D01*
X39728965Y-64780635D01*
X39727253Y-64778734D01*
X39693760Y-64754400D01*
X39572752Y-64666482D01*
X39398288Y-64588806D01*
X39211487Y-64549100D01*
X39020513Y-64549100D01*
X38833711Y-64588806D01*
X38659247Y-64666482D01*
X38504744Y-64778735D01*
X38376965Y-64920648D01*
X38376958Y-64920658D01*
X38281476Y-65086038D01*
X38281473Y-65086045D01*
X38222457Y-65267672D01*
X38202496Y-65457600D01*
X38222457Y-65647527D01*
X38229175Y-65668202D01*
X38281473Y-65829156D01*
X38281476Y-65829161D01*
X38376958Y-65994541D01*
X38376965Y-65994551D01*
X38504744Y-66136464D01*
X38538867Y-66161256D01*
X38659248Y-66248718D01*
X38833712Y-66326394D01*
X39020513Y-66366100D01*
X39211487Y-66366100D01*
X39398288Y-66326394D01*
X39572752Y-66248718D01*
X39727253Y-66136466D01*
X39730563Y-66132790D01*
X39791009Y-66095550D01*
X39824200Y-66091100D01*
X42172126Y-66091100D01*
X42240247Y-66111102D01*
X42286740Y-66164758D01*
X42296844Y-66235032D01*
X42281245Y-66280100D01*
X42254376Y-66326638D01*
X42254373Y-66326645D01*
X42195357Y-66508272D01*
X42175396Y-66698200D01*
X42195357Y-66888127D01*
X42210173Y-66933725D01*
X42254373Y-67069756D01*
X42254376Y-67069761D01*
X42337791Y-67214241D01*
X42349860Y-67235144D01*
X42423037Y-67316415D01*
X42453753Y-67380420D01*
X42455400Y-67400724D01*
X42455400Y-67946000D01*
X42435398Y-68014121D01*
X42381742Y-68060614D01*
X42329400Y-68072000D01*
X31493500Y-68072000D01*
X31425379Y-68051998D01*
X31378886Y-67998342D01*
X31367500Y-67946000D01*
X31367500Y-66866607D01*
X31367499Y-66866603D01*
X31343155Y-66744215D01*
X31295400Y-66628925D01*
X31226071Y-66525167D01*
X31137833Y-66436929D01*
X30248833Y-65547929D01*
X30145075Y-65478600D01*
X30029785Y-65430845D01*
X29956086Y-65416185D01*
X29907396Y-65406500D01*
X29907394Y-65406500D01*
X27378200Y-65406500D01*
X27310079Y-65386498D01*
X27284563Y-65364810D01*
X27281252Y-65361133D01*
X27126752Y-65248882D01*
X26952288Y-65171206D01*
X26765487Y-65131500D01*
X26574513Y-65131500D01*
X26387711Y-65171206D01*
X26213247Y-65248882D01*
X26058744Y-65361135D01*
X25930965Y-65503048D01*
X25930958Y-65503058D01*
X25835476Y-65668438D01*
X25835473Y-65668445D01*
X25776457Y-65850072D01*
X25756496Y-66040000D01*
X25776457Y-66229927D01*
X25792760Y-66280100D01*
X25835473Y-66411556D01*
X25863841Y-66460691D01*
X25930958Y-66576941D01*
X25930965Y-66576951D01*
X26058744Y-66718864D01*
X26058747Y-66718866D01*
X26213248Y-66831118D01*
X26387712Y-66908794D01*
X26574513Y-66948500D01*
X26630406Y-66948500D01*
X26698527Y-66968502D01*
X26719501Y-66985405D01*
X27523595Y-67789499D01*
X27557621Y-67851811D01*
X27560500Y-67878594D01*
X27560500Y-67946000D01*
X27540498Y-68014121D01*
X27486842Y-68060614D01*
X27434500Y-68072000D01*
X23315500Y-68072000D01*
X23247379Y-68051998D01*
X23200886Y-67998342D01*
X23189500Y-67946000D01*
X23189500Y-27436955D01*
X23189888Y-27427069D01*
X23203428Y-27255024D01*
X23206521Y-27235496D01*
X23245648Y-27072520D01*
X23251758Y-27053716D01*
X23315899Y-26898865D01*
X23324869Y-26881259D01*
X23412455Y-26738333D01*
X23424066Y-26722354D01*
X23532928Y-26594892D01*
X23546892Y-26580928D01*
X23674354Y-26472066D01*
X23690333Y-26460455D01*
X23833259Y-26372869D01*
X23850865Y-26363899D01*
X24005721Y-26299756D01*
X24024515Y-26293649D01*
X24187497Y-26254520D01*
X24207023Y-26251428D01*
X24379070Y-26237888D01*
X24388956Y-26237500D01*
X24408531Y-26237500D01*
X80239469Y-26237500D01*
X80259044Y-26237500D01*
X80268930Y-26237888D01*
G37*
%TD.AperFunction*%
%TA.AperFunction,Conductor*%
G36*
X39749266Y-60537264D02*
G01*
X39789314Y-60564231D01*
X39852992Y-60627909D01*
X39852996Y-60627912D01*
X39852997Y-60627913D01*
X40027820Y-60750326D01*
X40105838Y-60786706D01*
X40221245Y-60840521D01*
X40224940Y-60841866D01*
X40282111Y-60883961D01*
X40307448Y-60950283D01*
X40292906Y-61019775D01*
X40243103Y-61070373D01*
X40224943Y-61078667D01*
X40221417Y-61079950D01*
X40028070Y-61170110D01*
X39975869Y-61206660D01*
X40599209Y-61830000D01*
X40587339Y-61830000D01*
X40485606Y-61857259D01*
X40394394Y-61909920D01*
X40319920Y-61984394D01*
X40267259Y-62075606D01*
X40240000Y-62177339D01*
X40240000Y-62189209D01*
X39612023Y-61561232D01*
X39559900Y-61550757D01*
X39508907Y-61501357D01*
X39492717Y-61432231D01*
X39509404Y-61376225D01*
X39542527Y-61318856D01*
X39601542Y-61137228D01*
X39621504Y-60947300D01*
X39601542Y-60757372D01*
X39580385Y-60692260D01*
X39578358Y-60621296D01*
X39615020Y-60560498D01*
X39678732Y-60529172D01*
X39749266Y-60537264D01*
G37*
%TD.AperFunction*%
%TA.AperFunction,Conductor*%
G36*
X41969505Y-60037825D02*
G01*
X42020105Y-60087627D01*
X42028402Y-60105795D01*
X42029480Y-60108758D01*
X42119673Y-60302178D01*
X42119674Y-60302180D01*
X42242083Y-60476998D01*
X42242090Y-60477007D01*
X42392992Y-60627909D01*
X42392996Y-60627912D01*
X42392997Y-60627913D01*
X42567820Y-60750326D01*
X42645838Y-60786706D01*
X42761249Y-60840523D01*
X42764208Y-60841600D01*
X42765328Y-60842425D01*
X42766231Y-60842846D01*
X42766146Y-60843027D01*
X42821378Y-60883696D01*
X42846714Y-60950018D01*
X42832171Y-61019510D01*
X42782367Y-61070107D01*
X42764208Y-61078400D01*
X42761249Y-61079476D01*
X42567820Y-61169674D01*
X42393000Y-61292084D01*
X42392994Y-61292089D01*
X42242089Y-61442994D01*
X42242084Y-61443000D01*
X42119674Y-61617820D01*
X42029473Y-61811257D01*
X42028128Y-61814952D01*
X41986028Y-61872119D01*
X41919703Y-61897449D01*
X41850213Y-61882900D01*
X41799620Y-61833092D01*
X41791328Y-61814931D01*
X41790048Y-61811415D01*
X41699889Y-61618068D01*
X41663340Y-61565870D01*
X41663338Y-61565870D01*
X41040000Y-62189208D01*
X41040000Y-62177339D01*
X41012741Y-62075606D01*
X40960080Y-61984394D01*
X40885606Y-61909920D01*
X40794394Y-61857259D01*
X40692661Y-61830000D01*
X40680790Y-61830000D01*
X41304128Y-61206660D01*
X41251924Y-61170106D01*
X41058580Y-61079949D01*
X41055060Y-61078668D01*
X41053725Y-61077685D01*
X41053598Y-61077626D01*
X41053609Y-61077600D01*
X40997889Y-61036574D01*
X40972551Y-60970252D01*
X40987092Y-60900761D01*
X41036894Y-60850162D01*
X41055063Y-60841865D01*
X41058751Y-60840522D01*
X41058750Y-60840522D01*
X41058755Y-60840521D01*
X41252180Y-60750326D01*
X41427003Y-60627913D01*
X41577913Y-60477003D01*
X41700326Y-60302180D01*
X41790521Y-60108755D01*
X41790523Y-60108745D01*
X41791598Y-60105795D01*
X41792425Y-60104671D01*
X41792846Y-60103769D01*
X41793027Y-60103853D01*
X41833692Y-60048624D01*
X41900013Y-60023285D01*
X41969505Y-60037825D01*
G37*
%TD.AperFunction*%
%TA.AperFunction,Conductor*%
G36*
X44509771Y-60037091D02*
G01*
X44560371Y-60086892D01*
X44568668Y-60105060D01*
X44569949Y-60108580D01*
X44660109Y-60301929D01*
X44722402Y-60390892D01*
X44745090Y-60458166D01*
X44727805Y-60527026D01*
X44676036Y-60575611D01*
X44667409Y-60579571D01*
X44562326Y-60623099D01*
X44562325Y-60623099D01*
X44458571Y-60692426D01*
X44458569Y-60692427D01*
X43978185Y-61172809D01*
X43915873Y-61206834D01*
X43845057Y-61201769D01*
X43816820Y-61186927D01*
X43792179Y-61169673D01*
X43598758Y-61079480D01*
X43595795Y-61078402D01*
X43594671Y-61077574D01*
X43593769Y-61077154D01*
X43593853Y-61076972D01*
X43538624Y-61036308D01*
X43513285Y-60969987D01*
X43527825Y-60900495D01*
X43577627Y-60849895D01*
X43595795Y-60841598D01*
X43598745Y-60840523D01*
X43598755Y-60840521D01*
X43792180Y-60750326D01*
X43967003Y-60627913D01*
X44117913Y-60477003D01*
X44240326Y-60302180D01*
X44330521Y-60108755D01*
X44330523Y-60108749D01*
X44331865Y-60105063D01*
X44373958Y-60047891D01*
X44440279Y-60022552D01*
X44509771Y-60037091D01*
G37*
%TD.AperFunction*%
%TA.AperFunction,Conductor*%
G36*
X29651920Y-28964394D02*
G01*
X29599259Y-29055606D01*
X29572000Y-29157339D01*
X29572000Y-29262661D01*
X29599259Y-29364394D01*
X29651920Y-29455606D01*
X29660314Y-29464000D01*
X27743686Y-29464000D01*
X27752080Y-29455606D01*
X27804741Y-29364394D01*
X27832000Y-29262661D01*
X27832000Y-29157339D01*
X27804741Y-29055606D01*
X27752080Y-28964394D01*
X27743686Y-28956000D01*
X29660314Y-28956000D01*
X29651920Y-28964394D01*
G37*
%TD.AperFunction*%
%TA.AperFunction,Conductor*%
G36*
X32191920Y-28964394D02*
G01*
X32139259Y-29055606D01*
X32112000Y-29157339D01*
X32112000Y-29262661D01*
X32139259Y-29364394D01*
X32191920Y-29455606D01*
X32200314Y-29464000D01*
X30283686Y-29464000D01*
X30292080Y-29455606D01*
X30344741Y-29364394D01*
X30372000Y-29262661D01*
X30372000Y-29157339D01*
X30344741Y-29055606D01*
X30292080Y-28964394D01*
X30283686Y-28956000D01*
X32200314Y-28956000D01*
X32191920Y-28964394D01*
G37*
%TD.AperFunction*%
%TA.AperFunction,Conductor*%
G36*
X34731920Y-28964394D02*
G01*
X34679259Y-29055606D01*
X34652000Y-29157339D01*
X34652000Y-29262661D01*
X34679259Y-29364394D01*
X34731920Y-29455606D01*
X34740314Y-29464000D01*
X32823686Y-29464000D01*
X32832080Y-29455606D01*
X32884741Y-29364394D01*
X32912000Y-29262661D01*
X32912000Y-29157339D01*
X32884741Y-29055606D01*
X32832080Y-28964394D01*
X32823686Y-28956000D01*
X34740314Y-28956000D01*
X34731920Y-28964394D01*
G37*
%TD.AperFunction*%
%TA.AperFunction,Conductor*%
G36*
X37271920Y-28964394D02*
G01*
X37219259Y-29055606D01*
X37192000Y-29157339D01*
X37192000Y-29262661D01*
X37219259Y-29364394D01*
X37271920Y-29455606D01*
X37280314Y-29464000D01*
X35363686Y-29464000D01*
X35372080Y-29455606D01*
X35424741Y-29364394D01*
X35452000Y-29262661D01*
X35452000Y-29157339D01*
X35424741Y-29055606D01*
X35372080Y-28964394D01*
X35363686Y-28956000D01*
X37280314Y-28956000D01*
X37271920Y-28964394D01*
G37*
%TD.AperFunction*%
%TA.AperFunction,Conductor*%
G36*
X39811920Y-28964394D02*
G01*
X39759259Y-29055606D01*
X39732000Y-29157339D01*
X39732000Y-29262661D01*
X39759259Y-29364394D01*
X39811920Y-29455606D01*
X39820314Y-29464000D01*
X37903686Y-29464000D01*
X37912080Y-29455606D01*
X37964741Y-29364394D01*
X37992000Y-29262661D01*
X37992000Y-29157339D01*
X37964741Y-29055606D01*
X37912080Y-28964394D01*
X37903686Y-28956000D01*
X39820314Y-28956000D01*
X39811920Y-28964394D01*
G37*
%TD.AperFunction*%
%TA.AperFunction,Conductor*%
G36*
X42351920Y-28964394D02*
G01*
X42299259Y-29055606D01*
X42272000Y-29157339D01*
X42272000Y-29262661D01*
X42299259Y-29364394D01*
X42351920Y-29455606D01*
X42360314Y-29464000D01*
X40443686Y-29464000D01*
X40452080Y-29455606D01*
X40504741Y-29364394D01*
X40532000Y-29262661D01*
X40532000Y-29157339D01*
X40504741Y-29055606D01*
X40452080Y-28964394D01*
X40443686Y-28956000D01*
X42360314Y-28956000D01*
X42351920Y-28964394D01*
G37*
%TD.AperFunction*%
%TA.AperFunction,Conductor*%
G36*
X44891920Y-28964394D02*
G01*
X44839259Y-29055606D01*
X44812000Y-29157339D01*
X44812000Y-29262661D01*
X44839259Y-29364394D01*
X44891920Y-29455606D01*
X44900314Y-29464000D01*
X42983686Y-29464000D01*
X42992080Y-29455606D01*
X43044741Y-29364394D01*
X43072000Y-29262661D01*
X43072000Y-29157339D01*
X43044741Y-29055606D01*
X42992080Y-28964394D01*
X42983686Y-28956000D01*
X44900314Y-28956000D01*
X44891920Y-28964394D01*
G37*
%TD.AperFunction*%
%TD*%
M02*
