%TF.GenerationSoftware,KiCad,Pcbnew,8.0.2*%
%TF.CreationDate,2024-09-02T19:20:55+02:00*%
%TF.ProjectId,c64-megacart,6336342d-6d65-4676-9163-6172742e6b69,rev?*%
%TF.SameCoordinates,Original*%
%TF.FileFunction,Soldermask,Bot*%
%TF.FilePolarity,Negative*%
%FSLAX46Y46*%
G04 Gerber Fmt 4.6, Leading zero omitted, Abs format (unit mm)*
G04 Created by KiCad (PCBNEW 8.0.2) date 2024-09-02 19:20:55*
%MOMM*%
%LPD*%
G01*
G04 APERTURE LIST*
%ADD10C,1.600000*%
%ADD11C,2.000000*%
%ADD12R,58.420000X8.300000*%
%ADD13R,1.524000X8.000000*%
%ADD14R,1.600000X1.600000*%
%ADD15O,1.600000X1.600000*%
%ADD16R,1.700000X1.700000*%
%ADD17O,1.700000X1.700000*%
%ADD18R,1.422400X1.422400*%
%ADD19C,1.422400*%
G04 APERTURE END LIST*
D10*
%TO.C,C1*%
X29845000Y-51435000D03*
X29845000Y-56435000D03*
%TD*%
D11*
%TO.C,SW1*%
X71628000Y-29464000D03*
X78128000Y-29464000D03*
X71628000Y-33964000D03*
X78128000Y-33964000D03*
%TD*%
D12*
%TO.C,U1*%
X52324000Y-72898000D03*
D13*
X25654000Y-72769726D03*
X28194000Y-72769726D03*
X30734000Y-72769726D03*
X33274000Y-72769726D03*
X35814000Y-72769726D03*
X38354000Y-72769726D03*
X40894000Y-72769726D03*
X43434000Y-72769726D03*
X45974000Y-72769726D03*
X48514000Y-72769726D03*
X51054000Y-72769726D03*
X53594000Y-72769726D03*
X56134000Y-72769726D03*
X58674000Y-72769726D03*
X61214000Y-72769726D03*
X63754000Y-72769726D03*
X66294000Y-72769726D03*
X68834000Y-72769726D03*
X71374000Y-72769726D03*
X73914000Y-72769726D03*
X76454000Y-72769726D03*
X78994000Y-72769726D03*
%TD*%
D14*
%TO.C,RN1*%
X78105000Y-43434000D03*
D15*
X78105000Y-45974000D03*
X78105000Y-48514000D03*
X78105000Y-51054000D03*
X78105000Y-53594000D03*
X78105000Y-56134000D03*
X78105000Y-58674000D03*
X78105000Y-61214000D03*
X78105000Y-63754000D03*
%TD*%
D14*
%TO.C,D1*%
X74295000Y-43434000D03*
D15*
X74295000Y-51054000D03*
%TD*%
D14*
%TO.C,D2*%
X74295000Y-56261000D03*
D15*
X74295000Y-63881000D03*
%TD*%
D16*
%TO.C,J1*%
X57404000Y-29464000D03*
D17*
X57404000Y-32004000D03*
X54864000Y-29464000D03*
X54864000Y-32004000D03*
X52324000Y-29464000D03*
X52324000Y-32004000D03*
%TD*%
D16*
%TO.C,J2*%
X67310000Y-29464000D03*
D17*
X64770000Y-29464000D03*
X62230000Y-29464000D03*
%TD*%
D14*
%TO.C,SW2*%
X27432000Y-36830000D03*
D15*
X29972000Y-36830000D03*
X32512000Y-36830000D03*
X35052000Y-36830000D03*
X37592000Y-36830000D03*
X40132000Y-36830000D03*
X42672000Y-36830000D03*
X45212000Y-36830000D03*
X45212000Y-29210000D03*
X42672000Y-29210000D03*
X40132000Y-29210000D03*
X37592000Y-29210000D03*
X35052000Y-29210000D03*
X32512000Y-29210000D03*
X29972000Y-29210000D03*
X27432000Y-29210000D03*
%TD*%
D18*
%TO.C,U2*%
X43180000Y-49530000D03*
D19*
X40640000Y-46990000D03*
X40640000Y-49530000D03*
X38100000Y-46990000D03*
X35560000Y-49530000D03*
X38100000Y-49530000D03*
X35560000Y-52070000D03*
X38100000Y-52070000D03*
X35560000Y-54610000D03*
X38100000Y-54610000D03*
X35560000Y-57150000D03*
X38100000Y-57150000D03*
X35560000Y-59690000D03*
X38100000Y-62230000D03*
X38100000Y-59690000D03*
X40640000Y-62230000D03*
X40640000Y-59690000D03*
X43180000Y-62230000D03*
X43180000Y-59690000D03*
X45720000Y-62230000D03*
X48260000Y-59690000D03*
X45720000Y-59690000D03*
X48260000Y-57150000D03*
X45720000Y-57150000D03*
X48260000Y-54610000D03*
X45720000Y-54610000D03*
X48260000Y-52070000D03*
X45720000Y-52070000D03*
X48260000Y-49530000D03*
X45720000Y-46990000D03*
X45720000Y-49530000D03*
X43180000Y-46990000D03*
%TD*%
M02*
